{"glyphs":{"々":{"ha":1389,"x_min":106,"x_max":1109,"o":"m 1109 857 l 1109 794 q 764 208 1050 494 q 990 -20 873 108 l 940 -64 q 436 397 717 180 l 481 449 q 714 254 585 371 q 1040 794 981 521 l 511 794 q 158 315 372 527 l 106 358 q 567 1095 420 668 l 632 1079 q 542 857 590 958 l 1109 857 z "},"一":{"ha":1389,"x_min":79,"x_max":1310,"o":"m 79 496 l 79 562 l 1310 562 l 1310 496 l 79 496 z "},"丁":{"ha":1389,"x_min":102,"x_max":1287,"o":"m 102 1050 l 1287 1050 l 1287 987 l 766 987 l 766 83 q 745 -41 766 -16 q 617 -66 720 -66 q 366 -53 515 -66 l 364 9 q 593 -4 510 -4 q 686 7 675 -4 q 697 85 697 19 l 697 987 l 102 987 l 102 1050 z "},"七":{"ha":1389,"x_min":74,"x_max":1315,"o":"m 403 1100 l 472 1100 l 472 661 l 1300 851 l 1315 790 l 472 596 l 472 123 q 477 37 472 64 q 498 5 483 10 q 530 -3 512 -1 q 625 -12 547 -7 q 760 -17 704 -17 q 1039 5 983 -17 q 1072 20 1052 9 q 1095 52 1086 33 q 1112 90 1110 76 q 1116 127 1112 103 q 1126 187 1120 151 q 1133 266 1131 224 q 1141 392 1135 308 l 1208 386 q 1165 31 1191 80 q 1108 -39 1139 -19 q 1043 -64 1071 -60 q 919 -73 1015 -68 q 718 -79 822 -79 q 481 -61 613 -79 q 431 -32 446 -52 q 406 27 408 -7 q 403 121 403 62 l 403 581 l 89 509 l 74 571 l 403 646 l 403 1100 z "},"万":{"ha":1389,"x_min":96,"x_max":1291,"o":"m 509 974 l 96 974 l 96 1036 l 1291 1036 l 1291 974 l 578 974 q 567 679 578 827 l 1182 679 l 1182 633 q 1158 189 1182 325 q 1090 -5 1138 43 q 956 -54 1043 -54 q 681 -40 868 -54 l 681 24 q 932 9 858 9 q 1042 46 1007 9 q 1114 612 1114 127 l 1114 618 l 561 618 q 441 221 531 376 q 167 -79 352 66 l 121 -31 q 355 214 273 90 q 473 513 438 339 q 509 974 509 688 z "},"三":{"ha":1389,"x_min":107,"x_max":1282,"o":"m 107 -4 l 107 58 l 1282 58 l 1282 -4 l 107 -4 m 201 942 l 201 1004 l 1187 1004 l 1187 942 l 201 942 m 285 503 l 285 566 l 1104 566 l 1104 503 l 285 503 z "},"上":{"ha":1389,"x_min":90,"x_max":1299,"o":"m 686 1089 l 686 708 l 1218 708 l 1218 647 l 686 647 l 686 11 l 1299 11 l 1299 -53 l 90 -53 l 90 11 l 616 11 l 616 1089 l 686 1089 z "},"下":{"ha":1389,"x_min":90,"x_max":1299,"o":"m 90 1053 l 1299 1053 l 1299 990 l 686 990 l 686 760 q 1203 479 920 661 l 1166 424 q 686 690 900 596 l 686 -89 l 616 -89 l 616 990 l 90 990 l 90 1053 z "},"不":{"ha":1389,"x_min":65,"x_max":1325,"o":"m 833 701 q 1325 268 1097 504 l 1280 220 q 794 653 1048 461 l 833 701 m 107 983 l 107 1044 l 1282 1044 l 1282 983 l 835 983 q 729 818 789 903 l 729 -97 l 660 -97 l 660 732 q 102 218 451 466 l 65 273 q 760 983 543 610 l 107 983 z "},"与":{"ha":1389,"x_min":69,"x_max":1324,"o":"m 1204 961 l 1204 900 l 368 900 q 317 657 350 801 l 1128 657 q 1101 351 1112 454 l 1324 351 l 1324 292 l 1095 292 q 983 -58 1061 -16 q 852 -79 948 -79 q 538 -66 755 -79 l 538 -5 q 864 -18 742 -18 q 940 -3 918 -18 q 1023 292 989 24 l 69 292 l 69 351 l 1031 351 q 1044 491 1036 404 q 1054 599 1053 578 l 302 599 q 271 475 290 543 l 203 485 q 339 1143 290 807 l 407 1137 q 400 1095 404 1120 q 391 1029 396 1069 q 379 961 384 990 l 1204 961 z "},"世":{"ha":1389,"x_min":62,"x_max":1326,"o":"m 677 782 l 677 367 l 1025 367 l 1025 782 l 677 782 m 612 843 l 612 1101 l 677 1101 l 677 843 l 1025 843 l 1025 1101 l 1092 1101 l 1092 843 l 1326 843 l 1326 782 l 1092 782 l 1092 309 l 612 309 l 612 782 l 317 782 l 317 53 l 1247 53 l 1247 -9 l 317 -9 l 317 -115 l 249 -115 l 249 782 l 62 782 l 62 843 l 249 843 l 249 1101 l 317 1101 l 317 843 l 612 843 z "},"両":{"ha":1389,"x_min":104,"x_max":1284,"o":"m 1174 41 l 1174 772 l 728 772 l 728 229 l 947 229 l 947 650 l 1011 650 l 1011 81 l 947 81 l 947 171 l 441 171 l 441 22 l 378 22 l 378 650 l 441 650 l 441 229 l 661 229 l 661 772 l 215 772 l 215 -111 l 149 -111 l 149 831 l 661 831 l 661 1006 l 104 1006 l 104 1065 l 1284 1065 l 1284 1006 l 728 1006 l 728 831 l 1240 831 l 1240 41 q 1217 -77 1240 -53 q 1096 -100 1192 -100 q 880 -93 1088 -100 l 879 -32 l 1084 -39 q 1161 -27 1148 -39 q 1174 41 1174 -15 z "},"並":{"ha":1389,"x_min":90,"x_max":1299,"o":"m 803 -11 l 803 848 l 586 848 l 586 -11 l 803 -11 m 1278 908 l 1278 848 l 871 848 l 871 -11 l 1299 -11 l 1299 -72 l 90 -72 l 90 -11 l 518 -11 l 518 848 l 111 848 l 111 908 l 498 908 q 359 1109 440 1011 l 419 1135 q 574 908 501 1038 l 818 908 q 968 1133 913 1025 l 1032 1114 q 899 908 981 1015 l 1278 908 m 164 689 l 225 715 q 428 174 351 454 l 366 151 q 164 689 286 435 m 954 183 q 1156 718 1065 368 l 1221 700 q 1015 155 1133 351 l 954 183 z "},"中":{"ha":1389,"x_min":136,"x_max":1253,"o":"m 729 415 l 1187 415 l 1187 825 l 729 825 l 729 415 m 201 355 l 201 262 l 136 262 l 136 886 l 660 886 l 660 1129 l 729 1129 l 729 886 l 1253 886 l 1253 262 l 1187 262 l 1187 355 l 729 355 l 729 -129 l 660 -129 l 660 355 l 201 355 m 201 415 l 660 415 l 660 825 l 201 825 l 201 415 z "},"丸":{"ha":1389,"x_min":66,"x_max":1352,"o":"m 1128 -17 l 1183 -17 q 1221 0 1202 -14 q 1247 33 1242 13 q 1289 392 1272 89 l 1352 386 q 1343 244 1345 298 q 1272 -49 1331 0 q 1202 -77 1236 -74 q 1085 -79 1168 -79 q 970 -58 1002 -79 q 939 49 939 -38 l 939 823 l 590 823 l 590 799 q 538 415 590 589 q 850 149 671 315 l 807 98 q 514 350 635 258 q 106 -106 399 59 l 66 -52 q 456 393 349 102 q 174 571 323 491 l 207 627 q 478 458 340 556 q 521 799 521 604 l 521 823 l 143 823 l 143 886 l 521 886 l 521 1141 l 590 1141 l 590 886 l 1007 886 l 1007 60 q 1022 -5 1007 3 q 1128 -17 1038 -17 z "},"主":{"ha":1389,"x_min":104,"x_max":1284,"o":"m 427 1078 l 446 1139 q 964 982 692 1092 l 939 922 q 427 1078 683 1027 m 729 -3 l 1284 -3 l 1284 -65 l 104 -65 l 104 -3 l 660 -3 l 660 407 l 229 407 l 229 467 l 660 467 l 660 803 l 132 803 l 132 865 l 1257 865 l 1257 803 l 729 803 l 729 467 l 1160 467 l 1160 407 l 729 407 l 729 -3 z "},"久":{"ha":1389,"x_min":109,"x_max":1333,"o":"m 1036 977 l 1036 916 q 856 469 977 664 q 1333 -36 1038 153 l 1299 -90 q 815 410 1002 97 q 136 -92 587 85 l 109 -33 q 673 338 467 109 q 965 916 880 567 l 503 916 q 165 446 376 652 l 118 492 q 521 1133 393 762 l 586 1120 q 530 977 567 1059 l 1036 977 z "},"乏":{"ha":1389,"x_min":77,"x_max":1300,"o":"m 1213 -18 l 1300 -18 l 1297 -79 l 1213 -79 q 582 -4 793 -79 q 306 237 370 71 q 132 -102 258 47 l 77 -66 q 269 350 223 108 l 332 350 q 414 176 351 248 q 819 391 648 269 q 1118 676 990 513 l 191 676 l 191 736 l 661 736 l 661 943 q 180 918 433 918 l 178 978 q 1190 1099 730 978 l 1206 1040 q 728 950 977 981 l 728 736 l 1198 736 l 1198 676 q 886 359 1063 491 q 463 129 709 227 q 742 17 555 56 q 1213 -18 930 -18 z "},"乗":{"ha":1389,"x_min":66,"x_max":1322,"o":"m 729 803 l 729 621 l 1017 621 l 1017 803 l 729 803 m 660 803 l 371 803 l 371 621 l 660 621 l 660 803 m 729 367 l 1017 367 l 1017 559 l 729 559 l 729 367 m 660 367 l 660 559 l 371 559 l 371 367 l 660 367 m 199 1028 q 1187 1107 738 1028 l 1196 1047 q 729 990 979 1009 l 729 859 l 1268 859 l 1268 803 l 1083 803 l 1083 621 l 1310 621 l 1310 559 l 1083 559 l 1083 367 l 1254 367 l 1254 310 l 774 310 q 1322 -26 959 129 l 1295 -85 q 729 275 918 80 l 729 -115 l 660 -115 l 660 275 q 94 -85 471 80 l 66 -26 q 615 310 430 129 l 135 310 l 135 367 l 306 367 l 306 559 l 79 559 l 79 621 l 306 621 l 306 803 l 121 803 l 121 859 l 660 859 l 660 985 q 199 970 416 970 l 199 1028 z "},"九":{"ha":1389,"x_min":66,"x_max":1352,"o":"m 950 49 l 950 798 l 562 798 q 107 -106 562 166 l 66 -49 q 493 798 493 201 l 143 798 l 143 860 l 493 860 l 493 1141 l 562 1141 l 562 860 l 1018 860 l 1018 60 q 1033 -7 1018 4 q 1133 -17 1048 -18 l 1174 -17 q 1231 5 1215 -10 q 1260 72 1257 45 q 1272 164 1263 99 q 1287 392 1280 229 l 1352 386 q 1348 317 1350 361 q 1341 197 1345 272 q 1330 90 1337 121 q 1318 39 1324 58 q 1308 1 1313 20 q 1289 -31 1302 -18 q 1263 -56 1276 -45 q 1227 -71 1251 -67 q 1183 -78 1204 -74 l 1126 -79 q 981 -59 1011 -79 q 950 49 950 -39 z "},"乱":{"ha":1389,"x_min":58,"x_max":1350,"o":"m 200 46 l 656 46 l 656 403 l 200 403 l 200 46 m 135 460 l 379 460 l 379 679 l 58 679 l 58 739 l 379 739 l 379 957 q 107 925 218 935 l 102 985 q 722 1093 479 1019 l 743 1035 q 447 966 597 992 l 447 739 l 779 739 l 779 679 l 447 679 l 447 460 l 721 460 l 721 -78 l 656 -78 l 656 -11 l 200 -11 l 200 -103 l 135 -103 l 135 460 m 1164 -35 q 1217 -19 1184 -35 q 1257 14 1249 -3 q 1272 81 1265 31 q 1284 182 1283 129 q 1287 346 1286 235 l 1350 340 q 1348 197 1350 321 q 1322 3 1345 72 q 1308 -37 1313 -28 q 1280 -66 1302 -45 q 1147 -97 1236 -97 l 1076 -97 q 883 -75 917 -97 q 848 52 849 -52 l 848 1095 l 916 1095 l 916 22 q 922 -4 916 13 q 936 -22 929 -21 q 964 -30 940 -26 q 1008 -35 989 -34 l 1164 -35 z "},"乳":{"ha":1389,"x_min":64,"x_max":1350,"o":"m 1101 -92 q 936 -68 971 -92 q 901 36 901 -45 l 901 1089 l 968 1089 l 968 47 q 989 -16 968 -2 q 1086 -28 1009 -28 q 1188 -24 1164 -28 q 1236 -7 1213 -20 q 1264 40 1260 7 q 1286 342 1278 142 l 1286 351 l 1350 346 q 1344 205 1348 254 q 1336 103 1344 159 q 1326 27 1332 52 q 1306 -27 1321 3 q 1276 -65 1291 -57 q 1178 -92 1236 -86 l 1101 -92 m 818 1040 q 94 966 492 977 l 89 1026 q 807 1100 471 1036 l 818 1040 m 121 884 l 176 907 q 288 669 230 815 l 231 650 q 121 884 176 792 m 351 916 l 407 940 q 513 701 463 842 l 457 682 q 351 916 416 800 m 637 629 l 583 654 q 745 987 673 789 l 803 970 q 637 629 734 772 m 176 -25 q 357 -32 315 -32 q 410 -18 399 -32 q 421 57 421 -3 l 421 227 q 68 196 231 205 l 64 254 q 421 286 256 266 l 421 400 l 449 400 q 701 534 597 460 l 117 534 l 117 593 l 794 593 l 794 534 q 489 357 663 431 l 489 294 q 842 343 700 320 l 846 285 q 489 235 664 254 l 489 52 q 468 -66 488 -40 q 388 -93 448 -93 q 178 -86 328 -93 l 176 -25 z "},"乾":{"ha":1389,"x_min":64,"x_max":1344,"o":"m 154 511 l 154 339 l 555 339 l 555 511 l 154 511 m 154 567 l 555 567 l 555 726 l 154 726 l 154 567 m 1344 1011 l 1344 950 l 832 950 q 688 615 776 765 l 636 656 q 815 1147 759 870 l 878 1135 q 848 1011 869 1085 l 1344 1011 m 616 782 l 616 283 l 386 283 l 386 150 l 650 150 l 650 92 l 386 92 l 386 -127 l 321 -127 l 321 92 l 64 92 l 64 150 l 321 150 l 321 283 l 90 283 l 90 782 l 321 782 l 321 916 l 64 916 l 64 974 l 321 974 l 321 1128 l 386 1128 l 386 974 l 656 974 l 656 916 l 386 916 l 386 782 l 616 782 m 775 714 l 775 774 l 1299 774 l 1299 714 q 898 334 1044 513 q 751 78 751 155 q 770 31 751 47 q 844 -3 785 12 q 1006 -17 902 -18 l 1071 -17 l 1164 -8 q 1219 25 1207 9 q 1227 38 1221 27 q 1236 56 1232 49 q 1247 97 1247 90 q 1267 319 1262 178 l 1335 314 q 1322 136 1325 165 q 1305 52 1320 106 q 1272 -24 1290 -3 q 1214 -58 1255 -45 q 1131 -78 1177 -74 l 1006 -79 q 753 -46 827 -79 q 677 64 678 -13 q 814 335 677 157 q 1196 714 950 510 l 775 714 z "},"了":{"ha":1389,"x_min":176,"x_max":1218,"o":"m 176 996 l 176 1059 l 1218 1059 l 1218 996 q 743 623 1013 786 l 743 72 q 720 -53 743 -27 q 600 -79 697 -79 q 390 -72 563 -79 l 389 -9 q 605 -16 559 -16 q 662 -4 651 -16 q 673 74 673 8 l 673 690 l 729 690 q 1129 996 946 821 l 176 996 z "},"予":{"ha":1389,"x_min":77,"x_max":1312,"o":"m 257 1004 l 257 1065 l 1149 1065 l 1149 1004 q 761 690 977 827 q 878 608 855 625 l 1312 608 l 1312 546 q 1004 252 1180 378 l 961 300 q 1231 546 1109 406 l 755 546 l 755 65 q 732 -60 755 -33 q 635 -86 709 -86 q 403 -79 560 -86 l 403 -18 q 675 -11 659 -33 q 686 65 686 3 l 686 546 l 77 546 l 77 608 l 771 608 q 395 846 574 747 l 432 897 q 708 728 573 819 q 1063 1004 909 854 l 257 1004 z "},"争":{"ha":1389,"x_min":52,"x_max":1337,"o":"m 721 823 q 872 990 793 891 l 479 990 q 343 823 426 908 l 721 823 m 743 289 l 1139 289 l 1139 503 l 743 503 l 743 289 m 954 1048 l 954 990 q 810 823 891 905 l 1206 823 l 1206 562 l 1337 562 l 1337 503 l 1206 503 l 1206 167 l 1139 167 l 1139 232 l 743 232 l 743 46 q 719 -77 743 -50 q 602 -104 694 -104 q 396 -97 574 -104 l 396 -36 q 602 -43 553 -43 q 663 -30 651 -43 q 675 46 675 -16 l 675 232 l 171 232 l 171 289 l 675 289 l 675 503 l 52 503 l 52 562 l 675 562 l 675 766 l 330 766 l 330 811 q 154 664 252 732 l 110 707 q 497 1154 374 893 l 561 1139 q 515 1048 526 1067 l 954 1048 m 1139 766 l 743 766 l 743 562 l 1139 562 l 1139 766 z "},"事":{"ha":1389,"x_min":77,"x_max":1312,"o":"m 730 351 l 1141 351 l 1141 482 l 730 482 l 730 351 m 730 161 l 1141 161 l 1141 294 l 730 294 l 730 161 m 730 690 l 1122 690 l 1122 827 l 730 827 l 730 690 m 267 690 l 659 690 l 659 827 l 267 827 l 267 690 m 1312 351 l 1312 294 l 1208 294 l 1208 26 l 1141 26 l 1141 106 l 730 106 l 730 7 q 705 -83 731 -67 q 606 -100 680 -100 q 380 -93 533 -100 l 380 -35 q 580 -41 522 -41 q 648 -35 638 -41 q 659 3 659 -29 l 659 106 l 142 106 l 142 161 l 659 161 l 659 294 l 77 294 l 77 351 l 659 351 l 659 482 l 142 482 l 142 538 l 659 538 l 659 635 l 200 635 l 200 882 l 659 882 l 659 982 l 90 982 l 90 1039 l 659 1039 l 659 1136 l 730 1136 l 730 1039 l 1299 1039 l 1299 982 l 730 982 l 730 882 l 1189 882 l 1189 635 l 730 635 l 730 538 l 1208 538 l 1208 351 l 1312 351 z "},"二":{"ha":1389,"x_min":100,"x_max":1289,"o":"m 100 37 l 100 100 l 1289 100 l 1289 37 l 100 37 m 236 900 l 236 962 l 1153 962 l 1153 900 l 236 900 z "},"互":{"ha":1389,"x_min":97,"x_max":1292,"o":"m 935 350 q 997 688 970 496 l 522 688 q 406 350 472 507 l 935 350 m 97 -52 l 97 9 l 832 9 q 920 293 881 149 l 380 293 q 373 277 381 292 q 361 251 365 261 q 353 231 357 240 q 345 214 349 221 q 340 204 342 208 l 275 222 q 518 990 458 601 l 111 990 l 111 1051 l 1278 1051 l 1278 990 l 587 990 q 538 745 569 865 l 1074 745 q 905 9 1031 376 l 1292 9 l 1292 -52 l 97 -52 z "},"五":{"ha":1389,"x_min":90,"x_max":1299,"o":"m 999 43 l 999 542 l 570 542 l 485 43 l 999 43 m 160 1018 l 1229 1018 l 1229 957 l 640 957 l 581 602 l 1067 602 l 1067 43 l 1299 43 l 1299 -18 l 90 -18 l 90 43 l 415 43 l 500 542 l 254 542 l 254 602 l 510 602 l 571 957 l 160 957 l 160 1018 z "},"亡":{"ha":1389,"x_min":100,"x_max":1289,"o":"m 1289 803 l 355 803 l 355 138 q 370 28 355 45 q 475 4 385 10 q 780 -3 639 -3 q 1217 17 921 -3 l 1219 -45 q 675 -65 939 -65 q 347 -42 412 -65 q 311 -22 321 -33 q 286 61 291 1 l 286 803 l 100 803 l 100 865 l 660 865 l 660 1128 l 729 1128 l 729 865 l 1289 865 l 1289 803 z "},"交":{"ha":1389,"x_min":98,"x_max":1291,"o":"m 403 555 l 463 586 q 694 250 561 372 q 926 586 828 372 l 986 558 q 745 208 888 342 q 1291 -31 926 68 l 1270 -92 q 694 165 892 7 q 119 -92 496 7 l 98 -31 q 644 208 463 68 q 403 555 496 347 m 115 979 l 660 979 l 660 1156 l 729 1156 l 729 979 l 1274 979 l 1274 918 l 115 918 l 115 979 m 131 546 q 517 878 378 685 l 566 838 q 163 490 426 637 l 131 546 m 1217 489 q 814 828 1046 664 l 852 879 q 1261 536 1097 705 l 1217 489 z "},"京":{"ha":1389,"x_min":79,"x_max":1310,"o":"m 304 456 l 1084 456 l 1084 774 l 304 774 l 304 456 m 469 301 q 129 -43 342 100 l 90 5 q 418 339 288 137 l 469 301 m 899 289 l 942 336 q 1301 -16 1133 189 l 1254 -58 q 899 289 1093 136 m 1310 999 l 1310 940 l 79 940 l 79 999 l 660 999 l 660 1129 l 729 1129 l 729 999 l 1310 999 m 673 58 l 673 399 l 236 399 l 236 829 l 1153 829 l 1153 399 l 743 399 l 743 58 q 719 -66 743 -41 q 600 -93 694 -92 q 399 -86 573 -93 l 397 -25 q 663 -19 646 -37 q 673 58 673 -7 z "},"人":{"ha":1389,"x_min":69,"x_max":1320,"o":"m 660 951 l 660 1116 l 729 1116 l 729 951 q 889 366 729 628 q 1320 -24 1049 103 l 1284 -81 q 914 219 1071 16 q 697 675 758 422 q 481 220 637 425 q 104 -81 319 15 l 69 -24 q 500 366 340 103 q 660 951 660 628 z "},"仁":{"ha":1389,"x_min":36,"x_max":1295,"o":"m 309 -115 l 240 -115 l 240 640 q 69 378 163 491 l 36 444 q 351 1120 260 732 l 415 1107 q 309 772 374 920 l 309 -115 m 475 872 l 475 935 l 1242 935 l 1242 872 l 475 872 m 397 -4 l 397 60 l 1295 60 l 1295 -4 l 397 -4 z "},"今":{"ha":1389,"x_min":60,"x_max":1329,"o":"m 737 1126 q 1329 715 995 898 l 1300 659 q 694 1079 959 842 q 89 659 430 842 l 60 715 q 652 1126 394 898 l 737 1126 m 325 688 l 325 747 l 1064 747 l 1064 688 l 325 688 m 174 433 l 174 494 l 1215 494 l 1215 433 q 612 -106 982 117 l 576 -52 q 1135 433 914 153 l 174 433 z "},"介":{"ha":1389,"x_min":60,"x_max":1329,"o":"m 737 1126 q 1329 715 995 898 l 1300 659 q 694 1079 959 842 q 89 659 430 842 l 60 715 q 652 1126 394 898 l 737 1126 m 410 761 l 478 761 l 478 627 q 448 270 478 406 q 348 49 417 134 q 157 -103 279 -37 l 119 -47 q 288 81 231 11 q 410 627 410 222 l 410 761 m 928 -90 l 928 761 l 997 761 l 997 -90 l 928 -90 z "},"仏":{"ha":1389,"x_min":39,"x_max":1358,"o":"m 315 -115 l 248 -115 l 248 591 q 75 367 170 467 l 39 425 q 415 1120 303 709 l 479 1107 q 315 692 425 884 l 315 -115 m 1051 536 l 1116 561 q 1358 -81 1257 246 l 1293 -102 q 1240 57 1268 -18 q 395 -57 790 -34 l 390 4 q 494 11 468 9 q 856 1105 708 527 l 924 1093 q 570 18 783 536 q 1221 113 899 48 q 1051 536 1145 322 z "},"仕":{"ha":1389,"x_min":36,"x_max":1311,"o":"m 309 -115 l 240 -115 l 240 640 q 69 378 163 491 l 36 444 q 351 1120 260 732 l 415 1107 q 309 772 374 920 l 309 -115 m 1311 690 l 916 690 l 916 -3 l 1272 -3 l 1272 -64 l 433 -64 l 433 -3 l 846 -3 l 846 690 l 397 690 l 397 753 l 846 753 l 846 1103 l 916 1103 l 916 753 l 1311 753 l 1311 690 z "},"他":{"ha":1389,"x_min":40,"x_max":1317,"o":"m 296 -115 l 229 -115 l 229 603 q 78 383 155 474 l 40 440 q 370 1120 275 726 l 435 1104 q 296 721 387 897 l 296 -115 m 558 114 l 558 693 l 395 652 l 380 714 l 558 760 l 558 1053 l 625 1053 l 625 777 l 864 839 l 864 1128 l 929 1128 l 929 856 l 1264 942 l 1264 905 q 1253 505 1264 627 q 1226 346 1245 381 q 1166 311 1207 311 q 1031 318 1126 311 l 1023 379 q 1150 372 1112 372 q 1170 387 1162 372 q 1186 456 1177 401 q 1197 861 1197 588 l 929 790 l 929 197 l 864 197 l 864 774 l 625 711 l 625 115 q 635 1 625 18 q 871 -24 652 -24 q 1142 -8 1089 -24 l 1175 2 q 1190 7 1185 5 q 1211 31 1194 8 q 1227 65 1224 56 l 1236 119 q 1245 188 1244 175 q 1253 286 1246 201 l 1317 275 q 1308 160 1309 187 q 1299 88 1306 133 q 1283 25 1291 43 q 1261 -17 1280 9 q 1230 -47 1248 -39 q 1131 -72 1172 -72 q 901 -87 1031 -87 q 682 -80 770 -87 q 575 -45 594 -73 q 558 114 558 -14 z "},"付":{"ha":1389,"x_min":45,"x_max":1339,"o":"m 301 -115 l 233 -115 l 233 627 q 79 378 161 480 l 45 444 q 342 1120 256 730 l 406 1107 q 301 764 367 918 l 301 -115 m 416 913 l 1117 913 l 1117 1116 l 1185 1116 l 1185 913 l 1339 913 l 1339 850 l 1185 850 l 1185 71 q 1161 -69 1185 -43 q 1059 -98 1141 -98 q 815 -92 977 -98 l 814 -31 q 1034 -37 971 -37 q 1105 -22 1096 -37 q 1117 71 1117 -9 l 1117 850 l 416 850 l 416 913 m 553 628 l 607 664 q 854 277 755 468 l 798 244 q 553 628 693 440 z "},"代":{"ha":1389,"x_min":40,"x_max":1339,"o":"m 296 -115 l 229 -115 l 229 603 q 78 383 155 474 l 40 440 q 370 1120 275 726 l 435 1104 q 296 721 387 897 l 296 -115 m 789 1125 l 857 1125 q 873 793 857 943 l 1310 832 l 1314 771 l 880 732 q 933 450 897 593 q 1078 89 998 216 q 1143 -1 1116 25 q 1183 -28 1169 -28 q 1280 254 1244 -28 l 1339 236 q 1187 -103 1299 -103 q 1122 -75 1160 -103 q 1040 16 1087 -47 q 869 412 935 162 q 811 725 831 557 l 379 688 l 375 749 l 806 786 q 789 1125 789 970 m 966 1080 l 1008 1125 q 1251 918 1131 1035 l 1206 875 q 966 1080 1093 988 z "},"令":{"ha":1389,"x_min":60,"x_max":1329,"o":"m 737 1128 q 1329 762 995 924 l 1304 705 q 694 1080 967 866 q 85 705 422 866 l 60 762 q 652 1128 394 924 l 737 1128 m 322 726 l 322 787 l 1067 787 l 1067 726 l 322 726 m 131 532 l 1234 532 l 1234 164 q 1213 37 1233 62 q 1105 12 1192 12 q 876 20 1063 12 l 875 81 q 1093 74 1039 74 q 1156 86 1147 74 q 1165 164 1165 96 l 1165 471 l 657 471 l 657 -106 l 587 -106 l 587 471 l 131 471 l 131 532 z "},"以":{"ha":1389,"x_min":40,"x_max":1356,"o":"m 205 1075 l 273 1075 l 273 168 q 736 326 486 227 l 755 268 q 56 50 395 123 l 40 111 q 205 150 185 144 l 205 1075 m 478 953 l 526 996 q 829 614 694 819 l 777 578 q 478 953 645 778 m 1145 1089 l 1213 1089 q 1067 307 1213 560 q 1356 -61 1230 127 l 1301 -98 q 1031 250 1175 90 q 504 -107 876 28 l 473 -49 q 878 178 735 46 q 1082 525 1020 311 q 1145 1089 1145 739 z "},"仮":{"ha":1389,"x_min":28,"x_max":1337,"o":"m 279 -115 l 211 -115 l 211 600 q 62 379 137 464 l 28 443 q 353 1120 259 729 l 418 1105 q 279 708 371 902 l 279 -115 m 581 692 l 581 619 q 407 -85 581 200 l 358 -37 q 514 652 514 230 l 514 1065 l 1299 1065 l 1299 1004 l 581 1004 l 581 750 l 1257 750 l 1257 692 q 987 197 1167 395 q 1337 -33 1134 51 l 1308 -92 q 942 150 1094 -2 q 557 -92 782 -6 l 530 -32 q 896 197 749 52 q 656 629 746 368 l 720 652 q 943 245 801 411 q 1187 692 1101 418 l 581 692 z "},"仲":{"ha":1389,"x_min":31,"x_max":1308,"o":"m 271 -115 l 205 -115 l 205 621 q 65 395 145 498 l 31 458 q 317 1120 233 731 l 380 1107 q 271 747 339 910 l 271 -115 m 821 335 l 460 335 l 460 241 l 393 241 l 393 851 l 821 851 l 821 1116 l 889 1116 l 889 851 l 1308 851 l 1308 241 l 1240 241 l 1240 335 l 889 335 l 889 -115 l 821 -115 l 821 335 m 821 395 l 821 790 l 460 790 l 460 395 l 821 395 m 1240 395 l 1240 790 l 889 790 l 889 395 l 1240 395 z "},"件":{"ha":1389,"x_min":26,"x_max":1324,"o":"m 281 -115 l 214 -115 l 214 646 q 66 400 144 503 l 26 457 q 317 1120 233 732 l 380 1108 q 281 778 342 930 l 281 -115 m 900 911 l 900 1116 l 968 1116 l 968 911 l 1274 911 l 1274 850 l 968 850 l 968 450 l 1324 450 l 1324 389 l 968 389 l 968 -115 l 900 -115 l 900 389 l 385 389 l 385 450 l 900 450 l 900 850 l 611 850 q 425 546 528 677 l 372 583 q 643 1107 554 819 l 705 1093 q 639 911 667 975 l 900 911 z "},"任":{"ha":1389,"x_min":16,"x_max":1324,"o":"m 267 -115 l 199 -115 l 199 642 q 50 395 130 498 l 16 458 q 300 1120 213 726 l 364 1107 q 267 777 330 934 l 267 -115 m 1324 473 l 878 473 l 878 11 l 1271 11 l 1271 -52 l 407 -52 l 407 11 l 808 11 l 808 473 l 361 473 l 361 536 l 808 536 l 808 926 q 429 897 612 903 l 427 958 q 1250 1078 909 975 l 1267 1018 q 878 935 1103 966 l 878 536 l 1324 536 l 1324 473 z "},"企":{"ha":1389,"x_min":60,"x_max":1329,"o":"m 737 1126 q 1329 715 995 898 l 1300 659 q 694 1079 959 842 q 89 659 430 842 l 60 715 q 652 1126 394 898 l 737 1126 m 1299 -66 l 90 -66 l 90 -4 l 297 -4 l 297 624 l 364 624 l 364 -4 l 684 -4 l 684 844 l 753 844 l 753 489 l 1235 489 l 1235 428 l 753 428 l 753 -4 l 1299 -4 l 1299 -66 z "},"伏":{"ha":1389,"x_min":25,"x_max":1326,"o":"m 267 -115 l 200 -115 l 200 621 q 60 392 134 490 l 25 458 q 309 1120 225 735 l 372 1107 q 267 755 337 924 l 267 -115 m 799 1101 l 867 1101 l 867 812 l 1310 812 l 1310 750 l 868 750 q 1000 294 878 503 q 1326 -39 1122 85 l 1287 -93 q 1004 172 1123 7 q 835 539 884 338 q 666 175 785 340 q 379 -93 547 9 l 338 -39 q 664 294 541 85 q 798 750 787 503 l 354 750 l 354 812 l 799 812 l 799 1101 m 997 1097 l 1042 1141 q 1270 900 1160 1027 l 1222 857 q 997 1097 1109 985 z "},"休":{"ha":1389,"x_min":25,"x_max":1362,"o":"m 267 -115 l 199 -115 l 199 621 q 60 395 138 495 l 25 458 q 311 1120 228 731 l 375 1107 q 267 750 336 911 l 267 -115 m 1336 836 l 1336 775 l 937 775 q 1362 144 1070 449 l 1321 85 q 897 715 1028 398 l 897 -115 l 831 -115 l 831 714 q 368 85 683 389 l 321 136 q 794 775 649 443 l 370 775 l 370 836 l 831 836 l 831 1116 l 897 1116 l 897 836 l 1336 836 z "},"会":{"ha":1389,"x_min":60,"x_max":1329,"o":"m 118 406 l 118 465 l 1271 465 l 1271 406 l 590 406 q 422 0 509 178 q 1105 79 769 27 q 966 297 984 271 l 1023 326 q 1283 -86 1160 120 l 1223 -115 q 1140 25 1171 -23 q 151 -77 619 -60 l 147 -17 q 346 -5 172 -16 q 518 406 429 162 l 118 406 m 737 1126 q 1329 715 995 898 l 1300 659 q 694 1079 959 842 q 89 659 430 842 l 60 715 q 652 1126 393 897 l 737 1126 m 307 660 l 307 720 l 1082 720 l 1082 660 l 307 660 z "},"伝":{"ha":1389,"x_min":16,"x_max":1325,"o":"m 267 -115 l 199 -115 l 199 642 q 50 395 130 498 l 16 458 q 300 1120 213 726 l 364 1107 q 267 777 330 934 l 267 -115 m 468 989 l 468 1050 l 1231 1050 l 1231 989 l 468 989 m 372 623 l 372 684 l 1310 684 l 1310 623 l 768 623 q 582 21 684 307 q 1169 96 857 50 q 993 418 1074 286 l 1053 444 q 1325 -75 1208 187 l 1264 -100 q 1197 39 1263 -97 q 357 -62 768 -29 l 351 -1 q 505 12 471 8 q 696 623 606 289 l 372 623 z "},"伸":{"ha":1389,"x_min":31,"x_max":1289,"o":"m 885 235 l 885 -115 l 817 -115 l 817 235 l 478 235 l 478 142 l 412 142 l 412 942 l 817 942 l 817 1116 l 885 1116 l 885 942 l 1289 942 l 1289 142 l 1222 142 l 1222 235 l 885 235 m 885 294 l 1222 294 l 1222 566 l 885 566 l 885 294 m 478 566 l 478 294 l 817 294 l 817 566 l 478 566 m 817 882 l 478 882 l 478 624 l 817 624 l 817 882 m 885 882 l 885 624 l 1222 624 l 1222 882 l 885 882 m 271 -115 l 205 -115 l 205 621 q 65 395 145 498 l 31 458 q 317 1120 233 731 l 380 1107 q 271 747 339 910 l 271 -115 z "},"伺":{"ha":1389,"x_min":16,"x_max":1280,"o":"m 267 -115 l 199 -115 l 199 642 q 50 395 130 498 l 16 458 q 300 1120 213 726 l 364 1107 q 267 777 330 934 l 267 -115 m 536 158 l 536 47 l 471 47 l 471 597 l 1031 597 l 1031 158 l 536 158 m 536 214 l 966 214 l 966 542 l 536 542 l 536 214 m 1213 69 l 1213 1004 l 429 1004 l 429 1065 l 1280 1065 l 1280 69 q 1261 -56 1280 -31 q 1162 -81 1242 -80 q 951 -74 1141 -81 l 950 -12 l 1143 -20 q 1203 -9 1194 -20 q 1213 69 1213 1 m 411 771 l 411 829 l 1090 829 l 1090 771 l 411 771 z "},"似":{"ha":1389,"x_min":28,"x_max":1362,"o":"m 243 -115 l 178 -115 l 178 595 q 62 387 119 468 l 28 460 q 285 1120 210 736 l 349 1105 q 243 725 314 909 l 243 -115 m 449 1075 l 517 1075 l 517 208 q 861 357 671 262 l 882 298 q 318 81 595 155 l 300 140 q 449 184 366 157 l 449 1075 m 669 957 l 722 994 q 971 612 866 814 l 917 579 q 669 957 809 781 m 1183 1089 l 1251 1089 q 1124 304 1251 570 q 1362 -64 1250 138 l 1307 -97 q 1090 240 1214 75 q 673 -107 962 24 l 642 -52 q 964 179 848 41 q 1131 530 1081 317 q 1183 1089 1183 741 z "},"位":{"ha":1389,"x_min":26,"x_max":1325,"o":"m 281 -115 l 214 -115 l 214 646 q 66 400 144 503 l 26 457 q 317 1120 233 732 l 380 1108 q 281 778 342 930 l 281 -115 m 879 945 l 1305 945 l 1305 884 l 396 884 l 396 945 l 811 945 l 811 1143 l 879 1143 l 879 945 m 479 755 l 545 772 q 703 113 632 469 l 636 102 q 479 755 569 436 m 372 -65 l 372 -3 l 904 -3 q 1141 782 1062 337 l 1208 770 q 975 -3 1131 339 l 1325 -3 l 1325 -65 l 372 -65 z "},"低":{"ha":1389,"x_min":16,"x_max":1352,"o":"m 268 -115 l 203 -115 l 203 635 q 54 396 139 508 l 16 453 q 319 1129 231 732 l 385 1118 q 268 747 345 922 l 268 -115 m 530 679 l 880 679 q 861 979 863 810 q 530 957 688 959 l 530 679 m 464 1017 q 1203 1105 872 1017 l 1219 1047 q 926 987 1087 1013 q 949 679 928 831 l 1268 679 l 1268 619 l 957 619 q 1078 213 998 370 q 1221 56 1158 56 q 1293 313 1265 56 l 1352 297 q 1231 -14 1320 -14 q 1031 153 1130 -14 q 888 619 931 326 l 530 619 l 530 201 q 888 310 711 245 l 899 249 q 349 102 629 152 l 340 161 q 464 186 431 179 l 464 1017 m 404 -53 l 404 7 l 1117 7 l 1117 -53 l 404 -53 z "},"住":{"ha":1389,"x_min":26,"x_max":1325,"o":"m 281 -115 l 214 -115 l 214 646 q 66 400 144 503 l 26 457 q 317 1120 233 732 l 380 1108 q 281 778 342 930 l 281 -115 m 640 1071 l 660 1132 q 1074 974 863 1082 l 1044 918 q 640 1071 849 1019 m 890 -3 l 1325 -3 l 1325 -65 l 372 -65 l 372 -3 l 822 -3 l 822 407 l 452 407 l 452 467 l 822 467 l 822 803 l 392 803 l 392 864 l 1305 864 l 1305 803 l 890 803 l 890 467 l 1247 467 l 1247 407 l 890 407 l 890 -3 z "},"体":{"ha":1389,"x_min":25,"x_max":1362,"o":"m 267 -115 l 200 -115 l 200 621 q 60 392 134 490 l 25 458 q 309 1120 225 735 l 372 1107 q 267 755 337 924 l 267 -115 m 1336 868 l 1336 808 l 933 808 q 1362 144 1065 466 l 1321 86 q 893 751 1025 416 l 893 207 l 1168 207 l 1168 149 l 893 149 l 893 -115 l 827 -115 l 827 149 l 528 149 l 528 207 l 827 207 l 827 749 q 357 85 686 417 l 311 136 q 790 808 652 473 l 370 808 l 370 868 l 827 868 l 827 1116 l 893 1116 l 893 868 l 1336 868 z "},"何":{"ha":1389,"x_min":24,"x_max":1333,"o":"m 546 250 l 546 139 l 479 139 l 479 772 l 951 772 l 951 250 l 546 250 m 546 307 l 886 307 l 886 715 l 546 715 l 546 307 m 281 -115 l 214 -115 l 214 652 q 64 400 146 510 l 24 457 q 315 1120 232 733 l 380 1108 q 281 777 344 931 l 281 -115 m 1160 53 l 1160 990 l 419 990 l 419 1051 l 1333 1051 l 1333 990 l 1226 990 l 1226 53 q 1202 -74 1226 -50 q 1078 -98 1177 -98 q 863 -92 1071 -98 l 861 -31 q 1069 -37 1067 -37 q 1147 -25 1133 -37 q 1160 53 1160 -11 z "},"余":{"ha":1389,"x_min":60,"x_max":1329,"o":"m 1267 509 l 1267 449 l 742 449 l 742 58 q 719 -68 742 -43 q 604 -93 696 -92 q 424 -86 588 -93 l 422 -25 q 587 -31 524 -31 q 664 -20 651 -31 q 673 58 673 -5 l 673 449 l 122 449 l 122 509 l 673 509 l 673 713 l 322 713 l 322 771 l 1067 771 l 1067 713 l 742 713 l 742 509 l 1267 509 m 87 11 q 410 379 307 170 l 465 349 q 126 -40 355 127 l 87 11 m 926 339 l 972 382 q 1305 -11 1165 197 l 1253 -49 q 926 339 1114 154 m 1329 749 l 1304 693 q 694 1068 967 854 q 85 693 422 854 l 60 749 q 652 1116 393 910 l 737 1116 q 1329 749 996 910 z "},"作":{"ha":1389,"x_min":53,"x_max":1326,"o":"m 334 -115 l 264 -115 l 264 643 q 92 383 186 497 l 53 440 q 382 1120 286 724 l 447 1104 q 334 771 404 918 l 334 -115 m 1326 933 l 873 933 l 873 650 l 1284 650 l 1284 590 l 873 590 l 873 296 l 1284 296 l 1284 235 l 873 235 l 873 -115 l 803 -115 l 803 933 l 686 933 q 468 542 597 718 l 414 582 q 686 1133 597 831 l 751 1120 q 710 993 726 1038 l 1326 993 l 1326 933 z "},"使":{"ha":1389,"x_min":26,"x_max":1322,"o":"m 509 469 l 815 469 q 822 624 822 536 l 822 770 l 509 770 l 509 469 m 269 -115 l 204 -115 l 204 625 q 61 392 142 499 l 26 458 q 310 1120 227 735 l 374 1107 q 269 762 338 931 l 269 -115 m 1320 1002 l 1320 942 l 892 942 l 892 827 l 1275 827 l 1275 319 l 1208 319 l 1208 412 l 876 412 q 786 157 848 250 q 1322 -25 1003 -11 l 1315 -86 q 747 109 989 -72 q 368 -86 627 -31 l 349 -26 q 696 150 591 29 q 533 338 597 237 l 589 371 q 733 200 660 267 q 808 412 789 288 l 443 412 l 443 827 l 822 827 l 822 942 l 404 942 l 404 1002 l 822 1002 l 822 1129 l 892 1129 l 892 1002 l 1320 1002 m 1208 469 l 1208 770 l 892 770 l 892 624 q 884 469 892 541 l 1208 469 z "},"例":{"ha":1389,"x_min":16,"x_max":1286,"o":"m 225 -115 l 160 -115 l 160 596 q 50 396 104 476 l 16 460 q 268 1120 195 734 l 330 1114 q 225 725 295 911 l 225 -115 m 358 997 l 358 1059 l 930 1059 l 930 997 l 607 997 q 566 803 593 899 l 879 803 l 879 747 q 734 242 869 470 q 387 -93 599 14 l 351 -40 q 720 357 593 88 q 496 493 612 430 l 529 547 q 745 415 631 492 q 817 747 806 572 l 549 747 q 346 340 475 511 l 300 385 q 542 997 486 639 l 358 997 m 972 155 l 972 1021 l 1036 1021 l 1036 155 l 972 155 m 1219 1090 l 1286 1090 l 1286 58 q 1270 -66 1286 -37 q 1183 -93 1253 -93 q 1026 -86 1149 -93 l 1025 -24 q 1172 -31 1139 -31 q 1212 -19 1204 -31 q 1219 58 1219 -7 l 1219 1090 z "},"供":{"ha":1389,"x_min":16,"x_max":1335,"o":"m 267 -115 l 199 -115 l 199 642 q 50 395 130 498 l 16 458 q 300 1120 213 726 l 364 1107 q 267 777 330 934 l 267 -115 m 585 888 l 585 1114 l 653 1114 l 653 888 l 1021 888 l 1021 1114 l 1089 1114 l 1089 888 l 1283 888 l 1283 828 l 1089 828 l 1089 432 l 1335 432 l 1335 371 l 338 371 l 338 432 l 585 432 l 585 828 l 390 828 l 390 888 l 585 888 m 653 432 l 1021 432 l 1021 828 l 653 828 l 653 432 m 340 -54 q 538 97 446 10 q 689 267 629 178 l 743 228 q 583 48 682 139 q 379 -106 484 -43 l 340 -54 m 918 216 l 962 264 q 1317 -71 1158 119 l 1268 -117 q 918 216 1122 62 z "},"依":{"ha":1389,"x_min":26,"x_max":1337,"o":"m 269 -115 l 204 -115 l 204 625 q 61 392 142 499 l 26 458 q 310 1120 227 735 l 374 1107 q 269 762 338 931 l 269 -115 m 379 897 l 379 958 l 815 958 l 815 1141 l 884 1141 l 884 958 l 1312 958 l 1312 897 l 896 897 q 1003 444 920 660 q 1276 720 1156 563 l 1325 677 q 1026 385 1194 512 q 1337 -45 1142 121 l 1301 -102 q 991 308 1116 50 q 838 859 867 566 q 631 575 751 699 l 631 21 q 945 138 776 65 l 957 78 q 390 -103 678 -43 l 380 -43 q 567 1 462 -26 l 567 513 q 336 339 469 422 l 310 400 q 790 897 628 600 l 379 897 z "},"価":{"ha":1389,"x_min":16,"x_max":1324,"o":"m 262 -115 l 197 -115 l 197 639 q 47 392 133 503 l 16 458 q 297 1120 213 730 l 363 1111 q 262 774 328 941 l 262 -115 m 732 1003 l 732 753 l 943 753 l 943 1003 l 732 1003 m 460 -35 l 460 -102 l 395 -102 l 395 753 l 665 753 l 665 1003 l 382 1003 l 382 1064 l 1324 1064 l 1324 1003 l 1010 1003 l 1010 753 l 1282 753 l 1282 -102 l 1215 -102 l 1215 -35 l 460 -35 m 669 24 l 669 693 l 460 693 l 460 24 l 669 24 m 942 24 l 942 693 l 733 693 l 733 24 l 942 24 m 1006 24 l 1215 24 l 1215 693 l 1006 693 l 1006 24 z "},"侮":{"ha":1389,"x_min":20,"x_max":1333,"o":"m 267 -115 l 201 -115 l 201 619 q 58 400 134 492 l 20 457 q 329 1120 239 731 l 392 1108 q 267 732 348 909 l 267 -115 m 895 468 l 1175 468 q 1203 766 1193 642 l 925 766 q 895 468 917 669 m 831 468 q 861 766 853 669 l 585 766 q 550 468 576 663 l 831 468 m 782 106 q 823 408 806 264 l 542 408 q 493 106 507 182 l 782 106 m 846 106 l 1133 106 q 1168 408 1148 212 l 888 408 q 846 106 873 288 m 367 408 l 367 468 l 485 468 q 522 796 507 624 q 406 621 471 705 l 358 665 q 597 1147 517 870 l 660 1132 q 621 1013 652 1100 l 1305 1013 l 1305 954 l 597 954 q 536 823 570 888 l 1274 823 q 1240 468 1264 699 l 1333 468 l 1333 408 l 1235 408 q 1198 106 1228 344 l 1292 106 l 1292 47 l 1192 47 l 1183 -7 q 1147 -94 1173 -73 q 1049 -115 1121 -115 q 901 -110 977 -115 l 901 -53 q 1029 -58 970 -58 q 1101 -47 1089 -58 q 1119 -4 1114 -37 q 1124 33 1123 28 q 1125 47 1126 39 l 482 47 l 464 -41 l 399 -35 q 476 408 440 163 l 367 408 z "},"便":{"ha":1389,"x_min":26,"x_max":1322,"o":"m 269 -115 l 204 -115 l 204 625 q 61 392 142 499 l 26 458 q 310 1120 227 735 l 374 1107 q 269 762 338 931 l 269 -115 m 890 664 l 1210 664 l 1210 823 l 890 823 l 890 664 m 507 664 l 823 664 l 823 823 l 507 823 l 507 664 m 507 435 l 812 435 q 823 608 823 522 l 507 608 l 507 435 m 415 1065 l 1320 1065 l 1320 1007 l 890 1007 l 890 879 l 1275 879 l 1275 288 l 1210 288 l 1210 379 l 869 379 q 777 146 841 238 q 1322 -25 1003 -11 l 1315 -86 q 737 97 979 -72 q 367 -86 618 -31 l 349 -26 q 685 136 579 25 q 513 318 585 218 l 567 353 q 724 184 635 256 q 803 379 777 260 l 443 379 l 443 879 l 823 879 l 823 1007 l 415 1007 l 415 1065 m 1210 435 l 1210 608 l 890 608 q 879 435 890 532 l 1210 435 z "},"係":{"ha":1389,"x_min":16,"x_max":1362,"o":"m 264 -115 l 197 -115 l 197 639 q 47 392 133 503 l 16 458 q 297 1120 213 730 l 363 1107 q 264 777 327 929 l 264 -115 m 869 -92 l 802 -92 l 802 386 l 343 366 l 340 427 l 610 437 q 685 498 641 463 q 406 796 555 642 l 453 838 l 547 741 q 804 981 676 852 q 401 968 604 968 l 399 1028 q 1263 1100 897 1028 l 1275 1040 q 899 989 1088 1006 q 589 694 770 854 l 733 539 q 1137 909 940 712 l 1185 868 q 710 441 952 640 l 1213 464 q 1099 661 1102 656 l 1153 688 q 1362 317 1270 494 l 1308 290 q 1244 407 1268 366 l 869 390 l 869 -92 m 326 4 q 642 292 509 132 l 689 252 q 366 -45 562 90 l 326 4 m 965 250 l 1008 296 q 1349 -11 1209 135 l 1304 -56 q 965 250 1165 92 z "},"保":{"ha":1389,"x_min":18,"x_max":1341,"o":"m 275 -115 l 208 -115 l 208 648 q 50 392 136 503 l 18 458 q 310 1120 224 735 l 374 1107 q 275 783 341 947 l 275 -115 m 529 692 l 1178 692 l 1178 1013 l 529 1013 l 529 692 m 382 440 l 382 498 l 812 498 l 812 635 l 461 635 l 461 1072 l 1246 1072 l 1246 635 l 880 635 l 880 498 l 1315 498 l 1315 440 l 920 440 q 1341 12 1053 214 l 1310 -45 q 880 395 1018 161 l 880 -110 l 812 -110 l 812 392 q 382 -43 671 162 l 347 12 q 774 440 637 213 l 382 440 z "},"信":{"ha":1389,"x_min":26,"x_max":1331,"o":"m 275 -115 l 208 -115 l 208 639 q 58 392 144 503 l 26 458 q 310 1120 227 735 l 374 1107 q 275 777 337 926 l 275 -115 m 551 -52 l 551 -115 l 484 -115 l 484 297 l 1267 297 l 1267 -115 l 1198 -115 l 1198 -52 l 551 -52 m 503 1017 l 503 1076 l 1255 1076 l 1255 1017 l 503 1017 m 419 825 l 419 886 l 1331 886 l 1331 825 l 419 825 m 497 629 l 497 689 l 1253 689 l 1253 629 l 497 629 m 497 433 l 497 493 l 1253 493 l 1253 433 l 497 433 m 1198 8 l 1198 239 l 551 239 l 551 8 l 1198 8 z "},"修":{"ha":1389,"x_min":16,"x_max":1317,"o":"m 909 755 q 1116 971 1049 849 l 697 971 q 909 755 774 850 m 225 -115 l 160 -115 l 160 610 q 50 397 113 500 l 16 460 q 254 1120 186 734 l 317 1111 q 225 751 283 918 l 225 -115 m 1304 1031 l 1304 971 l 1183 971 q 964 721 1112 827 q 1310 581 1108 633 l 1291 521 q 908 684 1075 576 q 498 526 738 581 l 478 583 q 852 721 696 633 q 657 922 739 804 q 510 721 585 800 l 467 766 q 688 1136 612 924 l 749 1125 q 713 1031 739 1088 l 1304 1031 m 529 380 q 811 461 678 409 q 1036 572 943 509 l 1061 518 q 831 403 972 457 q 547 323 682 349 l 529 380 m 532 163 q 1165 400 934 233 l 1192 345 q 547 104 961 178 l 532 163 m 528 -57 q 1291 222 1023 22 l 1317 168 q 545 -115 1045 -36 l 528 -57 m 370 52 l 370 900 l 433 900 l 433 52 l 370 52 z "},"俳":{"ha":1389,"x_min":16,"x_max":1344,"o":"m 267 -115 l 199 -115 l 199 642 q 50 395 130 498 l 16 458 q 300 1120 213 726 l 364 1107 q 267 777 330 934 l 267 -115 m 390 551 l 390 610 l 681 610 l 681 856 l 372 856 l 372 917 l 681 917 l 681 1116 l 746 1116 l 746 542 q 681 117 746 262 q 439 -135 616 -28 l 395 -83 q 576 69 514 -14 q 661 277 639 152 q 370 175 508 214 l 354 235 q 671 346 505 277 q 681 547 681 427 l 681 551 l 390 551 m 1344 278 l 1344 216 l 1004 216 l 1004 -115 l 937 -115 l 937 1116 l 1004 1116 l 1004 917 l 1337 917 l 1337 856 l 1004 856 l 1004 608 l 1320 608 l 1320 549 l 1004 549 l 1004 278 l 1344 278 z "},"俵":{"ha":1389,"x_min":14,"x_max":1364,"o":"m 253 -115 l 186 -115 l 186 615 q 49 392 123 488 l 14 458 q 297 1120 214 735 l 361 1107 q 253 750 321 909 l 253 -115 m 328 505 l 328 566 l 794 566 l 794 728 l 414 728 l 414 787 l 794 787 l 794 942 l 375 942 l 375 1000 l 794 1000 l 794 1141 l 863 1141 l 863 1000 l 1283 1000 l 1283 942 l 863 942 l 863 787 l 1243 787 l 1243 728 l 863 728 l 863 566 l 1331 566 l 1331 505 l 884 505 q 1017 245 931 364 q 1242 469 1147 345 l 1291 431 q 1054 197 1183 296 q 1364 -40 1180 45 l 1336 -97 q 1018 142 1150 -14 q 818 501 882 298 q 631 338 742 415 l 631 3 q 949 72 771 27 l 958 14 q 366 -97 653 -64 l 358 -37 q 564 -8 455 -26 l 564 294 q 313 172 459 232 l 290 231 q 743 505 578 345 l 328 505 z "},"倉":{"ha":1389,"x_min":52,"x_max":1328,"o":"m 463 954 l 926 954 q 694 1093 805 1020 q 463 954 584 1020 m 321 582 l 321 558 q 315 437 321 506 l 1064 437 l 1064 582 l 321 582 m 321 636 l 1064 636 l 1064 772 l 321 772 l 321 636 m 953 900 l 435 900 l 435 939 q 78 777 271 853 l 61 836 q 650 1136 380 962 l 739 1136 q 1328 836 1009 962 l 1311 777 q 953 940 1124 850 l 953 900 m 254 828 l 1132 828 l 1132 382 l 310 382 q 290 275 303 324 l 1178 275 l 1178 -117 l 1109 -117 l 1109 -53 l 340 -53 l 340 -117 l 273 -117 l 273 233 q 98 -90 222 37 l 52 -40 q 254 582 254 175 l 254 828 m 1109 3 l 1109 220 l 340 220 l 340 3 l 1109 3 z "},"個":{"ha":1389,"x_min":16,"x_max":1287,"o":"m 232 -115 l 165 -115 l 165 611 q 49 396 111 486 l 16 460 q 268 1120 195 734 l 329 1112 q 232 742 295 915 l 232 -115 m 452 -50 l 452 -115 l 386 -115 l 386 1079 l 1287 1079 l 1287 -115 l 1219 -115 l 1219 -50 l 452 -50 m 656 168 l 1015 168 l 1015 473 l 656 473 l 656 168 m 1079 113 l 593 113 l 593 530 l 803 530 l 803 745 l 509 745 l 509 802 l 803 802 l 803 978 l 868 978 l 868 802 l 1164 802 l 1164 745 l 868 745 l 868 530 l 1079 530 l 1079 113 m 1219 8 l 1219 1019 l 452 1019 l 452 8 l 1219 8 z "},"倍":{"ha":1389,"x_min":16,"x_max":1312,"o":"m 996 637 q 1092 945 1059 781 l 587 945 q 675 637 630 819 l 996 637 m 525 -39 l 525 -104 l 458 -104 l 458 433 l 1221 433 l 1221 -104 l 1153 -104 l 1153 -39 l 525 -39 m 267 -115 l 199 -115 l 199 642 q 50 395 130 498 l 16 458 q 300 1120 213 726 l 364 1107 q 267 777 330 934 l 267 -115 m 370 578 l 370 637 l 608 637 q 519 945 572 789 l 389 945 l 389 1004 l 806 1004 l 806 1149 l 875 1149 l 875 1004 l 1299 1004 l 1299 945 l 1157 945 q 1065 637 1122 774 l 1312 637 l 1312 578 l 370 578 m 1153 18 l 1153 374 l 525 374 l 525 18 l 1153 18 z "},"倒":{"ha":1389,"x_min":16,"x_max":1286,"o":"m 225 -115 l 160 -115 l 160 596 q 50 396 104 476 l 16 460 q 268 1120 195 734 l 330 1114 q 225 725 295 911 l 225 -115 m 990 170 l 990 1035 l 1054 1035 l 1054 170 l 990 170 m 1219 1090 l 1286 1090 l 1286 58 q 1270 -66 1286 -37 q 1183 -93 1251 -93 q 1026 -86 1149 -93 l 1025 -24 q 1172 -31 1139 -31 q 1212 -19 1204 -31 q 1219 58 1219 -7 l 1219 1090 m 368 991 l 368 1053 l 917 1053 l 917 991 l 625 991 q 509 646 574 825 q 822 701 666 667 q 717 885 767 806 l 770 913 q 942 597 873 748 l 888 570 q 850 647 884 579 q 323 562 642 597 l 318 623 q 368 628 342 624 q 412 633 393 632 q 437 636 431 635 q 558 991 503 810 l 368 991 m 893 382 l 893 323 l 656 323 l 656 60 q 909 139 748 84 l 918 82 q 338 -72 609 -28 l 330 -12 q 590 43 485 14 l 590 323 l 351 323 l 351 382 l 590 382 l 590 559 l 656 559 l 656 382 l 893 382 z "},"候":{"ha":1389,"x_min":16,"x_max":1336,"o":"m 225 -115 l 160 -115 l 160 611 q 50 397 117 507 l 16 460 q 254 1120 186 734 l 317 1111 q 225 751 283 918 l 225 -115 m 370 52 l 370 900 l 433 900 l 433 52 l 370 52 m 509 277 l 509 336 l 889 336 l 889 346 q 890 355 890 350 l 890 546 l 677 546 q 559 386 625 455 l 509 424 q 699 733 629 551 l 509 733 l 509 791 l 1100 791 l 1122 1019 l 574 1019 l 574 1079 l 1197 1079 l 1169 791 l 1324 791 l 1324 733 l 765 733 q 710 604 734 648 l 1284 604 l 1284 546 l 958 546 l 958 336 l 1324 336 l 1324 277 l 966 277 q 1087 81 994 165 q 1336 -52 1181 -3 l 1315 -111 q 1069 18 1171 -66 q 924 205 967 102 q 743 7 870 91 q 440 -113 616 -77 l 419 -52 q 728 74 609 -12 q 879 277 848 160 l 509 277 z "},"借":{"ha":1389,"x_min":16,"x_max":1326,"o":"m 267 -115 l 199 -115 l 199 642 q 50 395 130 498 l 16 458 q 300 1120 213 726 l 364 1107 q 267 777 330 934 l 267 -115 m 669 985 l 1029 985 l 1029 1135 l 1096 1135 l 1096 985 l 1286 985 l 1286 928 l 1096 928 l 1096 669 l 1326 669 l 1326 611 l 358 611 l 358 669 l 604 669 l 604 928 l 400 928 l 400 985 l 604 985 l 604 1135 l 669 1135 l 669 985 m 669 928 l 669 669 l 1029 669 l 1029 928 l 669 928 m 525 208 l 525 18 l 1168 18 l 1168 208 l 525 208 m 525 265 l 1168 265 l 1168 444 l 525 444 l 525 265 m 1168 -104 l 1168 -39 l 525 -39 l 525 -104 l 458 -104 l 458 503 l 1236 503 l 1236 -104 l 1168 -104 z "},"値":{"ha":1389,"x_min":14,"x_max":1331,"o":"m 253 -115 l 186 -115 l 186 615 q 49 392 123 488 l 14 458 q 297 1120 214 735 l 361 1107 q 253 750 321 909 l 253 -115 m 703 559 l 703 410 l 1181 410 l 1181 559 l 703 559 m 703 615 l 1181 615 l 1181 761 l 703 761 l 703 615 m 403 958 l 403 1017 l 869 1017 q 886 1132 875 1059 l 953 1128 q 936 1017 937 1027 l 1331 1017 l 1331 958 l 926 958 q 901 819 910 856 l 1247 819 l 1247 139 l 636 139 l 636 819 l 832 819 q 860 958 847 886 l 403 958 m 1181 196 l 1181 354 l 703 354 l 703 196 l 1181 196 m 486 789 l 486 18 l 1331 18 l 1331 -40 l 486 -40 l 486 -115 l 419 -115 l 419 789 l 486 789 z "},"偉":{"ha":1389,"x_min":25,"x_max":1337,"o":"m 1156 817 l 1156 968 l 815 968 q 768 817 782 854 l 1156 817 m 935 258 l 572 258 l 572 107 l 935 107 l 935 258 m 536 469 l 1190 469 l 1190 623 l 536 623 l 536 469 m 1004 315 l 1297 315 l 1297 258 l 1004 258 l 1004 107 l 1337 107 l 1337 47 l 1004 47 l 1004 -115 l 935 -115 l 935 47 l 315 47 l 315 107 l 507 107 l 507 258 l 380 258 l 380 315 l 935 315 l 935 414 l 468 414 l 468 677 l 1257 677 l 1257 414 l 1004 414 l 1004 315 m 267 -115 l 200 -115 l 200 621 q 60 392 134 490 l 25 458 q 309 1120 225 735 l 372 1107 q 267 755 337 924 l 267 -115 m 1225 1025 l 1225 817 l 1331 817 l 1331 758 l 330 758 l 330 817 l 699 817 q 746 968 715 864 l 449 968 l 449 1025 l 761 1025 q 789 1132 786 1120 l 856 1125 q 851 1107 855 1122 q 844 1079 847 1093 l 832 1025 l 1225 1025 z "},"偏":{"ha":1389,"x_min":16,"x_max":1312,"o":"m 232 -117 l 167 -117 l 167 596 q 46 390 113 483 l 16 460 q 281 1118 199 726 l 346 1107 q 232 730 306 902 l 232 -117 m 472 679 l 1185 679 l 1185 859 l 472 859 l 472 679 m 1031 220 l 1031 -77 l 970 -77 l 970 220 l 791 220 l 791 -77 l 730 -77 l 730 220 l 553 220 l 553 -104 l 486 -104 l 486 524 l 1275 524 l 1275 -11 q 1260 -83 1275 -71 q 1191 -98 1247 -98 q 1069 -93 1135 -98 l 1069 -35 q 1206 -35 1198 -46 q 1210 -3 1210 -30 l 1210 220 l 1031 220 m 730 275 l 730 467 l 553 467 l 553 275 l 730 275 m 970 275 l 970 467 l 791 467 l 791 275 l 970 275 m 1031 275 l 1210 275 l 1210 467 l 1031 467 l 1031 275 m 378 1008 l 378 1067 l 1312 1067 l 1312 1008 l 378 1008 m 406 633 l 406 914 l 1253 914 l 1253 624 l 472 624 q 309 -62 472 257 l 256 -21 q 370 286 335 134 q 406 633 406 437 z "},"停":{"ha":1389,"x_min":16,"x_max":1333,"o":"m 268 -115 l 203 -115 l 203 627 q 54 386 142 503 l 16 443 q 319 1120 231 722 l 385 1108 q 268 739 345 916 l 268 -115 m 524 650 l 1161 650 l 1161 807 l 524 807 l 524 650 m 1229 595 l 456 595 l 456 863 l 1229 863 l 1229 595 m 885 1013 l 1333 1013 l 1333 953 l 385 953 l 385 1013 l 815 1013 l 815 1136 l 885 1136 l 885 1013 m 1331 220 l 1264 220 l 1264 447 l 419 447 l 419 220 l 354 220 l 354 504 l 1331 504 l 1331 220 m 787 -93 q 607 -86 758 -93 l 606 -25 q 792 -32 749 -32 q 846 -19 836 -32 q 857 57 857 -6 l 857 267 l 473 267 l 473 326 l 1211 326 l 1211 267 l 926 267 l 926 58 q 903 -66 926 -39 q 787 -93 880 -93 z "},"健":{"ha":1389,"x_min":8,"x_max":1343,"o":"m 983 636 l 1190 636 l 1190 785 l 983 785 l 983 636 m 983 981 l 983 843 l 1190 843 l 1190 981 l 983 981 m 1253 1038 l 1253 843 l 1343 843 l 1343 785 l 1253 785 l 1253 581 l 983 581 l 983 437 l 1278 437 l 1278 382 l 983 382 l 983 228 l 1303 228 l 1303 170 l 983 170 l 983 24 l 914 24 l 914 170 l 558 170 l 558 228 l 914 228 l 914 382 l 608 382 l 608 437 l 914 437 l 914 581 l 633 581 l 633 636 l 914 636 l 914 785 l 545 785 l 545 843 l 914 843 l 914 981 l 619 981 l 619 1038 l 914 1038 l 914 1128 l 983 1128 l 983 1038 l 1253 1038 m 281 576 l 281 636 q 493 990 411 812 l 285 990 l 285 999 q 218 754 257 866 l 218 -115 l 153 -115 l 153 611 q 43 397 110 507 l 8 460 q 243 1120 174 734 l 306 1114 q 294 1051 305 1107 l 557 1051 l 557 990 q 355 636 476 800 l 582 636 l 582 576 q 475 183 553 355 q 674 24 555 68 q 1008 -20 793 -19 l 1318 -20 l 1315 -79 l 1007 -79 q 661 -36 795 -79 q 446 122 530 12 q 286 -103 374 -9 l 244 -54 q 406 180 344 54 q 279 458 342 279 l 335 489 q 436 248 381 351 q 521 576 500 404 l 281 576 z "},"側":{"ha":1389,"x_min":16,"x_max":1286,"o":"m 225 -115 l 160 -115 l 160 596 q 50 396 104 476 l 16 460 q 268 1120 195 734 l 330 1114 q 225 725 295 911 l 225 -115 m 857 243 l 379 243 l 379 1072 l 857 1072 l 857 243 m 444 507 l 444 302 l 794 302 l 794 507 l 444 507 m 444 761 l 444 562 l 794 562 l 794 761 l 444 761 m 444 817 l 794 817 l 794 1011 l 444 1011 l 444 817 m 979 170 l 979 1035 l 1043 1035 l 1043 170 l 979 170 m 1219 1090 l 1286 1090 l 1286 58 q 1270 -66 1286 -37 q 1183 -93 1251 -93 q 1026 -86 1149 -93 l 1025 -24 q 1172 -31 1139 -31 q 1212 -19 1204 -31 q 1219 58 1219 -7 l 1219 1090 m 325 -65 q 526 195 455 49 l 581 167 q 372 -106 497 -3 l 325 -65 m 656 154 l 703 191 q 909 -64 827 68 l 859 -96 q 656 154 777 35 z "},"偶":{"ha":1389,"x_min":16,"x_max":1299,"o":"m 265 -115 l 199 -115 l 199 642 q 50 395 130 498 l 16 458 q 300 1120 213 726 l 364 1107 q 265 774 330 933 l 265 -115 m 529 639 l 819 639 l 819 802 l 529 802 l 529 639 m 1177 802 l 885 802 l 885 639 l 1177 639 l 1177 802 m 1177 857 l 1177 1018 l 885 1018 l 885 857 l 1177 857 m 819 1018 l 529 1018 l 529 857 l 819 857 l 819 1018 m 815 400 l 469 400 l 469 -98 l 406 -98 l 406 458 l 815 458 l 815 583 l 464 583 l 464 1078 l 1242 1078 l 1242 583 l 885 583 l 885 458 l 1299 458 l 1299 58 q 1280 -66 1298 -39 q 1192 -93 1263 -93 q 1039 -86 1173 -93 l 1036 -25 q 1191 -32 1164 -32 q 1225 -20 1218 -32 q 1234 57 1234 -9 l 1234 400 l 880 400 l 880 192 q 1053 229 946 204 q 994 329 1045 244 l 1051 355 q 1197 83 1139 217 l 1137 58 q 1079 179 1103 134 q 536 82 802 102 l 529 144 q 815 180 677 155 l 815 400 z "},"備":{"ha":1389,"x_min":16,"x_max":1325,"o":"m 233 -117 l 167 -117 l 167 596 q 46 390 113 483 l 16 460 q 281 1118 199 726 l 346 1107 q 233 730 306 897 l 233 -117 m 864 361 l 576 361 l 576 201 l 864 201 l 864 361 m 928 361 l 928 201 l 1219 201 l 1219 361 l 928 361 m 864 414 l 864 567 l 576 567 l 576 414 l 864 414 m 928 414 l 1219 414 l 1219 567 l 928 567 l 928 414 m 1095 1002 l 1311 1002 l 1311 943 l 1095 943 l 1095 819 l 1026 819 l 1026 943 l 682 943 l 682 819 l 615 819 l 615 943 l 379 943 l 379 1002 l 615 1002 l 615 1135 l 682 1135 l 682 1002 l 1026 1002 l 1026 1135 l 1095 1135 l 1095 1002 m 433 492 q 314 -85 433 156 l 264 -37 q 367 525 367 195 l 367 782 l 1325 782 l 1325 725 l 433 725 l 433 492 m 1171 -45 q 1211 -33 1206 -45 q 1219 31 1219 -25 l 1219 147 l 928 147 l 928 -96 l 864 -96 l 864 147 l 576 147 l 576 -109 l 511 -109 l 511 623 l 1284 623 l 1284 28 q 1268 -81 1284 -58 q 1187 -103 1252 -103 q 1042 -97 1123 -103 l 1040 -37 q 1171 -45 1170 -45 z "},"傷":{"ha":1389,"x_min":20,"x_max":1326,"o":"m 260 -117 l 195 -117 l 195 621 q 54 393 128 487 l 20 460 q 302 1121 219 735 l 367 1108 q 260 757 332 932 l 260 -117 m 562 703 l 562 600 l 1153 600 l 1153 703 l 562 703 m 562 754 l 1153 754 l 1153 851 l 562 851 l 562 754 m 1312 1028 l 1312 970 l 581 970 q 550 907 568 940 l 1221 907 l 1221 546 l 497 546 l 497 815 q 392 676 448 739 l 340 718 q 583 1150 507 905 l 646 1136 q 607 1028 627 1076 l 1312 1028 m 364 422 l 364 478 l 1326 478 l 1326 422 l 717 422 q 653 345 694 390 l 1287 345 q 1254 -1 1287 97 q 1143 -100 1221 -100 q 974 -93 1087 -100 l 974 -35 q 1128 -41 1074 -41 q 1221 289 1217 -41 l 1120 289 q 954 58 1068 176 q 724 -125 844 -60 l 685 -81 q 892 79 787 -27 q 1053 289 996 184 l 868 289 q 684 103 797 194 q 452 -52 564 3 l 415 -4 q 624 127 519 47 q 794 289 728 208 l 596 289 q 350 111 473 174 l 317 158 q 494 278 409 206 q 644 422 585 350 l 364 422 z "},"傾":{"ha":1389,"x_min":16,"x_max":1344,"o":"m 225 -115 l 160 -115 l 160 596 q 50 396 104 476 l 16 460 q 269 1120 195 734 l 330 1114 q 225 725 295 911 l 225 -115 m 787 593 l 787 433 l 1219 433 l 1219 593 l 787 593 m 787 648 l 1219 648 l 1219 804 l 787 804 l 787 648 m 654 1013 l 654 1072 l 1336 1072 l 1336 1013 l 1035 1013 q 1003 860 1021 935 l 1286 860 l 1286 155 l 722 155 l 722 860 l 933 860 q 966 1013 956 958 l 654 1013 m 1219 211 l 1219 378 l 787 378 l 787 211 l 1219 211 m 603 -57 q 879 127 784 24 l 924 86 q 631 -111 821 -28 l 603 -57 m 1025 79 l 1060 129 q 1344 -66 1225 39 l 1308 -115 q 1025 79 1179 -3 m 355 171 l 355 1000 l 419 1000 l 419 602 q 647 846 530 689 l 693 803 q 419 524 552 617 l 419 183 q 431 144 419 154 q 507 139 446 139 q 581 178 568 139 q 597 450 591 220 l 660 446 l 656 294 q 636 144 647 174 q 603 94 625 113 q 566 80 582 81 q 477 79 551 79 q 380 94 404 79 q 355 171 355 109 z "},"働":{"ha":1389,"x_min":9,"x_max":1314,"o":"m 554 481 l 395 481 l 395 350 l 554 350 l 554 481 m 618 481 l 618 350 l 783 350 l 783 481 l 618 481 m 554 533 l 554 664 l 395 664 l 395 533 l 554 533 m 618 533 l 783 533 l 783 664 l 618 664 l 618 533 m 838 770 l 838 817 l 619 817 l 619 720 l 843 720 l 843 296 l 619 296 l 619 187 l 839 187 l 839 132 l 619 132 l 619 5 q 835 43 719 20 l 840 -3 q 936 296 903 125 q 979 770 969 467 l 838 770 m 214 -115 l 150 -115 l 150 586 q 45 396 98 473 l 9 460 q 262 1120 190 736 l 325 1114 q 214 710 290 901 l 214 -115 m 1177 -16 q 1215 24 1202 -16 q 1249 750 1249 123 l 1249 770 l 1042 770 q 987 232 1029 422 q 861 -100 945 42 l 806 -65 q 833 -17 831 -22 q 300 -92 591 -66 l 296 -32 q 553 -3 389 -25 l 553 132 l 321 132 l 321 187 l 553 187 l 553 296 l 332 296 l 332 720 l 553 720 l 553 817 l 311 817 l 311 872 l 553 872 l 553 996 q 347 979 417 981 l 342 1039 q 833 1105 605 1049 l 847 1046 q 619 1004 754 1023 l 619 872 l 850 872 l 850 831 l 981 831 q 983 1117 983 945 l 1047 1117 q 1044 831 1047 945 l 1314 831 l 1314 790 q 1309 305 1314 463 q 1254 -57 1299 -7 q 1187 -78 1235 -78 q 1039 -64 1139 -78 l 1040 -1 q 1177 -16 1122 -16 z "},"像":{"ha":1389,"x_min":16,"x_max":1365,"o":"m 885 889 q 965 987 926 935 l 589 987 q 505 889 553 939 l 885 889 m 806 831 l 465 831 l 465 643 l 806 643 l 806 831 m 871 831 l 871 643 l 1221 643 l 1221 831 l 871 831 m 232 -117 l 167 -117 l 167 596 q 46 390 113 483 l 16 460 q 281 1118 199 726 l 346 1107 q 232 728 305 901 l 232 -117 m 879 -4 q 887 12 879 -4 q 895 94 895 27 q 889 205 895 161 q 306 -72 687 40 l 285 -11 q 878 267 681 100 q 828 389 861 333 q 318 157 639 248 l 298 215 q 799 435 618 300 q 711 529 758 490 q 330 378 550 440 l 311 435 q 707 587 547 497 l 400 587 l 400 790 q 315 726 379 772 l 277 774 q 604 1137 498 928 l 668 1121 q 627 1046 648 1081 l 1043 1046 l 1043 987 q 970 889 1019 949 l 1287 889 l 1287 587 l 932 587 q 1040 345 972 458 q 1274 536 1169 422 l 1318 498 q 1074 293 1204 374 q 1365 -5 1198 111 l 1331 -62 q 1047 220 1177 41 q 868 587 922 397 l 804 587 l 786 575 q 766 561 779 570 q 910 365 859 477 q 961 125 961 252 q 933 -47 961 -3 q 836 -93 908 -93 q 636 -86 793 -93 l 635 -28 q 819 -35 774 -35 q 879 -4 863 -35 z "},"僕":{"ha":1389,"x_min":9,"x_max":1331,"o":"m 225 -117 l 158 -117 l 158 589 q 41 390 104 478 l 9 460 q 275 1118 195 727 l 340 1107 q 225 722 296 885 l 225 -117 m 918 650 q 1013 869 979 764 l 628 869 q 710 650 659 799 l 918 650 m 326 224 l 326 281 l 778 281 q 782 322 782 301 l 782 411 l 379 411 l 379 467 l 782 467 l 782 595 l 346 595 l 346 650 l 642 650 q 558 869 598 777 l 336 869 l 336 928 l 505 928 q 419 1083 473 995 l 473 1109 q 572 928 527 1027 l 677 928 l 677 1128 l 739 1128 l 739 928 l 899 928 l 899 1128 l 960 1128 l 960 928 l 1067 928 q 1161 1108 1120 1018 l 1218 1089 q 1135 928 1181 1005 l 1300 928 l 1300 869 l 1080 869 q 990 650 1046 755 l 1287 650 l 1287 595 l 850 595 l 850 467 l 1253 467 l 1253 411 l 850 411 l 850 322 q 856 281 850 308 l 1307 281 l 1307 224 l 873 224 q 1040 54 918 127 q 1331 -52 1162 -20 l 1315 -114 q 1006 5 1140 -81 q 819 200 873 92 q 625 5 762 91 q 304 -114 488 -80 l 289 -52 q 586 54 463 -20 q 758 224 709 129 l 326 224 z "},"億":{"ha":1389,"x_min":8,"x_max":1362,"o":"m 220 -115 l 155 -115 l 155 590 q 41 392 106 486 l 8 460 q 271 1120 195 736 l 335 1109 q 220 720 294 899 l 220 -115 m 937 783 q 1042 958 1001 865 l 582 958 q 684 783 632 881 l 937 783 m 1244 260 l 359 260 l 359 664 l 1244 664 l 1244 260 m 428 441 l 428 315 l 1177 315 l 1177 441 l 428 441 m 428 494 l 1177 494 l 1177 608 l 428 608 l 428 494 m 304 726 l 304 783 l 610 783 q 507 958 556 884 l 350 958 l 350 1018 l 785 1018 l 785 1149 l 854 1149 l 854 1018 l 1297 1018 l 1297 958 l 1111 958 q 1014 783 1074 870 l 1329 783 l 1329 726 l 304 726 m 253 -43 q 410 207 355 71 l 465 182 q 302 -81 410 36 l 253 -43 m 831 -104 q 572 -69 597 -104 q 554 53 554 -44 l 554 195 l 621 195 l 621 65 q 631 -26 621 -6 q 783 -46 640 -46 q 1004 -38 925 -46 q 1050 -17 1021 -36 q 1061 12 1055 -8 q 1075 117 1069 57 l 1136 107 q 1124 -1 1130 33 q 1100 -58 1118 -34 q 1057 -88 1082 -83 q 831 -104 990 -104 m 975 78 l 935 32 q 707 196 842 113 l 746 243 q 975 78 868 169 m 1362 -52 l 1308 -79 q 1136 182 1232 61 l 1189 215 q 1362 -52 1284 91 z "},"優":{"ha":1389,"x_min":8,"x_max":1335,"o":"m 220 -115 l 155 -115 l 155 590 q 41 392 106 486 l 8 460 q 271 1120 195 736 l 335 1109 q 220 720 294 899 l 220 -115 m 511 663 l 511 593 l 1141 593 l 1141 663 l 511 663 m 511 779 l 511 710 l 1141 710 l 1141 779 l 511 779 m 511 827 l 1141 827 l 1141 896 l 511 896 l 511 827 m 900 307 l 812 307 q 697 309 718 307 q 643 260 678 290 l 1156 260 l 1156 207 q 908 54 1059 121 q 1335 -39 1106 -12 l 1324 -98 q 829 21 1058 -67 q 328 -98 604 -65 l 317 -40 q 754 53 563 -12 q 554 165 636 105 l 602 204 q 833 82 693 138 q 1068 207 977 140 l 572 207 q 330 83 473 138 l 311 138 q 628 315 498 208 q 586 338 594 321 q 578 393 578 354 l 578 509 l 640 509 l 640 408 q 661 364 640 372 q 812 358 696 358 l 884 358 l 977 364 q 1004 375 989 367 q 1019 385 1017 382 q 1038 472 1033 418 l 1097 468 l 1141 503 q 1305 296 1239 397 l 1255 261 q 1100 460 1179 374 q 1095 411 1098 425 q 1088 376 1095 396 q 1072 347 1081 355 q 1050 328 1069 340 q 900 307 1003 307 m 335 309 q 486 493 437 392 l 536 465 q 378 267 481 351 l 335 309 m 358 1015 l 358 1072 l 1307 1072 l 1307 1015 l 848 1015 q 817 949 829 970 l 1210 949 l 1210 593 l 1320 593 l 1320 386 l 1257 386 l 1257 541 l 749 541 q 946 453 852 501 l 917 406 q 707 497 823 454 l 729 541 l 395 541 l 395 386 l 332 386 l 332 593 l 441 593 l 441 949 l 743 949 q 778 1015 770 994 l 358 1015 z "},"元":{"ha":1389,"x_min":85,"x_max":1310,"o":"m 227 1003 l 227 1064 l 1162 1064 l 1162 1003 l 227 1003 m 882 69 q 886 25 882 35 q 897 11 886 13 q 947 -3 920 -1 l 991 -3 q 1057 -4 1007 -4 q 1213 39 1189 -4 q 1243 347 1237 87 l 1310 343 q 1300 122 1305 169 q 1286 38 1295 76 q 1270 -8 1276 0 q 1214 -53 1238 -46 q 1175 -59 1203 -53 q 1118 -65 1146 -65 l 1051 -65 q 930 -62 979 -65 q 854 -45 882 -60 q 819 -8 828 -33 q 814 60 814 23 l 814 631 l 533 631 q 440 167 531 320 q 118 -85 349 9 l 85 -29 q 382 199 300 56 q 467 631 465 342 l 115 631 l 115 692 l 1274 692 l 1274 631 l 882 631 l 882 69 z "},"兄":{"ha":1389,"x_min":72,"x_max":1324,"o":"m 227 522 l 227 1065 l 1162 1065 l 1162 522 l 872 522 l 872 33 q 879 12 872 24 q 895 -1 886 1 q 981 -11 943 -11 l 1061 -11 q 1198 4 1170 -11 q 1249 118 1238 24 q 1260 340 1257 184 l 1324 336 l 1320 203 q 1300 31 1316 112 q 1280 -15 1296 11 q 1247 -50 1263 -41 q 1139 -72 1183 -72 l 1055 -72 q 846 -53 888 -72 q 804 53 804 -34 l 804 522 l 549 522 q 442 124 543 263 q 103 -92 342 -15 l 72 -35 q 386 161 297 39 q 481 522 475 283 l 227 522 m 294 581 l 1095 581 l 1095 1004 l 294 1004 l 294 581 z "},"充":{"ha":1389,"x_min":93,"x_max":1296,"o":"m 810 -1 l 810 539 q 555 513 734 531 q 125 -111 541 32 l 103 -52 q 488 505 473 79 q 107 484 272 489 l 104 543 q 350 555 222 547 q 525 932 451 734 l 93 932 l 93 991 l 660 991 l 660 1136 l 729 1136 l 729 991 l 1296 991 l 1296 932 l 596 932 q 428 561 520 727 q 1051 631 721 583 q 865 829 916 778 l 918 867 q 1280 465 1104 681 l 1227 427 q 1099 578 1135 538 q 878 547 890 549 l 878 22 q 886 -19 878 -11 q 921 -28 894 -27 q 1139 -25 1059 -35 q 1166 -8 1148 -22 q 1184 27 1180 5 q 1206 250 1198 100 l 1271 244 q 1249 14 1260 71 q 1214 -58 1237 -42 q 1145 -85 1191 -75 q 920 -89 1100 -96 q 830 -69 850 -87 q 810 -1 810 -52 z "},"兆":{"ha":1389,"x_min":83,"x_max":1311,"o":"m 138 939 l 191 981 q 431 669 305 851 l 379 632 q 138 939 277 779 m 504 1101 l 572 1101 l 572 551 q 529 220 572 349 q 391 12 486 92 q 118 -129 296 -68 l 83 -69 q 396 117 306 10 q 500 439 486 224 q 106 232 328 319 l 85 294 q 504 513 330 391 l 504 1101 m 851 -17 q 985 -35 884 -35 q 1111 -31 1085 -35 q 1153 -26 1137 -27 q 1179 -23 1169 -24 q 1203 -11 1189 -22 q 1222 5 1218 -3 q 1236 47 1226 14 q 1240 78 1238 58 q 1244 109 1243 98 q 1246 151 1245 119 q 1249 201 1248 182 l 1311 195 q 1301 47 1305 100 q 1283 -28 1296 -5 q 1207 -82 1257 -73 q 880 -90 1073 -108 q 787 -54 804 -84 q 770 93 769 -24 l 770 1101 l 838 1101 l 838 100 q 838 43 837 53 q 841 12 840 34 q 851 -17 842 -9 m 914 686 q 1198 1004 1065 812 l 1253 971 q 962 646 1120 778 l 914 686 m 895 501 l 929 557 q 1308 325 1124 453 l 1271 271 q 895 501 1111 383 z "},"先":{"ha":1389,"x_min":75,"x_max":1322,"o":"m 1186 -72 q 1169 -76 1186 -72 q 1025 -79 1152 -79 q 857 -56 898 -79 q 817 60 817 -33 l 817 519 l 608 519 q 459 125 588 281 q 98 -94 330 -31 l 75 -33 q 404 165 285 23 q 542 519 524 308 l 92 519 l 92 581 l 676 581 l 676 872 l 343 872 q 201 635 283 737 l 144 669 q 355 1104 292 857 l 418 1089 q 370 933 402 1020 l 676 933 l 676 1128 l 746 1128 l 746 933 l 1204 933 l 1204 872 l 746 872 l 746 581 l 1297 581 l 1297 519 l 885 519 l 885 69 l 886 28 q 898 0 892 9 q 922 -11 903 -9 q 978 -17 942 -12 l 1067 -18 l 1122 -18 q 1161 -12 1134 -18 q 1196 -3 1188 -7 q 1216 19 1202 1 q 1232 46 1229 37 q 1251 151 1249 117 q 1256 216 1253 184 q 1260 268 1259 248 l 1322 262 q 1289 11 1308 83 q 1236 -57 1264 -47 q 1186 -72 1221 -64 z "},"光":{"ha":1389,"x_min":86,"x_max":1310,"o":"m 1118 -65 l 1051 -65 q 860 -46 898 -65 q 822 60 822 -27 l 822 546 l 558 546 q 457 137 555 276 q 117 -85 359 -2 l 86 -28 q 399 172 312 50 q 492 546 486 294 l 115 546 l 115 606 l 660 606 l 660 1116 l 729 1116 l 729 606 l 1274 606 l 1274 546 l 892 546 l 892 69 q 895 33 892 41 q 928 0 895 6 l 1057 -4 q 1213 39 1189 -4 q 1243 347 1237 87 l 1310 343 q 1300 122 1305 169 q 1286 38 1295 76 q 1270 -8 1276 0 q 1214 -53 1238 -46 q 1175 -59 1203 -53 q 1118 -65 1146 -65 m 253 1034 q 473 692 357 892 l 416 661 q 196 1002 309 846 l 253 1034 m 1194 1007 q 972 660 1101 819 l 917 693 q 1135 1035 1048 857 l 1194 1007 z "},"免":{"ha":1389,"x_min":69,"x_max":1275,"o":"m 694 760 l 296 760 l 296 456 l 694 456 l 694 760 m 761 760 l 761 456 l 1158 456 l 1158 760 l 761 760 m 863 990 l 437 990 q 302 818 376 895 l 703 818 q 863 990 791 903 m 796 -8 l 796 399 l 608 399 q 475 86 600 220 q 126 -118 353 -48 l 107 -58 q 422 125 314 7 q 541 399 534 243 l 296 399 l 296 306 l 229 306 l 229 746 q 102 642 148 673 l 69 700 q 454 1154 333 892 l 518 1139 q 472 1048 504 1103 l 945 1048 l 945 990 q 793 818 878 901 l 1225 818 l 1225 399 l 864 399 l 864 16 q 873 -26 864 -18 q 924 -36 883 -34 l 1007 -39 q 1061 -37 1019 -38 q 1135 -34 1103 -35 q 1183 0 1168 -33 q 1202 96 1200 60 q 1206 170 1203 133 q 1210 232 1208 207 l 1275 227 q 1256 22 1267 71 q 1236 -45 1244 -26 q 1206 -75 1226 -61 q 1003 -98 1162 -98 l 913 -96 q 819 -77 842 -94 q 796 -8 796 -61 z "},"児":{"ha":1389,"x_min":85,"x_max":1312,"o":"m 1213 428 l 454 428 l 454 1072 l 1213 1072 l 1213 428 m 519 730 l 519 485 l 1145 485 l 1145 730 l 519 730 m 519 787 l 1145 787 l 1145 1013 l 519 1013 l 519 787 m 490 375 l 555 372 q 452 66 553 172 q 110 -93 350 -39 l 85 -35 q 397 104 309 16 q 490 375 484 193 m 821 49 l 821 374 l 889 374 l 889 58 q 892 22 889 31 q 900 3 892 14 q 926 -11 905 -9 q 979 -17 947 -13 l 1065 -18 l 1137 -18 q 1183 -8 1158 -18 q 1217 9 1208 1 q 1234 58 1225 25 q 1246 215 1242 90 l 1312 211 q 1296 22 1309 67 q 1271 -38 1283 -22 q 1225 -65 1259 -54 q 1164 -77 1191 -76 q 1019 -79 1137 -79 q 860 -58 901 -79 q 821 49 821 -40 m 176 361 l 176 1084 l 243 1084 l 243 361 l 176 361 z "},"党":{"ha":1389,"x_min":72,"x_max":1324,"o":"m 1280 936 l 1280 610 l 1213 610 l 1213 876 l 176 876 l 176 610 l 109 610 l 109 936 l 371 936 q 277 1089 307 1046 l 335 1109 q 441 936 381 1042 l 660 936 l 660 1140 l 729 1140 l 729 936 l 954 936 q 1053 1120 1004 1016 l 1112 1100 q 1025 936 1078 1028 l 1280 936 m 298 374 l 298 761 l 1090 761 l 1090 374 l 872 374 l 872 20 q 879 -1 872 11 q 895 -16 886 -14 q 981 -25 943 -25 l 1141 -25 q 1195 -11 1165 -24 q 1227 11 1225 3 q 1245 68 1234 17 q 1260 271 1257 119 l 1324 267 q 1311 68 1320 119 q 1302 5 1308 26 q 1280 -37 1297 -15 q 1248 -65 1263 -58 q 1139 -86 1204 -86 l 1055 -86 q 846 -67 888 -86 q 804 39 804 -48 l 804 374 l 586 374 q 453 61 572 176 q 97 -106 336 -56 l 72 -47 q 397 100 295 -1 q 518 374 504 198 l 298 374 m 367 432 l 1022 432 l 1022 704 l 367 704 l 367 432 z "},"入":{"ha":1389,"x_min":93,"x_max":1296,"o":"m 693 1000 l 309 1000 l 309 1063 l 762 1063 l 762 928 q 915 336 762 612 q 1296 -49 1067 61 l 1263 -103 q 928 195 1069 -12 q 726 663 782 404 q 493 199 658 410 q 126 -103 328 -12 l 93 -49 q 397 186 259 30 q 614 534 536 342 q 693 909 693 727 l 693 1000 z "},"全":{"ha":1389,"x_min":60,"x_max":1329,"o":"m 729 -5 l 1278 -5 l 1278 -66 l 111 -66 l 111 -5 l 660 -5 l 660 323 l 236 323 l 236 383 l 660 383 l 660 652 l 288 652 l 288 711 l 1103 711 l 1103 652 l 729 652 l 729 383 l 1153 383 l 1153 323 l 729 323 l 729 -5 m 737 1126 q 1329 715 995 898 l 1300 659 q 694 1079 959 842 q 89 659 430 842 l 60 715 q 652 1126 394 898 l 737 1126 z "},"八":{"ha":1389,"x_min":62,"x_max":1326,"o":"m 449 1028 l 939 1028 q 1326 -39 984 433 l 1265 -75 q 876 965 932 386 l 449 965 l 449 1028 m 505 818 q 123 -75 415 317 l 62 -39 q 436 831 351 352 l 505 818 z "},"公":{"ha":1389,"x_min":66,"x_max":1322,"o":"m 555 1034 q 113 498 404 727 l 66 549 q 494 1057 347 767 l 555 1034 m 833 1034 l 895 1057 q 1322 549 1042 767 l 1276 498 q 833 1034 985 727 m 916 416 l 974 447 q 1308 -72 1160 191 l 1249 -102 q 1166 39 1240 -87 q 123 -62 619 -46 l 119 -1 q 330 9 168 0 q 572 701 462 313 l 639 682 q 407 14 537 320 q 1132 94 767 39 q 916 416 1012 286 z "},"六":{"ha":1389,"x_min":107,"x_max":1282,"o":"m 729 1128 l 729 851 l 1282 851 l 1282 789 l 107 789 l 107 851 l 660 851 l 660 1128 l 729 1128 m 504 604 q 176 -62 393 228 l 115 -28 q 437 625 325 252 l 504 604 m 863 597 l 922 629 q 1274 -40 1121 315 l 1210 -66 q 863 597 1061 278 z "},"共":{"ha":1389,"x_min":77,"x_max":1312,"o":"m 468 828 l 468 432 l 921 432 l 921 828 l 468 828 m 1246 888 l 1246 828 l 989 828 l 989 432 l 1312 432 l 1312 371 l 77 371 l 77 432 l 400 432 l 400 828 l 143 828 l 143 888 l 400 888 l 400 1114 l 468 1114 l 468 888 l 921 888 l 921 1114 l 989 1114 l 989 888 l 1246 888 m 122 -53 q 543 268 387 80 l 591 227 q 397 43 517 136 q 160 -107 276 -50 l 122 -53 m 803 216 l 844 265 q 1270 -69 1096 109 l 1223 -115 q 803 216 1053 59 z "},"兵":{"ha":1389,"x_min":77,"x_max":1312,"o":"m 930 330 l 930 743 l 366 743 l 366 330 l 930 330 m 1000 330 l 1312 330 l 1312 269 l 77 269 l 77 330 l 296 330 l 296 1010 q 770 1036 547 1010 q 1136 1105 992 1061 l 1156 1044 q 366 949 864 955 l 366 803 l 1244 803 l 1244 743 l 1000 743 l 1000 330 m 118 -52 q 550 222 393 66 l 591 175 q 397 22 519 103 q 150 -107 273 -55 l 118 -52 m 803 165 l 836 218 q 1272 -66 1079 96 l 1232 -118 q 803 165 1052 38 z "},"具":{"ha":1389,"x_min":90,"x_max":1299,"o":"m 297 637 l 1092 637 l 1092 804 l 297 804 l 297 637 m 297 411 l 1092 411 l 1092 583 l 297 583 l 297 411 m 1160 355 l 229 355 l 229 1079 l 1160 1079 l 1160 355 m 110 -49 q 539 171 389 45 l 576 122 q 134 -107 418 -13 l 110 -49 m 815 113 l 842 165 q 1282 -64 1101 60 l 1249 -118 q 815 113 1083 -3 m 1092 1021 l 297 1021 l 297 859 l 1092 859 l 1092 1021 m 90 205 l 90 264 l 1299 264 l 1299 205 l 90 205 z "},"典":{"ha":1389,"x_min":58,"x_max":1331,"o":"m 828 297 l 828 593 l 561 593 l 561 297 l 828 297 m 890 297 l 1161 297 l 1161 593 l 890 593 l 890 297 m 228 593 l 228 297 l 498 297 l 498 593 l 228 593 m 498 921 l 228 921 l 228 650 l 498 650 l 498 921 m 828 921 l 561 921 l 561 650 l 828 650 l 828 921 m 890 921 l 890 650 l 1161 650 l 1161 921 l 890 921 m 1331 237 l 58 237 l 58 297 l 163 297 l 163 981 l 498 981 l 498 1136 l 561 1136 l 561 981 l 828 981 l 828 1136 l 890 1136 l 890 981 l 1226 981 l 1226 297 l 1331 297 l 1331 237 m 96 -49 q 524 193 364 50 l 564 146 q 372 8 490 76 q 122 -107 254 -60 l 96 -49 m 828 136 l 857 189 q 1297 -64 1115 74 l 1261 -118 q 828 136 1088 16 z "},"内":{"ha":1389,"x_min":136,"x_max":1253,"o":"m 1185 79 l 1185 920 l 724 920 q 679 717 714 810 q 1139 336 943 576 l 1084 297 q 654 659 896 528 q 289 304 553 449 l 253 363 q 541 597 444 463 q 656 920 637 732 l 204 920 l 204 -78 l 136 -78 l 136 981 l 660 981 l 660 1141 l 728 1141 l 728 981 l 1253 981 l 1253 79 q 1229 -47 1253 -23 q 1104 -72 1205 -72 q 890 -65 1103 -72 l 889 -4 l 1095 -11 q 1173 1 1160 -11 q 1185 79 1185 14 z "},"円":{"ha":1389,"x_min":149,"x_max":1239,"o":"m 661 996 l 218 996 l 218 566 l 661 566 l 661 996 m 728 996 l 728 566 l 1171 566 l 1171 996 l 728 996 m 1171 92 l 1171 504 l 218 504 l 218 -71 l 149 -71 l 149 1057 l 1239 1057 l 1239 92 q 1214 -33 1239 -10 q 1090 -58 1191 -58 q 876 -52 1088 -58 l 875 9 l 1080 3 q 1158 14 1145 3 q 1171 92 1171 26 z "},"冊":{"ha":1389,"x_min":50,"x_max":1339,"o":"m 564 1003 l 564 567 l 825 567 l 825 1003 l 564 1003 m 237 567 l 498 567 l 498 1003 l 237 1003 l 237 567 m 1152 507 l 890 507 l 890 -36 l 825 -36 l 825 507 l 564 507 l 564 -36 l 498 -36 l 498 507 l 237 507 l 237 -78 l 170 -78 l 170 507 l 50 507 l 50 567 l 170 567 l 170 1064 l 1219 1064 l 1219 567 l 1339 567 l 1339 507 l 1219 507 l 1219 85 q 1200 -40 1219 -14 q 1116 -66 1184 -66 q 961 -58 1102 -66 l 960 3 q 1104 -4 1073 -4 q 1143 7 1135 -4 q 1152 85 1152 18 l 1152 507 m 1152 567 l 1152 1003 l 890 1003 l 890 567 l 1152 567 z "},"再":{"ha":1389,"x_min":58,"x_max":1331,"o":"m 273 567 l 273 340 l 647 340 l 647 567 l 273 567 m 647 814 l 273 814 l 273 623 l 647 623 l 647 814 m 832 -37 q 1050 -45 1008 -45 q 1103 -34 1091 -45 q 1116 33 1116 -23 l 1116 282 l 273 282 l 273 -115 l 205 -115 l 205 282 l 58 282 l 58 340 l 205 340 l 205 871 l 647 871 l 647 1007 l 104 1007 l 104 1065 l 1284 1065 l 1284 1007 l 713 1007 l 713 871 l 1183 871 l 1183 340 l 1331 340 l 1331 282 l 1183 282 l 1183 32 q 1158 -81 1183 -58 q 1035 -104 1134 -104 q 962 -102 1028 -104 q 833 -97 895 -99 l 832 -37 m 713 814 l 713 623 l 1116 623 l 1116 814 l 713 814 m 1116 567 l 713 567 l 713 340 l 1116 340 l 1116 567 z "},"冒":{"ha":1389,"x_min":147,"x_max":1242,"o":"m 215 838 l 215 710 l 1174 710 l 1174 838 l 215 838 m 215 893 l 1174 893 l 1174 1022 l 215 1022 l 215 893 m 289 196 l 1100 196 l 1100 318 l 289 318 l 289 196 m 289 17 l 1100 17 l 1100 140 l 289 140 l 289 17 m 289 -37 l 289 -103 l 220 -103 l 220 553 l 1169 553 l 1169 -103 l 1100 -103 l 1100 -37 l 289 -37 m 147 1078 l 1242 1078 l 1242 654 l 147 654 l 147 1078 m 1100 374 l 1100 497 l 289 497 l 289 374 l 1100 374 z "},"冗":{"ha":1389,"x_min":71,"x_max":1324,"o":"m 1247 1051 l 1247 707 l 1183 707 l 1183 991 l 205 991 l 205 693 l 142 693 l 142 1051 l 1247 1051 m 871 747 l 482 747 l 482 604 q 398 161 482 315 q 106 -85 314 7 l 71 -29 q 339 197 267 60 q 414 611 414 334 l 414 806 l 939 806 l 939 69 q 959 5 939 14 q 1060 -4 979 -4 q 1169 -2 1141 -4 q 1207 10 1198 0 q 1240 62 1236 37 q 1260 297 1255 157 l 1324 293 q 1314 131 1322 186 q 1256 -34 1305 -3 q 1193 -59 1226 -53 q 1096 -65 1160 -65 q 985 -64 1032 -65 q 910 -49 939 -62 q 872 9 882 -35 l 871 60 l 871 747 z "},"写":{"ha":1389,"x_min":65,"x_max":1324,"o":"m 127 1065 l 1261 1065 l 1261 793 l 1196 793 l 1196 1006 l 193 1006 l 193 779 l 127 779 l 127 1065 m 65 249 l 65 309 l 991 309 q 1014 513 998 353 l 350 513 q 311 392 320 417 l 243 406 q 389 979 332 669 l 457 971 q 449 926 454 956 q 429 823 444 897 l 1132 823 l 1132 766 l 415 766 q 366 568 389 647 l 1089 568 q 1063 309 1072 399 l 1324 309 l 1324 249 l 1055 249 q 945 -61 1023 -18 q 811 -79 906 -79 q 498 -66 716 -79 l 500 -7 q 783 -20 704 -20 q 872 -18 861 -20 q 907 -3 883 -17 q 936 31 926 11 q 960 115 945 52 q 985 249 975 179 l 65 249 z "},"冬":{"ha":1389,"x_min":75,"x_max":1325,"o":"m 1121 1022 l 1121 962 q 765 623 984 764 q 1325 403 993 503 l 1307 343 q 707 586 949 452 q 92 342 468 448 l 75 404 q 646 621 432 502 q 347 854 479 722 q 106 665 242 751 l 77 722 q 494 1149 353 898 l 561 1132 q 493 1022 539 1090 l 1121 1022 m 704 656 q 1040 962 913 783 l 447 962 q 392 899 437 951 q 704 656 527 760 m 465 368 l 486 427 q 986 254 755 354 l 960 199 q 465 368 715 302 m 283 60 l 294 121 q 1096 -57 701 67 l 1076 -114 q 283 60 678 7 z "},"冷":{"ha":1389,"x_min":65,"x_max":1341,"o":"m 1165 726 l 539 726 l 539 777 q 361 642 460 711 l 330 699 q 810 1128 600 886 l 880 1128 q 1341 728 1083 903 l 1314 671 q 1165 779 1240 721 l 1165 726 m 1154 787 q 844 1078 983 923 q 551 787 707 917 l 1154 787 m 399 532 l 1265 532 l 1265 164 q 1248 37 1265 62 q 1156 12 1230 12 q 974 20 1119 12 l 972 81 q 1143 74 1100 74 q 1192 86 1187 74 q 1198 164 1198 94 l 1198 471 l 811 471 l 811 -106 l 743 -106 l 743 471 l 399 471 l 399 532 m 294 749 q 71 1029 196 893 l 122 1067 q 349 785 250 931 l 294 749 m 65 -29 q 326 432 231 187 l 386 410 q 119 -66 289 149 l 65 -29 z "},"凍":{"ha":1389,"x_min":58,"x_max":1331,"o":"m 479 623 l 811 623 l 811 783 l 479 783 l 479 623 m 479 396 l 811 396 l 811 568 l 479 568 l 479 396 m 1206 568 l 879 568 l 879 396 l 1206 396 l 1206 568 m 1206 623 l 1206 783 l 879 783 l 879 623 l 1206 623 m 414 340 l 414 839 l 811 839 l 811 942 l 367 942 l 367 999 l 811 999 l 811 1129 l 879 1129 l 879 999 l 1304 999 l 1304 942 l 879 942 l 879 839 l 1271 839 l 1271 340 l 922 340 q 1331 -5 1082 135 l 1303 -64 q 879 301 1034 96 l 879 -110 l 811 -110 l 811 300 q 343 -64 657 105 l 314 -5 q 772 340 631 164 l 414 340 m 292 749 q 71 1028 197 889 l 121 1068 q 343 786 252 924 l 292 749 m 370 410 q 113 -66 274 145 l 58 -29 q 310 433 216 180 l 370 410 z "},"処":{"ha":1389,"x_min":57,"x_max":1314,"o":"m 382 314 q 530 878 510 556 l 268 878 q 212 672 247 777 l 265 688 q 382 314 314 451 m 789 990 l 789 779 q 751 382 788 522 q 625 146 715 241 l 578 196 q 690 404 656 281 q 724 785 724 526 l 724 1051 l 1128 1051 l 1128 310 q 1133 244 1128 258 q 1172 236 1141 236 q 1214 239 1203 236 q 1234 274 1225 243 q 1246 361 1244 305 q 1250 538 1248 418 l 1308 533 q 1303 366 1306 410 q 1271 207 1295 227 q 1231 183 1246 186 q 1157 176 1215 176 q 1080 197 1099 176 q 1063 301 1063 220 l 1063 990 l 789 990 m 1047 -18 l 1314 -18 l 1311 -79 l 1036 -79 q 639 -19 795 -79 q 383 189 482 41 q 96 -104 267 14 l 60 -52 q 346 250 230 68 q 207 653 262 404 q 104 416 165 530 l 57 463 q 243 1118 199 724 l 307 1111 q 281 939 300 1041 l 599 939 q 419 248 583 534 q 659 41 511 104 q 1047 -18 812 -18 z "},"出":{"ha":1389,"x_min":155,"x_max":1234,"o":"m 289 1004 l 289 632 l 660 632 l 660 1128 l 729 1128 l 729 632 l 1100 632 l 1100 1004 l 1166 1004 l 1166 572 l 729 572 l 729 40 l 1166 40 l 1166 454 l 1234 454 l 1234 -114 l 1166 -114 l 1166 -21 l 222 -21 l 222 -114 l 155 -114 l 155 454 l 222 454 l 222 40 l 660 40 l 660 572 l 222 572 l 222 1004 l 289 1004 z "},"刀":{"ha":1389,"x_min":157,"x_max":1211,"o":"m 164 956 l 164 1018 l 1211 1018 l 1211 933 q 1206 547 1211 690 q 1161 110 1198 273 q 1116 8 1147 45 q 1057 -36 1085 -28 q 958 -47 1027 -47 q 711 -32 888 -47 l 711 32 q 970 17 866 17 q 1070 69 1036 17 q 1141 895 1141 179 l 1141 956 l 589 956 q 501 309 583 525 q 201 -72 420 94 l 157 -21 q 361 185 286 76 q 519 956 515 412 l 164 956 z "},"分":{"ha":1389,"x_min":52,"x_max":1337,"o":"m 541 1061 q 97 526 389 756 l 52 576 q 479 1084 332 795 l 541 1061 m 848 1061 l 909 1084 q 1337 576 1057 795 l 1292 526 q 848 1061 1000 756 m 905 -18 q 986 17 957 -18 q 1044 567 1044 99 l 1044 593 l 607 593 q 490 174 589 342 q 204 -102 392 5 l 164 -47 q 431 205 338 50 q 539 593 521 361 l 289 593 l 289 654 l 1112 654 l 1112 597 q 1095 154 1112 309 q 1036 -35 1074 12 q 911 -81 994 -81 q 697 -72 829 -81 l 697 -11 q 905 -18 812 -18 z "},"切":{"ha":1389,"x_min":35,"x_max":1293,"o":"m 509 964 l 509 1025 l 1293 1025 l 1293 953 q 1247 111 1293 290 q 1206 8 1234 45 q 1148 -43 1181 -31 q 1058 -54 1116 -54 q 854 -39 1000 -54 l 856 24 q 1061 9 967 9 q 1139 35 1109 9 q 1187 151 1164 60 q 1217 422 1211 241 q 1225 914 1225 604 l 1225 964 l 884 964 q 840 483 880 673 q 711 164 799 293 q 460 -81 623 35 l 414 -33 q 653 195 566 71 q 775 497 739 321 q 818 964 816 673 l 509 964 m 364 142 q 215 161 244 142 q 187 271 187 182 l 187 672 l 43 640 l 35 701 l 187 734 l 187 1100 l 253 1100 l 253 749 l 646 835 l 654 775 l 253 686 l 253 273 q 267 208 253 218 q 380 200 281 200 q 498 240 479 200 q 526 509 518 280 l 587 503 l 583 389 q 581 353 583 385 q 574 276 578 320 q 547 195 570 232 q 506 159 530 171 q 432 142 481 146 l 364 142 z "},"刊":{"ha":1389,"x_min":78,"x_max":1272,"o":"m 836 170 l 836 1035 l 901 1035 l 901 170 l 836 170 m 1204 1090 l 1272 1090 l 1272 58 q 1249 -66 1272 -39 q 1137 -93 1226 -93 q 942 -86 1106 -93 l 940 -22 q 1139 -29 1097 -29 q 1193 -16 1181 -29 q 1204 60 1204 -2 l 1204 1090 m 366 997 l 106 997 l 106 1059 l 739 1059 l 739 997 l 433 997 l 433 593 l 753 593 l 753 532 l 433 532 l 433 -109 l 366 -109 l 366 532 l 78 532 l 78 593 l 366 593 l 366 997 z "},"列":{"ha":1389,"x_min":64,"x_max":1267,"o":"m 869 170 l 869 1035 l 935 1035 l 935 170 l 869 170 m 1200 1090 l 1267 1090 l 1267 58 q 1244 -66 1267 -40 q 1154 -93 1222 -93 q 960 -86 1086 -93 l 960 -22 q 1131 -29 1084 -29 q 1190 -16 1179 -29 q 1200 60 1200 -2 l 1200 1090 m 93 997 l 93 1059 l 783 1059 l 783 997 l 444 997 q 389 804 424 895 l 720 804 l 720 747 q 553 237 703 466 q 165 -93 398 8 l 129 -40 q 539 345 393 77 q 300 515 411 444 l 338 567 q 568 403 469 480 q 656 747 642 562 l 367 747 q 107 338 268 507 l 64 385 q 375 997 296 636 l 93 997 z "},"初":{"ha":1389,"x_min":25,"x_max":1292,"o":"m 530 964 l 530 1025 l 1292 1025 l 1292 953 q 1278 362 1291 524 q 1247 111 1264 201 q 1145 -43 1214 -19 q 1056 -54 1114 -54 q 852 -39 998 -54 l 854 24 q 1060 9 966 9 q 1158 61 1125 9 q 1225 914 1225 179 l 1225 964 l 893 964 q 848 481 889 669 q 720 161 808 294 q 469 -81 630 33 l 422 -33 q 661 195 573 70 q 783 497 747 321 q 827 964 825 677 l 530 964 m 328 -115 l 261 -115 l 261 416 q 50 250 168 323 l 25 315 q 285 536 178 411 q 460 827 391 661 l 60 827 l 60 889 l 261 889 l 261 1116 l 328 1116 l 328 889 l 529 889 l 529 827 q 361 522 461 652 q 446 433 404 479 q 593 640 522 519 l 644 611 q 486 389 566 480 l 576 283 l 530 241 q 328 468 437 355 l 328 -115 z "},"判":{"ha":1389,"x_min":68,"x_max":1275,"o":"m 865 170 l 865 1035 l 932 1035 l 932 170 l 865 170 m 1207 1090 l 1275 1090 l 1275 58 q 1253 -66 1275 -34 q 1160 -93 1226 -93 q 966 -86 1093 -93 l 966 -22 q 1138 -29 1090 -29 q 1196 -16 1185 -29 q 1207 60 1207 -3 l 1207 1090 m 149 1031 q 307 700 227 886 l 248 676 q 90 1004 180 836 l 149 1031 m 765 1010 q 606 675 705 841 l 549 701 q 705 1032 649 869 l 765 1010 m 779 302 l 779 240 l 461 240 l 461 -115 l 395 -115 l 395 240 l 68 240 l 68 302 l 395 302 l 395 550 l 107 550 l 107 610 l 395 610 l 395 1116 l 461 1116 l 461 610 l 742 610 l 742 550 l 461 550 l 461 302 l 779 302 z "},"別":{"ha":1389,"x_min":57,"x_max":1267,"o":"m 859 170 l 859 1035 l 924 1035 l 924 170 l 859 170 m 1200 1090 l 1267 1090 l 1267 58 q 1244 -66 1267 -40 q 1154 -93 1222 -93 q 960 -86 1086 -93 l 960 -22 q 1131 -29 1084 -29 q 1190 -16 1179 -29 q 1200 60 1200 -2 l 1200 1090 m 629 721 l 629 1006 l 178 1006 l 178 721 l 629 721 m 553 -29 q 595 3 583 -29 q 628 439 628 68 l 310 439 q 103 -104 270 68 l 57 -54 q 257 664 253 150 l 111 664 l 111 1065 l 693 1065 l 693 664 l 322 664 q 315 498 322 595 l 693 498 q 682 113 693 240 q 644 -53 671 -14 q 571 -93 622 -93 q 371 -86 498 -93 l 370 -22 q 553 -29 490 -29 z "},"利":{"ha":1389,"x_min":47,"x_max":1267,"o":"m 717 718 l 717 657 l 449 657 q 733 267 510 576 l 682 228 q 419 602 580 381 l 419 -115 l 355 -115 l 355 572 q 87 111 269 326 l 47 164 q 326 657 240 390 l 66 657 l 66 718 l 355 718 l 355 993 q 96 966 197 974 l 90 1023 q 685 1107 347 1043 l 701 1050 q 419 1003 572 1025 l 419 718 l 717 718 m 821 170 l 821 1035 l 886 1035 l 886 170 l 821 170 m 1200 1090 l 1267 1090 l 1267 58 q 1244 -66 1267 -36 q 1133 -93 1220 -93 q 937 -86 1101 -93 l 936 -22 q 1135 -29 1093 -29 q 1189 -17 1177 -29 q 1200 60 1200 -2 l 1200 1090 z "},"到":{"ha":1389,"x_min":87,"x_max":1271,"o":"m 909 170 l 909 1035 l 975 1035 l 975 170 l 909 170 m 1206 1090 l 1271 1090 l 1271 58 q 1249 -66 1271 -40 q 1158 -93 1226 -93 q 964 -86 1090 -93 l 964 -22 q 1135 -29 1086 -29 q 1195 -16 1184 -29 q 1206 60 1206 -3 l 1206 1090 m 104 991 l 104 1053 l 822 1053 l 822 991 l 422 991 q 307 647 376 839 q 682 710 499 675 q 564 882 609 821 l 615 913 q 863 528 762 720 l 807 497 q 715 659 772 566 q 100 566 394 592 l 96 625 q 155 631 123 628 q 205 636 186 633 q 235 639 224 637 q 354 991 310 843 l 104 991 m 815 379 l 815 321 l 496 321 l 496 45 q 840 118 663 75 l 847 60 q 93 -72 467 -35 l 87 -12 q 428 32 265 4 l 428 321 l 118 321 l 118 379 l 428 379 l 428 559 l 496 559 l 496 379 l 815 379 z "},"制":{"ha":1389,"x_min":75,"x_max":1267,"o":"m 914 170 l 914 1035 l 977 1035 l 977 170 l 914 170 m 1200 1090 l 1267 1090 l 1267 58 q 1244 -66 1267 -34 q 1153 -93 1218 -93 q 960 -86 1088 -93 l 960 -22 q 1131 -28 1084 -28 q 1190 -16 1179 -28 q 1200 60 1200 -4 l 1200 1090 m 811 637 l 473 637 l 473 467 l 762 467 l 762 135 q 748 20 762 43 q 671 -3 734 -3 q 545 4 668 -3 l 543 65 q 654 58 654 58 q 694 69 691 58 q 701 139 701 76 l 701 408 l 473 408 l 473 -115 l 408 -115 l 408 408 l 187 408 l 187 -9 l 123 -9 l 123 467 l 408 467 l 408 637 l 75 637 l 75 697 l 408 697 l 408 880 l 208 880 q 139 724 178 797 l 79 749 q 191 1084 159 885 l 254 1078 q 225 939 245 1015 l 408 939 l 408 1116 l 473 1116 l 473 939 l 772 939 l 772 880 l 473 880 l 473 697 l 811 697 l 811 637 z "},"刷":{"ha":1389,"x_min":43,"x_max":1260,"o":"m 216 778 l 710 778 l 710 1006 l 216 1006 l 216 778 m 892 170 l 892 1035 l 958 1035 l 958 170 l 892 170 m 1192 1090 l 1260 1090 l 1260 58 q 1238 -66 1260 -39 q 1147 -93 1215 -93 q 953 -86 1080 -93 l 953 -22 q 1124 -29 1076 -29 q 1181 -17 1173 -29 q 1192 60 1192 -6 l 1192 1090 m 469 684 l 536 684 l 536 545 l 775 545 l 775 147 q 763 25 775 53 q 697 -3 751 -3 q 583 4 683 -3 l 582 65 q 685 58 669 58 q 708 69 701 58 q 713 147 713 83 l 713 485 l 536 485 l 536 -129 l 469 -129 l 469 485 l 304 485 l 304 -16 l 241 -16 l 241 545 l 469 545 l 469 684 m 214 664 q 92 -72 214 214 l 43 -24 q 150 667 150 250 l 150 1065 l 775 1065 l 775 721 l 214 721 l 214 664 z "},"券":{"ha":1389,"x_min":71,"x_max":1320,"o":"m 521 603 l 884 603 q 775 794 820 695 l 631 794 q 521 603 581 686 m 1004 -55 q 984 -71 1004 -55 q 898 -86 964 -86 q 673 -79 831 -86 l 673 -20 q 876 -26 825 -26 q 954 -9 928 -26 q 996 87 979 9 q 1014 314 1014 165 l 653 314 q 491 50 603 152 q 197 -109 379 -53 l 170 -53 q 439 88 340 0 q 585 314 539 176 l 317 314 l 317 372 l 1082 372 q 1062 74 1081 172 q 1004 -55 1043 -24 m 83 543 l 83 603 l 439 603 q 558 794 511 696 l 136 794 l 136 854 l 368 854 q 232 1065 296 976 l 290 1090 q 441 854 366 988 l 585 854 q 659 1141 643 998 l 726 1136 q 657 854 710 996 l 942 854 q 1088 1090 1031 981 l 1147 1068 q 1018 854 1089 958 l 1253 854 l 1253 794 l 844 794 q 961 603 895 688 l 1305 603 l 1305 543 l 1010 543 q 1320 301 1141 393 l 1292 240 q 1119 352 1218 278 q 929 543 1020 426 l 475 543 q 280 353 376 423 q 96 240 184 283 l 71 301 q 389 543 251 391 l 83 543 z "},"刺":{"ha":1389,"x_min":41,"x_max":1267,"o":"m 913 170 l 913 1035 l 977 1035 l 977 170 l 913 170 m 1200 1090 l 1267 1090 l 1267 58 q 1244 -66 1267 -34 q 1153 -93 1218 -93 q 960 -86 1088 -93 l 960 -22 q 1131 -28 1084 -28 q 1190 -16 1179 -28 q 1200 60 1200 -4 l 1200 1090 m 822 940 l 476 940 l 476 796 l 768 796 l 768 543 q 754 418 768 445 q 685 392 741 392 q 559 399 670 392 l 557 457 q 659 452 625 452 q 699 463 693 452 q 704 539 704 473 l 704 739 l 476 739 l 476 439 q 852 106 593 266 l 818 52 q 476 346 604 189 l 476 -115 l 408 -115 l 408 329 q 78 -12 287 143 l 41 40 q 408 432 293 222 l 408 739 l 187 739 l 187 358 l 122 358 l 122 796 l 408 796 l 408 940 l 53 940 l 53 999 l 408 999 l 408 1129 l 476 1129 l 476 999 l 822 999 l 822 940 z "},"刻":{"ha":1389,"x_min":79,"x_max":1280,"o":"m 908 170 l 908 1035 l 974 1035 l 974 170 l 908 170 m 1214 1090 l 1280 1090 l 1280 58 q 1258 -66 1280 -34 q 1166 -93 1232 -93 q 974 -86 1101 -93 l 974 -22 q 1145 -28 1097 -28 q 1203 -16 1192 -28 q 1214 60 1214 -4 l 1214 1090 m 83 916 l 83 975 l 427 975 l 427 1129 l 494 1129 l 494 975 l 835 975 l 835 916 l 488 916 q 314 648 404 755 q 449 517 369 600 q 675 838 586 654 l 734 807 q 472 448 633 602 q 106 205 311 293 l 79 264 q 401 472 248 336 q 118 736 264 616 l 161 782 q 268 690 239 720 q 416 916 345 787 l 83 916 m 79 -18 q 475 201 299 57 q 772 545 658 349 l 832 510 q 608 229 745 362 q 860 -43 759 115 l 804 -79 q 562 186 713 64 q 104 -78 360 7 l 79 -18 z "},"則":{"ha":1389,"x_min":68,"x_max":1260,"o":"m 696 222 l 136 222 l 136 1072 l 696 1072 l 696 222 m 203 493 l 203 282 l 632 282 l 632 493 l 203 493 m 203 754 l 203 549 l 632 549 l 632 754 l 203 754 m 203 810 l 632 810 l 632 1011 l 203 1011 l 203 810 m 859 170 l 859 1035 l 924 1035 l 924 170 l 859 170 m 1192 1090 l 1260 1090 l 1260 58 q 1238 -66 1260 -39 q 1147 -93 1215 -93 q 951 -86 1080 -93 l 951 -22 q 1123 -28 1076 -28 q 1181 -16 1171 -28 q 1192 60 1192 -4 l 1192 1090 m 68 -60 q 311 175 226 45 l 363 140 q 111 -106 268 -7 l 68 -60 m 473 127 l 518 172 q 766 -56 675 56 l 718 -97 q 473 127 616 24 z "},"前":{"ha":1389,"x_min":79,"x_max":1310,"o":"m 227 490 l 227 283 l 606 283 l 606 490 l 227 490 m 227 547 l 606 547 l 606 745 l 227 745 l 227 547 m 79 914 l 79 972 l 475 972 q 383 1132 440 1038 l 446 1153 q 547 972 497 1071 l 844 972 q 942 1152 899 1058 l 1007 1133 q 920 972 972 1058 l 1310 972 l 1310 914 l 79 914 m 606 62 l 606 227 l 227 227 l 227 -93 l 161 -93 l 161 803 l 669 803 l 669 60 q 653 -64 669 -39 q 550 -86 633 -86 q 400 -79 544 -86 l 400 -20 l 543 -26 q 598 -16 591 -27 q 606 62 606 -5 m 833 142 l 833 778 l 899 778 l 899 142 l 833 142 m 1174 827 l 1239 827 l 1239 58 q 1217 -66 1240 -40 q 1127 -93 1194 -93 q 933 -86 1061 -93 l 932 -22 q 1104 -29 1055 -29 q 1164 -16 1153 -29 q 1174 60 1175 -3 l 1174 827 z "},"副":{"ha":1389,"x_min":98,"x_max":1275,"o":"m 225 648 l 704 648 l 704 851 l 225 851 l 225 648 m 770 595 l 157 595 l 157 907 l 770 907 l 770 595 m 494 254 l 751 254 l 751 432 l 494 432 l 494 254 m 494 197 l 494 11 l 751 11 l 751 197 l 494 197 m 178 197 l 178 11 l 429 11 l 429 197 l 178 197 m 178 254 l 429 254 l 429 432 l 178 432 l 178 254 m 178 -45 l 178 -109 l 110 -109 l 110 490 l 817 490 l 817 -109 l 751 -109 l 751 -45 l 178 -45 m 98 1013 l 98 1072 l 831 1072 l 831 1013 l 98 1013 m 920 170 l 920 1035 l 985 1035 l 985 170 l 920 170 m 1207 1090 l 1275 1090 l 1275 58 q 1253 -66 1275 -34 q 1161 -93 1226 -93 q 968 -86 1096 -93 l 966 -22 q 1138 -29 1090 -29 q 1196 -16 1185 -29 q 1207 60 1207 -3 l 1207 1090 z "},"割":{"ha":1389,"x_min":77,"x_max":1267,"o":"m 222 -32 l 222 -109 l 155 -109 l 155 325 l 764 325 l 764 -109 l 697 -109 l 697 -32 l 222 -32 m 920 170 l 920 1035 l 983 1035 l 983 170 l 920 170 m 1202 1090 l 1267 1090 l 1267 58 q 1244 -66 1267 -40 q 1156 -93 1222 -93 q 962 -86 1089 -93 l 961 -22 q 1133 -29 1085 -29 q 1191 -16 1180 -29 q 1202 60 1202 -3 l 1202 1090 m 493 484 l 843 484 l 843 427 l 77 427 l 77 484 l 427 484 l 427 615 l 142 615 l 142 669 l 427 669 l 427 796 l 184 796 l 184 851 l 427 851 l 427 966 l 153 966 l 153 791 l 89 791 l 89 1025 l 425 1025 l 425 1149 l 494 1149 l 494 1025 l 831 1025 l 831 791 l 766 791 l 766 966 l 493 966 l 493 851 l 733 851 l 733 796 l 493 796 l 493 669 l 777 669 l 777 615 l 493 615 l 493 484 m 697 26 l 697 267 l 222 267 l 222 26 l 697 26 z "},"創":{"ha":1389,"x_min":32,"x_max":1286,"o":"m 300 928 l 659 928 q 461 1064 553 991 q 300 928 399 1003 m 212 564 q 210 440 212 493 l 707 440 l 707 564 l 212 564 m 212 618 l 707 618 l 707 733 l 212 733 l 212 618 m 253 -45 l 253 -110 l 187 -110 l 187 243 q 83 -60 155 64 l 32 -16 q 147 582 147 195 l 147 789 l 775 789 l 775 385 l 205 385 q 195 290 204 356 l 787 290 l 787 -110 l 722 -110 l 722 -45 l 253 -45 m 899 170 l 899 1035 l 964 1035 l 964 170 l 899 170 m 1219 1090 l 1286 1090 l 1286 58 q 1264 -66 1286 -35 q 1172 -93 1237 -93 q 979 -86 1107 -93 l 979 -22 q 1150 -28 1103 -28 q 1208 -16 1198 -28 q 1219 60 1219 -4 l 1219 1090 m 672 872 l 290 872 l 290 920 q 61 766 186 840 l 43 831 q 419 1108 250 949 l 501 1108 q 833 900 655 988 l 806 844 q 672 918 746 873 l 672 872 m 722 11 l 722 235 l 253 235 l 253 11 l 722 11 z "},"劇":{"ha":1389,"x_min":36,"x_max":1280,"o":"m 183 616 q 90 -86 183 199 l 36 -39 q 119 650 119 230 l 119 926 l 378 926 l 378 1156 l 446 1156 l 446 1065 l 779 1065 l 779 1011 l 446 1011 l 446 928 l 833 928 l 833 871 q 743 720 793 785 l 688 753 q 762 871 727 804 l 407 871 l 407 768 l 664 818 l 675 765 l 407 713 l 407 676 q 425 627 407 633 q 557 619 450 619 l 623 619 q 669 623 646 619 q 724 631 706 623 q 743 643 741 640 q 745 652 744 646 q 751 668 747 658 q 755 694 755 678 q 757 726 755 709 l 819 721 q 814 650 817 666 q 800 614 811 633 q 780 590 789 595 q 732 575 770 585 q 581 568 672 568 q 433 570 490 568 q 357 601 376 571 q 345 673 345 620 l 345 701 l 183 669 l 183 616 m 345 871 l 183 871 l 183 725 l 345 755 l 345 871 m 914 170 l 914 1035 l 979 1035 l 979 170 l 914 170 m 1215 1090 l 1280 1090 l 1280 58 q 1258 -66 1280 -40 q 1170 -93 1236 -93 q 977 -86 1104 -93 l 975 -22 q 1146 -28 1099 -28 q 1204 -16 1194 -28 q 1215 60 1215 -4 l 1215 1090 m 521 -36 q 559 -18 551 -35 q 567 47 567 0 q 566 102 567 95 q 565 121 566 110 q 564 140 564 132 q 189 -62 435 24 l 170 -12 q 554 197 418 72 q 524 283 543 241 q 199 114 401 182 l 179 164 q 500 326 386 233 q 446 395 471 371 q 212 289 341 331 l 193 338 q 469 467 359 390 l 208 467 l 208 521 l 819 521 l 819 467 l 545 467 q 496 427 508 435 q 589 288 555 368 q 772 439 680 342 l 819 403 q 624 243 734 309 q 888 29 726 123 l 860 -26 q 623 167 724 57 q 628 54 628 132 q 611 -60 628 -24 q 533 -93 593 -93 q 366 -86 500 -93 l 363 -31 q 521 -36 441 -36 z "},"力":{"ha":1389,"x_min":146,"x_max":1211,"o":"m 554 1140 l 624 1140 q 619 914 624 1035 l 1211 914 q 1181 205 1211 405 q 1138 41 1169 98 q 1072 -35 1107 -16 q 960 -54 1031 -54 q 711 -39 888 -54 l 711 25 q 965 11 849 11 q 1067 61 1031 11 q 1141 851 1141 172 l 615 851 q 500 286 592 492 q 192 -79 403 81 l 146 -28 q 355 175 276 71 q 481 441 435 279 q 546 851 532 608 l 150 851 l 150 914 l 549 914 q 554 1140 554 1038 z "},"功":{"ha":1389,"x_min":61,"x_max":1295,"o":"m 296 929 l 72 929 l 72 989 l 590 989 l 590 929 l 364 929 l 364 241 q 596 326 498 281 l 608 268 q 69 107 418 178 l 61 168 q 296 222 189 192 l 296 929 m 810 1117 l 878 1117 q 871 831 878 990 l 1295 831 q 1286 342 1294 530 q 1252 61 1278 153 q 1196 -55 1226 -31 q 1094 -78 1165 -78 q 856 -64 1023 -78 l 857 -1 q 1073 -16 1024 -16 q 1141 -4 1122 -16 q 1176 50 1160 8 q 1227 770 1227 175 l 868 770 q 754 235 845 425 q 460 -103 663 45 l 412 -54 q 612 131 538 35 q 800 770 770 328 l 558 770 l 558 831 l 803 831 q 810 1117 810 990 z "},"加":{"ha":1389,"x_min":49,"x_max":1272,"o":"m 850 78 l 1206 78 l 1206 949 l 850 949 l 850 78 m 1272 1010 l 1272 -75 l 1206 -75 l 1206 17 l 850 17 l 850 -75 l 785 -75 l 785 1010 l 1272 1010 m 498 11 q 555 37 534 11 q 593 145 575 62 q 624 828 624 292 l 624 851 l 347 851 q 280 286 335 488 q 100 -78 225 84 l 49 -29 q 216 307 163 117 q 281 851 269 496 l 71 851 l 71 914 l 282 914 q 285 1140 285 1100 l 351 1140 q 350 914 351 960 l 690 914 l 690 865 q 672 252 690 475 q 618 -3 651 49 q 507 -54 586 -54 q 301 -40 429 -54 l 302 24 q 498 11 410 11 z "},"助":{"ha":1389,"x_min":60,"x_max":1295,"o":"m 222 664 l 222 392 l 536 392 l 536 664 l 222 664 m 222 720 l 536 720 l 536 979 l 222 979 l 222 720 m 536 335 l 222 335 l 222 41 q 536 138 355 77 l 536 335 m 155 1038 l 600 1038 l 600 160 l 679 189 l 688 131 q 69 -56 378 11 l 60 3 q 155 25 123 17 l 155 1038 m 913 -1 q 1099 -16 1057 -16 q 1158 -5 1142 -16 q 1210 175 1199 28 q 1227 770 1227 414 l 937 770 q 852 244 919 435 q 637 -102 782 50 l 582 -65 q 789 264 722 81 q 871 770 854 452 l 656 770 l 656 831 l 873 831 q 878 1117 878 916 l 946 1117 q 940 831 946 948 l 1295 831 q 1261 56 1295 213 q 1231 -31 1253 2 q 1190 -71 1213 -62 q 911 -64 1144 -87 l 913 -1 z "},"努":{"ha":1389,"x_min":72,"x_max":1335,"o":"m 454 682 q 611 950 571 801 l 335 950 q 241 770 296 859 q 454 682 366 726 m 708 -16 q 967 -28 884 -28 q 1078 -9 1050 -28 q 1126 92 1105 9 q 1152 330 1146 176 l 690 330 q 506 60 635 165 q 158 -107 377 -46 l 132 -49 q 449 96 331 7 q 619 330 567 186 l 170 330 l 170 387 l 637 387 q 659 496 649 428 l 726 492 q 708 387 722 446 l 1219 387 q 1190 76 1213 176 q 1127 -56 1166 -24 q 989 -86 1088 -87 q 707 -74 890 -86 l 708 -16 m 81 950 l 81 1010 l 290 1010 q 332 1137 313 1065 l 396 1128 q 357 1010 389 1101 l 676 1010 l 676 950 q 511 653 634 784 q 668 564 587 614 l 635 510 q 467 608 558 559 q 92 400 318 472 l 72 457 q 407 637 264 516 q 208 720 330 676 q 155 650 189 690 l 110 692 q 265 950 203 807 l 81 950 m 705 991 l 705 1051 l 1276 1051 l 1276 991 q 1047 667 1196 795 q 1335 482 1174 559 l 1310 425 q 997 627 1139 506 q 750 492 886 545 l 720 547 q 949 671 857 602 q 741 928 823 790 l 794 960 q 999 710 872 829 q 1207 991 1132 823 l 705 991 z "},"労":{"ha":1389,"x_min":121,"x_max":1260,"o":"m 977 -18 q 1046 -3 1021 -18 q 1120 214 1101 31 q 1135 488 1128 292 l 665 488 q 149 -100 610 57 l 121 -39 q 452 163 336 35 q 595 488 567 290 l 183 488 l 183 547 l 602 547 q 603 615 603 563 l 603 760 l 672 760 l 672 615 q 671 547 672 563 l 1206 547 q 1178 138 1200 279 q 1115 -37 1154 5 q 991 -79 1076 -79 q 693 -61 864 -79 l 693 0 q 977 -18 856 -18 m 253 1096 l 311 1125 q 443 908 383 1027 l 383 882 q 253 1096 329 986 m 574 1109 l 632 1139 q 757 925 702 1033 l 697 900 q 574 1109 633 1023 m 1193 821 l 196 821 l 196 582 l 129 582 l 129 879 l 905 879 q 1078 1136 1006 1010 l 1139 1114 q 983 879 1078 1006 l 1260 879 l 1260 582 l 1193 582 l 1193 821 z "},"効":{"ha":1389,"x_min":49,"x_max":1293,"o":"m 1225 799 l 945 799 q 859 252 926 452 q 636 -102 787 51 l 586 -54 q 798 281 730 94 q 879 799 863 469 l 693 799 l 693 859 l 880 859 q 886 1117 886 1017 l 951 1117 q 947 859 951 977 l 1293 859 q 1286 370 1293 571 q 1258 65 1280 168 q 1208 -56 1234 -34 q 1119 -77 1183 -77 q 909 -64 1055 -77 l 911 -1 q 1106 -16 1053 -16 q 1180 33 1160 -16 q 1225 799 1225 138 m 431 974 l 722 974 l 722 914 l 65 914 l 65 974 l 364 974 l 364 1129 l 431 1129 l 431 974 m 64 550 q 272 875 203 703 l 328 850 q 109 509 254 663 l 64 550 m 482 844 l 534 878 q 746 549 658 715 l 693 513 q 482 844 593 701 m 187 526 l 233 570 q 424 343 328 467 q 549 639 505 479 l 612 624 q 465 289 566 448 q 623 60 566 151 l 570 20 q 428 232 494 142 q 82 -103 276 14 l 49 -49 q 387 286 243 71 q 187 526 298 404 z "},"勇":{"ha":1389,"x_min":121,"x_max":1250,"o":"m 737 -14 q 1000 -26 924 -26 q 1107 -11 1077 -26 q 1153 64 1135 5 q 1177 249 1171 130 l 684 249 q 147 -107 567 -3 l 121 -50 q 611 249 498 39 l 127 249 l 127 309 l 637 309 q 659 403 653 361 l 201 403 l 201 878 l 566 878 q 359 962 487 912 l 403 1004 q 689 885 496 969 q 1082 1021 908 949 l 167 1021 l 167 1079 l 1217 1079 l 1217 1021 q 838 878 1122 971 l 1187 878 l 1187 403 l 725 403 q 705 309 722 363 l 1250 309 q 1223 61 1244 145 q 1162 -54 1203 -23 q 1021 -85 1122 -85 q 737 -74 920 -85 l 737 -14 m 1121 461 l 1121 619 l 728 619 l 728 461 l 1121 461 m 1121 673 l 1121 822 l 728 822 l 728 673 l 1121 673 m 268 822 l 268 673 l 661 673 l 661 822 l 268 822 m 268 619 l 268 461 l 661 461 l 661 619 l 268 619 z "},"勉":{"ha":1389,"x_min":39,"x_max":1326,"o":"m 439 760 l 439 468 l 628 468 l 628 760 l 439 760 m 191 468 l 374 468 l 374 760 l 191 760 l 191 468 m 486 990 l 268 990 q 192 818 229 890 l 395 818 q 486 990 450 911 m 893 157 q 1072 143 1021 143 q 1139 158 1122 143 q 1192 441 1177 201 q 1197 814 1197 625 l 942 814 q 858 355 924 525 q 648 50 792 186 l 599 90 q 739 256 683 168 q 876 814 854 449 l 707 814 l 707 873 l 879 873 q 885 1117 885 1021 l 950 1117 q 946 873 950 985 l 1264 873 q 1258 439 1264 671 q 1231 203 1249 275 q 1185 102 1213 121 q 1093 83 1158 83 q 893 96 1028 83 l 893 157 m 831 -86 l 736 -86 q 604 -84 675 -85 q 493 -64 532 -83 q 454 16 454 -45 l 454 410 l 349 410 q 275 102 345 236 q 89 -106 206 -31 l 54 -49 q 220 139 164 23 q 283 410 279 255 l 125 410 l 125 707 q 81 644 118 696 l 39 699 q 252 1153 189 898 l 315 1143 q 289 1048 300 1082 l 555 1048 l 555 990 q 468 818 525 918 l 692 818 l 692 410 l 521 410 l 521 39 q 541 -11 521 2 q 646 -25 563 -23 l 739 -25 q 831 -26 799 -26 l 1100 -24 q 1193 -8 1151 -24 q 1219 11 1202 -8 q 1238 37 1236 30 l 1241 52 q 1261 216 1253 102 l 1326 212 q 1316 80 1319 111 q 1297 14 1312 49 q 1272 -39 1287 -23 q 1215 -68 1257 -54 q 1143 -81 1173 -81 q 831 -86 1092 -86 z "},"動":{"ha":1389,"x_min":64,"x_max":1304,"o":"m 449 533 l 657 533 l 657 664 l 449 664 l 449 533 m 449 350 l 657 350 l 657 481 l 449 481 l 449 350 m 178 481 l 178 350 l 380 350 l 380 481 l 178 481 m 178 533 l 380 533 l 380 664 l 178 664 l 178 533 m 79 872 l 380 872 l 380 997 q 107 979 236 984 l 104 1038 q 713 1105 414 1048 l 722 1046 q 449 1004 609 1023 l 449 872 l 730 872 l 730 831 l 909 831 q 914 1117 914 981 l 978 1117 q 974 831 978 962 l 1304 831 l 1304 790 q 1297 314 1304 456 q 1272 56 1293 146 q 1231 -56 1257 -33 q 1154 -78 1208 -78 q 975 -64 1099 -78 l 977 0 q 1146 -14 1092 -14 q 1197 31 1181 -14 q 1238 751 1238 128 l 1238 770 l 972 770 q 910 245 959 437 q 754 -100 861 54 l 700 -65 q 846 262 800 77 q 907 770 892 446 l 718 770 l 718 817 l 449 817 l 449 718 l 720 718 l 720 296 l 449 296 l 449 187 l 720 187 l 720 132 l 449 132 l 449 4 q 710 41 562 18 l 715 -16 q 68 -92 385 -71 l 64 -32 q 380 -4 222 -22 l 380 132 l 92 132 l 92 187 l 380 187 l 380 296 l 113 296 l 113 718 l 380 718 l 380 817 l 79 817 l 79 872 z "},"務":{"ha":1389,"x_min":54,"x_max":1332,"o":"m 999 724 q 1168 971 1116 835 l 825 971 q 999 724 894 825 m 1267 400 q 1253 97 1267 213 q 1203 -42 1236 -4 q 1105 -80 1171 -80 q 914 -66 1040 -80 l 916 -7 q 1081 -20 1032 -20 q 1153 4 1130 -20 q 1200 339 1200 54 l 926 339 q 524 -100 840 35 l 490 -46 q 730 114 640 21 q 859 339 819 209 l 583 339 l 583 400 l 872 400 q 888 543 886 468 l 956 543 q 940 400 954 468 l 1267 400 m 652 669 l 652 608 q 497 334 585 450 l 447 367 q 586 608 530 477 l 419 608 l 419 69 q 404 -65 419 -38 q 321 -93 389 -92 q 167 -86 301 -93 l 165 -25 q 315 -31 289 -31 q 347 -18 340 -31 q 354 68 354 -4 l 354 500 q 90 75 244 254 l 54 132 q 340 608 222 321 l 78 608 l 78 669 l 382 669 q 161 904 261 806 l 203 945 q 359 783 276 876 q 566 1006 473 884 l 106 1006 l 106 1065 l 642 1065 l 642 1006 q 400 737 545 871 l 460 669 l 652 669 m 1318 1031 l 1318 971 l 1235 971 q 1046 682 1177 805 q 1332 519 1177 576 l 1310 460 q 997 640 1131 523 q 650 460 854 522 l 629 518 q 951 684 814 574 q 778 926 846 789 q 616 715 705 804 l 568 754 q 810 1136 730 920 l 871 1124 q 832 1031 853 1077 l 1318 1031 z "},"勝":{"ha":1389,"x_min":45,"x_max":1352,"o":"m 186 692 l 186 547 q 183 400 186 522 l 375 400 l 375 692 l 186 692 m 186 750 l 375 750 l 375 1017 l 186 1017 l 186 750 m 790 619 l 1026 619 q 956 799 987 699 l 863 799 q 790 619 827 694 m 229 -25 q 327 -31 291 -31 q 370 -20 363 -31 q 375 58 375 -9 l 375 342 l 180 342 q 100 -104 166 71 l 45 -60 q 104 199 87 61 q 121 576 121 338 l 121 1076 l 439 1076 l 439 58 q 427 -68 439 -43 q 357 -93 414 -92 q 229 -86 338 -93 l 229 -25 m 847 504 l 913 504 q 900 363 913 434 l 1193 363 q 1059 559 1130 433 l 758 559 q 619 363 696 448 l 836 363 q 847 504 847 427 m 478 559 l 478 619 l 718 619 q 794 799 753 685 l 505 799 l 505 859 l 654 859 q 555 1065 615 948 l 615 1090 q 724 859 675 972 l 814 859 q 865 1140 853 988 l 932 1137 q 882 859 918 986 l 1082 859 q 1185 1089 1149 996 l 1247 1071 q 1153 859 1206 962 l 1305 859 l 1305 799 l 1022 799 q 1096 619 1057 695 l 1336 619 l 1336 559 l 1129 559 q 1352 301 1225 394 l 1325 239 q 1214 339 1265 283 q 1198 59 1211 148 q 1156 -58 1184 -30 q 1075 -87 1127 -87 q 909 -79 1023 -87 l 911 -20 q 1051 -26 1015 -26 q 1106 -9 1088 -26 q 1135 85 1123 7 q 1147 302 1147 164 l 888 302 q 521 -107 810 12 l 489 -53 q 822 302 755 62 l 604 302 l 604 346 q 488 243 556 294 l 449 297 q 685 559 588 396 l 478 559 z "},"募":{"ha":1389,"x_min":56,"x_max":1333,"o":"m 286 692 l 286 590 l 1103 590 l 1103 692 l 286 692 m 286 745 l 1103 745 l 1103 847 l 286 847 l 286 745 m 646 376 l 713 376 q 697 269 713 326 l 1078 269 q 847 407 930 342 l 507 407 q 301 269 420 333 l 629 269 q 646 376 646 319 m 479 900 l 909 900 l 909 979 l 479 979 l 479 900 m 90 407 l 90 463 l 481 463 q 557 536 525 503 l 218 536 l 218 900 l 412 900 l 412 979 l 90 979 l 90 1035 l 412 1035 l 412 1149 l 479 1149 l 479 1035 l 909 1035 l 909 1149 l 977 1149 l 977 1035 l 1299 1035 l 1299 979 l 977 979 l 977 900 l 1171 900 l 1171 536 l 637 536 q 570 463 593 487 l 1299 463 l 1299 407 l 949 407 q 1333 228 1092 317 l 1308 171 q 1139 241 1197 214 q 1097 -24 1131 37 q 966 -86 1063 -86 q 730 -74 869 -86 l 730 -16 q 930 -28 864 -28 q 1016 -13 997 -28 q 1047 52 1035 2 q 1067 212 1061 101 l 675 212 q 170 -113 567 -15 l 143 -57 q 603 212 498 24 l 264 212 l 264 250 q 81 171 178 208 l 56 228 q 411 407 271 307 l 90 407 z "},"勢":{"ha":1389,"x_min":69,"x_max":1364,"o":"m 684 842 l 513 842 l 513 761 q 522 735 513 738 q 585 732 530 732 q 652 746 639 731 q 667 823 665 761 l 729 819 q 701 703 726 726 q 589 680 677 680 q 475 690 500 680 q 449 747 449 701 l 449 842 l 345 842 q 86 615 309 686 l 69 672 q 283 842 250 728 l 79 842 l 79 897 l 357 897 l 357 990 l 136 990 l 136 1044 l 357 1044 l 357 1136 l 425 1136 l 425 1044 l 653 1044 l 653 990 l 425 990 l 425 897 l 684 897 l 684 842 m 669 621 l 669 567 l 425 567 l 425 458 q 686 494 523 469 l 690 436 q 86 366 478 400 l 82 425 q 357 450 266 441 l 357 567 l 131 567 l 131 621 l 357 621 l 357 722 l 425 722 l 425 621 l 669 621 m 901 935 l 901 946 l 703 946 l 703 1004 l 901 1004 l 901 1136 l 965 1136 l 965 1004 l 1213 1004 q 1225 640 1213 776 q 1249 472 1238 505 q 1272 439 1260 439 q 1283 457 1279 439 q 1312 642 1300 496 l 1364 623 q 1331 434 1358 511 q 1263 357 1303 357 q 1236 363 1249 357 q 1203 403 1222 370 q 1175 494 1188 434 q 1147 946 1151 680 l 965 946 l 965 928 q 942 694 965 799 q 1122 509 1027 618 l 1082 463 q 924 629 993 564 q 739 372 872 471 l 693 422 q 871 675 826 522 q 745 770 804 732 l 782 815 q 886 741 833 783 q 901 935 901 821 m 639 392 l 705 392 q 694 302 705 353 l 1242 302 q 1190 -14 1234 61 q 1128 -72 1164 -58 q 1002 -86 1093 -86 q 729 -74 912 -86 l 729 -14 q 992 -26 916 -26 q 1099 -11 1069 -26 q 1168 243 1157 23 l 676 243 q 150 -113 579 -8 l 122 -56 q 607 243 512 34 l 136 243 l 136 302 l 628 302 q 639 392 639 353 z "},"勤":{"ha":1389,"x_min":64,"x_max":1305,"o":"m 176 561 l 385 561 l 385 749 l 176 749 l 176 561 m 660 561 l 660 749 l 453 749 l 453 561 l 660 561 m 770 997 l 770 939 l 602 939 l 602 839 l 536 839 l 536 939 l 294 939 l 294 839 l 228 839 l 228 939 l 65 939 l 65 997 l 228 997 l 228 1128 l 294 1128 l 294 997 l 536 997 l 536 1128 l 602 1128 l 602 997 l 770 997 m 385 392 l 385 505 l 113 505 l 113 804 l 720 804 l 720 831 l 911 831 q 914 1117 914 973 l 979 1117 q 975 831 979 962 l 1305 831 l 1305 790 q 1300 314 1305 542 q 1275 56 1292 147 q 1232 -57 1255 -36 q 1155 -78 1210 -78 q 977 -64 1100 -78 l 978 0 q 1147 -14 1093 -14 q 1200 31 1181 -14 q 1239 751 1239 138 l 1239 770 l 974 770 q 910 247 959 440 q 755 -100 861 54 l 701 -65 q 848 261 802 79 q 908 770 894 443 l 722 770 l 722 505 l 453 505 l 453 392 l 724 392 l 724 336 l 453 336 l 453 205 l 694 205 l 694 150 l 453 150 l 453 4 q 710 41 570 18 l 715 -16 q 68 -92 385 -71 l 64 -32 q 385 -3 210 -22 l 385 150 l 118 150 l 118 205 l 385 205 l 385 336 l 92 336 l 92 392 l 385 392 z "},"勧":{"ha":1389,"x_min":22,"x_max":1305,"o":"m 414 340 l 204 340 l 204 220 l 414 220 l 414 340 m 204 511 l 204 395 l 414 395 l 414 511 l 204 511 m 1239 751 l 1239 770 l 972 770 q 901 244 958 439 q 728 -102 844 49 l 673 -64 q 840 263 787 81 q 907 770 892 446 l 742 770 l 742 831 l 909 831 q 914 1117 914 981 l 979 1117 q 975 831 979 962 l 1305 831 l 1305 790 q 1300 314 1305 542 q 1275 56 1292 147 q 1232 -57 1255 -36 q 1155 -78 1210 -78 q 977 -64 1100 -78 l 978 0 q 1147 -14 1093 -14 q 1200 31 1181 -14 q 1239 751 1239 138 m 60 736 l 60 794 l 285 794 q 342 962 317 871 l 211 962 q 115 832 170 890 l 60 863 q 231 1150 168 984 l 292 1135 q 243 1022 275 1084 l 692 1022 l 692 962 l 406 962 q 351 794 385 876 l 703 794 l 703 736 l 326 736 q 229 570 282 646 l 422 570 q 486 708 457 629 l 545 693 q 489 570 521 631 l 693 570 l 693 511 l 475 511 l 475 395 l 679 395 l 679 340 l 475 340 l 475 220 l 679 220 l 679 165 l 475 165 l 475 37 l 693 37 l 693 -18 l 204 -18 l 204 -104 l 139 -104 l 139 454 q 53 364 99 408 l 22 424 q 257 736 174 571 l 60 736 m 204 37 l 414 37 l 414 165 l 204 165 l 204 37 z "},"包":{"ha":1389,"x_min":40,"x_max":1274,"o":"m 1134 317 q 1122 297 1134 317 q 1053 277 1111 277 q 848 283 994 277 l 847 345 q 1031 338 979 338 q 1081 373 1063 338 q 1139 933 1121 454 l 335 933 q 89 555 231 702 l 40 602 q 345 1161 252 826 l 411 1149 q 359 994 393 1080 l 1208 994 q 1178 514 1198 700 q 1134 317 1157 358 m 236 114 l 236 452 l 825 452 l 825 733 l 283 733 l 283 791 l 892 791 l 892 392 l 306 392 l 306 115 q 319 4 306 22 q 688 -24 347 -24 q 929 -20 845 -24 q 1025 -16 1013 -16 l 1102 -3 q 1128 9 1111 -3 q 1152 27 1146 22 q 1168 59 1157 33 q 1179 91 1179 85 q 1181 103 1180 96 q 1184 123 1183 110 q 1191 165 1187 136 q 1196 205 1195 195 q 1198 217 1198 214 l 1201 247 q 1206 289 1204 274 l 1274 273 q 1234 41 1257 106 q 1203 -22 1219 -5 q 1150 -55 1187 -40 q 1092 -71 1114 -70 q 980 -79 1070 -73 q 715 -87 890 -87 q 415 -80 541 -87 q 261 -45 289 -73 q 236 114 236 -16 z "},"化":{"ha":1389,"x_min":52,"x_max":1310,"o":"m 370 -115 l 301 -115 l 301 660 q 90 368 210 497 l 52 425 q 429 1120 321 715 l 492 1107 q 370 772 450 930 l 370 -115 m 684 1101 l 753 1101 l 753 608 q 1257 940 1008 725 l 1299 892 q 753 539 1029 660 l 753 106 q 762 -2 753 14 q 962 -29 779 -29 q 1099 -24 1045 -29 q 1211 33 1195 -14 q 1244 353 1230 79 l 1310 347 q 1306 271 1309 316 q 1302 197 1303 227 q 1270 -9 1296 59 q 1242 -47 1257 -37 q 1173 -78 1211 -69 q 1093 -84 1164 -78 q 962 -91 1023 -91 q 703 -47 733 -92 q 684 100 684 -15 l 684 1101 z "},"北":{"ha":1389,"x_min":71,"x_max":1312,"o":"m 458 1116 l 526 1116 l 526 -115 l 458 -115 l 458 220 q 86 96 262 141 l 71 157 q 458 286 256 204 l 458 743 l 87 743 l 87 804 l 458 804 l 458 1116 m 789 100 l 789 1116 l 859 1116 l 859 615 q 1258 939 1058 728 l 1303 893 q 859 542 1082 661 l 859 107 q 865 1 859 19 q 1025 -28 876 -27 q 1135 -22 1094 -28 q 1223 33 1208 -14 q 1249 353 1238 86 l 1312 347 l 1308 239 q 1301 149 1305 211 q 1289 29 1297 87 q 1264 -39 1276 -17 q 1241 -60 1249 -56 q 1219 -69 1233 -65 q 1189 -78 1202 -78 q 1057 -90 1143 -90 q 895 -83 970 -90 q 804 -47 821 -76 q 789 100 788 -19 z "},"匹":{"ha":1389,"x_min":115,"x_max":1287,"o":"m 1083 351 l 1025 351 q 848 370 883 351 q 812 476 812 389 l 812 964 l 558 964 q 536 600 559 718 q 456 408 513 482 q 268 249 400 332 l 231 301 q 330 370 299 347 q 447 525 419 444 q 490 783 484 614 q 493 964 493 849 l 183 964 l 183 92 l 1287 92 l 1287 31 l 183 31 l 183 -62 l 115 -62 l 115 1025 l 1287 1025 l 1287 964 l 878 964 l 878 486 q 880 450 878 457 q 911 416 880 422 l 1026 412 q 1162 457 1142 412 q 1187 764 1181 502 l 1251 760 q 1250 653 1250 711 q 1237 475 1241 509 q 1217 408 1233 441 q 1173 367 1185 368 q 1134 358 1160 365 q 1083 351 1108 351 z "},"区":{"ha":1389,"x_min":155,"x_max":1272,"o":"m 1258 1072 l 1258 1011 l 225 1011 l 225 18 l 1272 18 l 1272 -43 l 225 -43 l 225 -115 l 155 -115 l 155 1072 l 1258 1072 m 385 819 l 425 869 q 811 575 621 745 q 1075 940 960 745 l 1132 905 q 861 529 1011 701 q 1214 174 1017 389 l 1165 131 q 818 482 976 335 q 338 85 595 238 l 296 138 q 770 526 548 285 q 385 819 601 680 z "},"医":{"ha":1389,"x_min":142,"x_max":1286,"o":"m 269 521 l 269 581 l 732 581 l 732 848 l 481 848 q 329 650 412 733 l 277 685 q 493 1018 411 823 l 208 1018 l 208 11 l 1286 11 l 1286 -50 l 208 -50 l 208 -115 l 142 -115 l 142 1079 l 1272 1079 l 1272 1018 l 561 1018 q 511 905 531 943 l 1193 905 l 1193 848 l 799 848 l 799 581 l 1257 581 l 1257 521 l 803 521 q 942 278 826 388 q 1251 103 1059 170 l 1221 49 q 936 205 1050 106 q 766 428 817 304 q 595 205 715 304 q 304 49 476 106 l 275 103 q 589 278 469 169 q 728 521 705 388 l 269 521 z "},"十":{"ha":1389,"x_min":77,"x_max":1312,"o":"m 77 561 l 659 561 l 659 1118 l 730 1118 l 730 561 l 1312 561 l 1312 497 l 730 497 l 730 -118 l 659 -118 l 659 497 l 77 497 l 77 561 z "},"千":{"ha":1389,"x_min":79,"x_max":1310,"o":"m 191 986 q 1194 1105 732 986 l 1208 1044 q 729 956 980 986 l 729 546 l 1310 546 l 1310 482 l 729 482 l 729 -115 l 660 -115 l 660 482 l 79 482 l 79 546 l 660 546 l 660 947 q 191 924 424 924 l 191 986 z "},"午":{"ha":1389,"x_min":77,"x_max":1312,"o":"m 1312 479 l 1312 418 l 760 418 l 760 -115 l 690 -115 l 690 418 l 77 418 l 77 479 l 690 479 l 690 920 l 353 920 q 146 559 271 727 l 90 597 q 361 1135 272 840 l 427 1121 q 378 979 405 1048 l 1246 979 l 1246 920 l 760 920 l 760 479 l 1312 479 z "},"半":{"ha":1389,"x_min":77,"x_max":1312,"o":"m 253 1050 q 473 703 355 910 l 414 675 q 193 1021 307 864 l 253 1050 m 1197 1025 q 974 673 1113 848 l 917 704 q 1135 1050 1050 869 l 1197 1025 m 1312 317 l 1312 256 l 729 256 l 729 -115 l 660 -115 l 660 256 l 77 256 l 77 317 l 660 317 l 660 566 l 118 566 l 118 625 l 660 625 l 660 1116 l 729 1116 l 729 625 l 1271 625 l 1271 566 l 729 566 l 729 317 l 1312 317 z "},"卒":{"ha":1389,"x_min":65,"x_max":1324,"o":"m 965 717 q 1308 429 1154 598 l 1265 382 q 935 661 1122 540 q 765 450 859 535 l 725 497 q 964 901 912 672 l 1026 892 q 965 717 1006 806 m 82 432 q 400 903 336 619 l 464 892 q 404 718 440 791 q 665 497 547 624 l 624 452 q 375 664 519 567 q 118 380 281 498 l 82 432 m 660 441 l 729 441 l 729 311 l 1324 311 l 1324 252 l 729 252 l 729 -117 l 660 -117 l 660 252 l 65 252 l 65 311 l 660 311 l 660 441 m 1303 928 l 86 928 l 86 986 l 660 986 l 660 1129 l 729 1129 l 729 986 l 1303 986 l 1303 928 z "},"卓":{"ha":1389,"x_min":66,"x_max":1322,"o":"m 293 519 l 293 335 l 1096 335 l 1096 519 l 293 519 m 293 575 l 1096 575 l 1096 749 l 293 749 l 293 575 m 715 1141 l 715 999 l 1271 999 l 1271 942 l 715 942 l 715 806 l 1164 806 l 1164 278 l 729 278 l 729 136 l 1322 136 l 1322 79 l 729 79 l 729 -142 l 660 -142 l 660 79 l 66 79 l 66 136 l 660 136 l 660 278 l 225 278 l 225 806 l 646 806 l 646 1141 l 715 1141 z "},"協":{"ha":1389,"x_min":39,"x_max":1304,"o":"m 808 1141 l 875 1141 q 864 1023 875 1076 l 1265 1023 q 1208 675 1265 720 q 1119 647 1179 647 q 899 654 1059 647 l 897 714 q 1089 707 1042 707 q 1156 722 1137 707 q 1196 962 1196 753 l 847 962 q 449 619 765 724 l 415 675 q 775 962 696 762 l 440 962 l 440 1023 l 794 1023 q 808 1141 808 1086 m 399 807 l 399 747 l 250 747 l 250 -115 l 183 -115 l 183 747 l 39 747 l 39 807 l 183 807 l 183 1116 l 250 1116 l 250 807 l 399 807 m 490 604 l 554 604 q 553 475 554 501 l 799 475 q 791 113 799 190 q 779 3 784 35 q 758 -50 773 -28 q 722 -78 742 -71 q 529 -72 701 -85 l 529 -11 q 654 -18 623 -18 q 696 -9 686 -18 q 730 172 723 14 q 733 416 733 283 l 550 416 q 494 106 540 222 q 361 -103 454 -10 l 314 -58 q 433 126 395 23 q 486 416 474 224 l 334 416 l 334 475 l 489 475 q 490 604 490 501 m 983 604 l 1047 604 q 1046 475 1047 501 l 1304 475 q 1297 117 1304 191 q 1284 6 1291 42 q 1263 -50 1278 -30 q 1227 -78 1248 -71 q 1022 -72 1206 -85 l 1022 -11 q 1153 -19 1116 -19 q 1200 -9 1190 -19 q 1222 43 1211 0 q 1239 416 1239 134 l 1043 416 q 989 106 1034 231 q 854 -103 942 -16 l 806 -58 q 925 126 887 23 q 978 416 966 224 l 838 416 l 838 475 l 981 475 q 983 604 983 578 z "},"南":{"ha":1389,"x_min":79,"x_max":1310,"o":"m 1100 -39 q 1177 -26 1164 -39 q 1189 50 1189 -14 l 1189 762 l 200 762 l 200 -106 l 135 -106 l 135 822 l 661 822 l 661 966 l 79 966 l 79 1025 l 661 1025 l 661 1136 l 728 1136 l 728 1025 l 1310 1025 l 1310 966 l 728 966 l 728 822 l 1254 822 l 1254 52 q 1232 -75 1255 -50 q 1109 -100 1208 -99 q 908 -93 1105 -100 l 907 -32 q 1100 -39 1099 -39 m 1108 460 l 1108 403 l 728 403 l 728 224 l 1096 224 l 1096 167 l 728 167 l 728 -90 l 661 -90 l 661 167 l 293 167 l 293 224 l 661 224 l 661 403 l 281 403 l 281 460 l 532 460 q 440 693 488 592 l 498 713 q 599 460 560 578 l 790 460 q 893 717 852 577 l 953 700 q 859 460 913 567 l 1108 460 z "},"単":{"ha":1389,"x_min":62,"x_max":1326,"o":"m 243 652 l 660 652 l 660 838 l 243 838 l 243 652 m 660 399 l 660 595 l 243 595 l 243 399 l 660 399 m 729 399 l 1146 399 l 1146 595 l 729 595 l 729 399 m 1213 897 l 1213 339 l 729 339 l 729 176 l 1326 176 l 1326 115 l 729 115 l 729 -122 l 660 -122 l 660 115 l 62 115 l 62 176 l 660 176 l 660 339 l 176 339 l 176 897 l 370 897 q 252 1104 315 1004 l 311 1132 q 443 897 382 1025 l 692 897 q 572 1118 637 1013 l 632 1145 q 764 897 708 1022 l 924 897 q 1076 1141 1019 1029 l 1137 1121 q 1000 897 1082 1017 l 1213 897 m 1146 652 l 1146 838 l 729 838 l 729 652 l 1146 652 z "},"博":{"ha":1389,"x_min":32,"x_max":1344,"o":"m 822 611 l 509 611 l 509 461 l 822 461 l 822 611 m 892 611 l 892 461 l 1200 461 l 1200 611 l 892 611 m 822 664 l 822 803 l 509 803 l 509 664 l 822 664 m 892 664 l 1200 664 l 1200 803 l 892 803 l 892 664 m 386 800 l 386 741 l 243 741 l 243 -115 l 176 -115 l 176 741 l 32 741 l 32 800 l 176 800 l 176 1116 l 243 1116 l 243 800 l 386 800 m 1079 256 l 351 256 l 351 314 l 1079 314 l 1079 406 l 443 406 l 443 859 l 822 859 l 822 951 l 351 951 l 351 1010 l 822 1010 l 822 1129 l 892 1129 l 892 1010 l 1160 1010 q 1023 1108 1086 1068 l 1067 1152 q 1239 1025 1164 1086 l 1222 1010 l 1344 1010 l 1344 951 l 892 951 l 892 859 l 1267 859 l 1267 406 l 1147 406 l 1147 314 l 1344 314 l 1344 256 l 1147 256 l 1147 37 q 1128 -76 1147 -53 q 1021 -100 1109 -99 q 829 -93 989 -100 l 828 -32 q 1021 -38 979 -38 q 1072 -28 1063 -38 q 1079 39 1080 -19 l 1079 256 m 505 168 l 542 218 q 800 26 692 126 l 760 -22 q 505 168 653 75 z "},"占":{"ha":1389,"x_min":195,"x_max":1260,"o":"m 262 37 l 1126 37 l 1126 478 l 262 478 l 262 37 m 618 539 l 618 1129 l 688 1129 l 688 928 l 1260 928 l 1260 865 l 688 865 l 688 539 l 1194 539 l 1194 -115 l 1126 -115 l 1126 -24 l 262 -24 l 262 -115 l 195 -115 l 195 539 l 618 539 z "},"印":{"ha":1389,"x_min":123,"x_max":1267,"o":"m 925 144 q 1123 139 1066 139 q 1190 149 1180 139 q 1198 228 1199 159 l 1198 997 l 779 997 l 779 -111 l 711 -111 l 711 1057 l 1267 1057 l 1267 227 q 1245 100 1267 124 q 1148 77 1223 77 q 926 82 1073 77 l 925 144 m 192 582 l 192 193 l 627 193 l 627 134 l 192 134 l 192 -1 l 123 -1 l 123 997 q 619 1111 368 1034 l 636 1051 q 192 946 408 981 l 192 643 l 612 643 l 612 582 l 192 582 z "},"危":{"ha":1389,"x_min":61,"x_max":1301,"o":"m 734 831 q 892 1004 815 909 l 437 1004 q 306 831 380 913 l 734 831 m 1204 -73 q 834 -100 1143 -100 q 494 -65 525 -100 q 471 45 471 -43 l 471 616 l 1125 616 q 1059 228 1103 283 q 986 203 1034 203 q 745 215 894 203 l 745 273 q 966 261 882 261 q 1006 277 991 260 q 1031 355 1021 293 q 1054 559 1044 421 l 539 559 l 539 53 q 552 -19 540 -8 q 771 -38 574 -38 q 1020 -35 968 -38 q 1099 -31 1072 -33 q 1145 -25 1126 -30 l 1169 -17 q 1190 1 1176 -18 q 1204 25 1203 20 q 1214 71 1204 30 q 1223 121 1223 113 l 1234 197 l 1301 191 q 1283 64 1287 92 q 1267 0 1279 35 q 1246 -46 1255 -35 q 1204 -73 1238 -58 m 972 1063 l 972 1004 q 823 831 913 924 l 1280 831 l 1280 772 l 285 772 l 285 603 q 245 218 285 388 q 117 -102 205 49 l 66 -54 q 183 249 148 88 q 218 636 218 410 l 218 743 q 92 642 168 694 l 61 700 q 444 1154 323 890 l 509 1139 q 471 1063 493 1101 l 972 1063 z "},"即":{"ha":1389,"x_min":41,"x_max":1275,"o":"m 197 794 l 602 794 l 602 1006 l 197 1006 l 197 794 m 197 511 l 602 511 l 602 739 l 197 739 l 197 511 m 129 1065 l 667 1065 l 667 453 l 197 453 l 197 50 q 558 158 379 92 q 425 349 515 224 l 481 380 q 734 -16 619 197 l 679 -45 q 590 107 627 48 q 52 -41 321 7 l 41 18 l 129 35 l 129 1065 m 945 144 q 1140 139 1086 139 q 1203 150 1194 139 q 1210 228 1210 161 l 1210 1004 l 844 1004 l 844 -111 l 779 -111 l 779 1065 l 1275 1065 l 1275 227 q 1257 100 1275 123 q 1158 77 1238 77 q 947 83 1139 77 l 945 144 z "},"卵":{"ha":1389,"x_min":52,"x_max":1278,"o":"m 844 -111 l 781 -111 l 781 1057 l 1278 1057 l 1278 225 q 1257 100 1278 124 q 1167 75 1237 75 q 951 82 1097 75 l 949 144 q 1143 138 1093 138 q 1203 148 1194 138 q 1213 227 1213 158 l 1213 997 l 844 997 l 844 -111 m 558 549 l 558 924 l 623 924 l 623 542 q 521 96 623 243 q 153 -136 419 -50 l 121 -79 q 414 75 316 -16 q 541 328 511 165 q 66 157 293 218 l 52 218 l 139 243 l 139 997 q 639 1111 375 1031 l 657 1051 q 204 946 425 982 l 204 262 q 550 396 358 311 q 558 549 558 465 m 899 774 l 953 806 q 1175 385 1093 590 l 1118 358 q 899 774 1029 577 m 250 804 l 302 838 q 511 488 427 669 l 456 458 q 250 804 373 639 z "},"厚":{"ha":1389,"x_min":60,"x_max":1322,"o":"m 1200 503 l 368 503 l 368 922 l 1200 922 l 1200 503 m 433 688 l 433 557 l 1133 557 l 1133 688 l 433 688 m 433 741 l 1133 741 l 1133 867 l 433 867 l 433 741 m 235 1013 l 235 610 q 113 -93 235 184 l 60 -49 q 170 643 170 219 l 170 1072 l 1297 1072 l 1297 1013 l 235 1013 m 785 40 l 785 143 l 258 143 l 258 201 l 785 201 l 785 262 l 829 262 q 1093 358 967 300 l 335 358 l 335 414 l 1200 414 l 1200 358 q 854 218 1044 271 l 854 201 l 1322 201 l 1322 143 l 854 143 l 854 37 q 831 -70 854 -47 q 738 -93 808 -93 q 507 -86 667 -93 l 505 -28 q 711 -35 659 -35 q 774 -25 762 -35 q 785 40 785 -12 z "},"原":{"ha":1389,"x_min":60,"x_max":1308,"o":"m 440 590 l 440 415 l 1133 415 l 1133 590 l 440 590 m 440 644 l 1133 644 l 1133 807 l 440 807 l 440 644 m 256 -5 q 530 309 431 124 l 586 278 q 301 -52 484 83 l 256 -5 m 956 265 l 1004 307 q 1308 -25 1171 161 l 1257 -62 q 956 265 1115 126 m 235 616 q 113 -86 235 191 l 60 -41 q 170 650 170 227 l 170 1065 l 1297 1065 l 1297 1006 l 815 1006 q 777 864 797 924 l 1200 864 l 1200 358 l 842 358 l 842 57 q 821 -69 842 -45 q 711 -93 799 -94 q 533 -86 679 -93 l 532 -25 q 713 -31 673 -31 q 765 -20 754 -31 q 775 57 775 -9 l 775 358 l 375 358 l 375 864 l 704 864 q 746 1006 734 949 l 235 1006 l 235 616 z "},"厳":{"ha":1389,"x_min":36,"x_max":1340,"o":"m 1057 218 q 1179 653 1147 370 l 921 653 l 900 590 l 953 600 q 1057 218 973 367 m 372 392 l 372 262 l 659 262 l 659 392 l 372 392 m 372 446 l 659 446 l 659 570 l 372 570 l 372 446 m 659 208 l 372 208 l 372 58 q 659 104 465 72 l 659 208 m 210 908 l 210 603 q 89 -100 210 178 l 36 -56 q 144 636 144 214 l 144 966 l 393 966 q 290 1111 347 1038 l 349 1141 q 469 966 416 1054 l 717 966 q 611 1126 650 1074 l 669 1156 q 791 966 729 1074 l 981 966 q 1101 1152 1048 1058 l 1161 1129 q 1059 966 1118 1050 l 1299 966 l 1299 908 l 210 908 m 1312 711 l 1312 653 l 1240 653 q 1093 161 1204 332 q 1340 -50 1179 43 l 1308 -103 q 1054 107 1141 -7 q 782 -103 956 -12 l 749 -52 q 1017 161 924 41 q 893 572 920 315 q 793 353 848 452 l 742 386 q 916 869 858 590 l 975 860 q 939 711 965 808 l 1312 711 m 309 570 l 233 570 l 233 627 l 484 627 l 484 761 l 279 761 l 279 817 l 758 817 l 758 761 l 550 761 l 550 627 l 800 627 l 800 570 l 724 570 l 724 -122 l 659 -122 l 659 47 q 207 -20 410 3 l 201 37 l 309 50 l 309 570 z "},"去":{"ha":1389,"x_min":90,"x_max":1299,"o":"m 90 525 l 90 586 l 660 586 l 660 886 l 187 886 l 187 947 l 660 947 l 660 1117 l 729 1117 l 729 947 l 1202 947 l 1202 886 l 729 886 l 729 586 l 1299 586 l 1299 525 l 636 525 q 418 14 541 254 q 1117 83 749 37 q 916 355 1010 238 l 972 390 q 1297 -68 1159 159 l 1238 -100 q 1154 28 1204 -43 q 138 -61 609 -47 l 134 0 q 338 9 312 8 q 562 525 463 248 l 90 525 z "},"参":{"ha":1389,"x_min":64,"x_max":1325,"o":"m 258 410 q 892 561 651 448 l 916 509 q 272 350 665 389 l 258 410 m 262 179 q 1054 378 763 222 l 1079 325 q 277 119 783 163 l 262 179 m 262 -50 q 1206 193 863 -3 l 1232 139 q 277 -110 891 -58 l 262 -50 m 83 650 l 83 708 l 529 708 q 647 850 599 774 q 168 828 379 833 l 165 886 q 342 892 199 887 q 494 1139 418 998 l 557 1120 q 419 895 485 987 q 1023 939 739 911 q 900 1054 908 1047 l 951 1092 q 1243 811 1137 923 l 1190 772 q 1078 886 1101 863 q 725 856 919 870 q 618 708 690 785 l 1305 708 l 1305 650 l 913 650 q 1325 437 1080 515 l 1308 378 q 819 650 1008 473 l 558 650 q 81 383 367 481 l 64 443 q 461 650 289 517 l 83 650 z "},"友":{"ha":1389,"x_min":52,"x_max":1321,"o":"m 90 911 l 90 971 l 443 971 q 456 1143 454 1063 l 524 1140 q 511 971 522 1082 l 1299 971 l 1299 911 l 504 911 q 468 717 490 812 l 1175 717 l 1175 657 q 842 203 1064 387 q 1321 -25 1030 61 l 1300 -85 q 790 163 989 7 q 271 -85 576 3 l 250 -25 q 739 205 538 60 q 461 581 557 366 l 519 607 q 790 244 618 391 q 1104 657 996 412 l 453 657 q 102 -61 347 248 l 52 -20 q 436 911 359 368 l 90 911 z "},"双":{"ha":1389,"x_min":41,"x_max":1348,"o":"m 669 977 l 669 1039 l 1312 1039 l 1312 977 q 1018 286 1244 573 q 1348 -32 1147 90 l 1314 -92 q 975 233 1109 33 q 517 -92 789 20 l 484 -33 q 937 292 751 73 q 737 911 785 543 l 802 925 q 981 346 843 590 q 1244 977 1185 614 l 669 977 m 90 977 l 90 1039 l 629 1039 l 629 977 q 494 471 598 711 q 669 212 590 346 l 618 171 q 464 403 554 281 q 77 -43 315 101 l 41 17 q 419 461 279 162 q 123 782 276 644 l 167 831 q 449 529 303 710 q 564 977 531 728 l 90 977 z "},"反":{"ha":1389,"x_min":75,"x_max":1297,"o":"m 229 652 l 229 1065 l 1244 1065 l 1244 1004 l 296 1004 l 296 750 l 1166 750 l 1166 692 q 833 201 1055 397 q 1297 -33 1022 54 l 1272 -92 q 782 158 981 1 q 290 -92 578 -2 l 264 -33 q 730 201 530 47 q 435 603 540 372 l 497 629 q 782 243 604 399 q 1096 692 983 417 l 296 692 l 296 619 q 126 -85 296 195 l 75 -37 q 229 652 229 226 z "},"収":{"ha":1389,"x_min":33,"x_max":1348,"o":"m 138 1007 l 201 1007 l 201 204 q 463 292 336 245 l 463 1116 l 529 1116 l 529 -115 l 463 -115 l 463 228 q 43 100 239 142 l 33 161 q 138 186 86 172 l 138 1007 m 586 970 l 586 1031 l 1305 1031 l 1305 970 q 1007 245 1236 538 q 1348 -40 1143 74 l 1315 -98 q 964 193 1105 16 q 591 -98 808 14 l 557 -43 q 922 248 762 60 q 673 904 729 516 l 739 917 q 965 300 791 550 q 1239 970 1175 574 l 586 970 z "},"取":{"ha":1389,"x_min":52,"x_max":1348,"o":"m 222 476 l 586 476 l 586 721 l 222 721 l 222 476 m 586 419 l 222 419 l 222 154 q 586 218 387 178 l 586 419 m 586 1004 l 222 1004 l 222 777 l 586 777 l 586 1004 m 718 951 l 718 1004 l 654 1004 l 654 -121 l 586 -121 l 586 157 q 57 72 311 102 l 52 132 q 157 146 134 142 l 157 1004 l 66 1004 l 66 1065 l 736 1065 l 736 1013 l 1299 1013 l 1299 951 q 1053 268 1223 542 q 1348 -28 1168 95 l 1312 -83 q 1015 211 1138 39 q 720 -83 890 33 l 682 -28 q 977 271 853 85 q 757 885 825 515 l 821 899 q 1014 330 880 560 q 1232 951 1164 585 l 718 951 z "},"受":{"ha":1389,"x_min":100,"x_max":1289,"o":"m 697 755 q 596 960 652 861 q 357 949 551 956 q 456 755 399 877 l 697 755 m 1219 699 l 170 699 l 170 471 l 102 471 l 102 755 l 387 755 q 288 947 342 852 l 171 947 l 167 1007 q 1215 1100 746 1007 l 1229 1040 q 663 965 972 988 q 765 755 717 868 l 942 755 q 1051 986 1004 869 l 1112 970 q 1013 755 1070 862 l 1287 755 l 1287 471 l 1219 471 l 1219 699 m 261 503 l 261 561 l 1095 561 l 1095 503 q 754 154 966 296 q 1289 -26 999 16 l 1271 -86 q 694 117 964 -43 q 118 -86 442 -37 l 100 -26 q 635 154 388 13 q 347 415 460 270 l 399 453 q 693 191 509 308 q 1021 503 905 326 l 261 503 z "},"口":{"ha":1389,"x_min":155,"x_max":1234,"o":"m 225 64 l 1162 64 l 1162 961 l 225 961 l 225 64 m 155 1022 l 1234 1022 l 1234 -89 l 1162 -89 l 1162 4 l 225 4 l 225 -89 l 155 -89 l 155 1022 z "},"古":{"ha":1389,"x_min":79,"x_max":1310,"o":"m 290 50 l 1099 50 l 1099 476 l 290 476 l 290 50 m 1310 851 l 729 851 l 729 539 l 1166 539 l 1166 -103 l 1099 -103 l 1099 -11 l 290 -11 l 290 -103 l 222 -103 l 222 539 l 660 539 l 660 851 l 79 851 l 79 913 l 660 913 l 660 1129 l 729 1129 l 729 913 l 1310 913 l 1310 851 z "},"句":{"ha":1389,"x_min":40,"x_max":1263,"o":"m 421 310 l 844 310 l 844 697 l 421 697 l 421 310 m 421 253 l 421 142 l 354 142 l 354 754 l 911 754 l 911 253 l 421 253 m 1072 -74 q 775 -61 956 -74 l 774 0 q 1050 -12 937 -12 q 1103 19 1084 -12 q 1171 431 1148 95 q 1194 920 1185 653 l 328 920 q 89 555 226 696 l 40 602 q 345 1161 252 826 l 411 1149 q 354 981 391 1075 l 1263 981 q 1168 -11 1237 121 q 1072 -74 1136 -74 z "},"叫":{"ha":1389,"x_min":117,"x_max":1354,"o":"m 184 97 l 449 97 l 449 975 l 184 975 l 184 97 m 184 37 l 184 -56 l 117 -56 l 117 1038 l 515 1038 l 515 37 l 184 37 m 697 1007 l 764 1007 l 764 215 q 1125 310 979 265 l 1125 1116 l 1192 1116 l 1192 329 q 1346 378 1231 340 l 1354 317 q 1192 265 1324 307 l 1192 -115 l 1125 -115 l 1125 244 q 557 109 850 163 l 551 170 l 697 200 l 697 1007 z "},"召":{"ha":1389,"x_min":96,"x_max":1219,"o":"m 311 35 l 1078 35 l 1078 392 l 311 392 l 311 35 m 311 -24 l 311 -102 l 243 -102 l 243 450 l 1146 450 l 1146 -102 l 1078 -102 l 1078 -24 l 311 -24 m 151 1051 l 1219 1051 q 1203 743 1219 846 q 1146 598 1187 640 q 1024 556 1105 556 q 765 564 943 556 l 765 624 q 1006 616 945 616 q 1095 642 1067 616 q 1133 747 1121 668 q 1149 990 1149 827 l 671 990 q 486 675 639 821 q 117 458 338 528 l 96 521 q 431 711 287 581 q 603 990 570 844 l 151 990 l 151 1051 z "},"可":{"ha":1389,"x_min":85,"x_max":1304,"o":"m 310 267 l 310 155 l 241 155 l 241 789 l 833 789 l 833 267 l 310 267 m 310 322 l 766 322 l 766 732 l 310 732 l 310 322 m 794 -14 q 1025 -21 983 -21 q 1080 -8 1067 -21 q 1093 68 1093 5 l 1093 997 l 85 997 l 85 1059 l 1304 1059 l 1304 997 l 1161 997 l 1161 71 q 1136 -56 1161 -31 q 1011 -79 1110 -79 q 930 -76 1004 -79 q 796 -72 857 -73 l 794 -14 z "},"台":{"ha":1389,"x_min":66,"x_max":1337,"o":"m 304 -37 l 304 -115 l 236 -115 l 236 473 l 1153 473 l 1153 -115 l 1084 -115 l 1084 -37 l 304 -37 m 1084 22 l 1084 414 l 304 414 l 304 22 l 1084 22 m 900 936 l 950 977 q 1337 559 1163 775 l 1286 518 q 1162 664 1217 603 q 69 595 609 610 l 66 656 q 254 663 225 661 q 545 1137 410 874 l 608 1112 q 338 667 485 871 q 1111 720 691 682 q 900 936 983 859 z "},"史":{"ha":1389,"x_min":87,"x_max":1301,"o":"m 663 629 l 663 928 l 245 928 l 245 553 l 660 553 q 663 629 663 619 m 180 493 l 180 989 l 663 989 l 663 1136 l 732 1136 l 732 989 l 1208 989 l 1208 399 l 1141 399 l 1141 493 l 725 493 q 625 189 707 311 q 1301 -20 908 -3 l 1293 -81 q 587 139 887 -64 q 102 -81 447 -23 l 87 -21 q 533 178 404 35 q 321 392 418 264 l 374 429 q 572 228 458 317 q 656 493 640 330 l 180 493 m 1141 553 l 1141 928 l 732 928 l 732 629 q 729 553 732 619 l 1141 553 z "},"右":{"ha":1389,"x_min":53,"x_max":1295,"o":"m 435 36 l 1137 36 l 1137 490 l 435 490 l 435 36 m 1206 551 l 1206 -102 l 1137 -102 l 1137 -24 l 435 -24 l 435 -102 l 366 -102 l 366 444 q 93 153 243 266 l 53 205 q 327 498 207 323 q 511 885 447 673 l 94 885 l 94 946 l 528 946 q 568 1145 553 1040 l 636 1139 q 599 946 618 1026 l 1295 946 l 1295 885 l 581 885 q 439 551 525 705 l 1206 551 z "},"号":{"ha":1389,"x_min":83,"x_max":1305,"o":"m 1150 679 l 239 679 l 239 1072 l 1150 1072 l 1150 679 m 307 734 l 1082 734 l 1082 1013 l 307 1013 l 307 734 m 1029 -81 q 932 -86 1008 -86 q 657 -74 856 -86 l 656 -12 q 928 -25 854 -25 q 1021 -7 1001 -25 q 1092 307 1060 26 l 353 307 q 264 118 304 193 l 200 140 q 350 503 287 298 l 83 503 l 83 564 l 1305 564 l 1305 503 l 421 503 q 375 366 412 470 l 1171 366 q 1147 157 1160 260 q 1104 -14 1133 55 q 1029 -81 1076 -71 z "},"司":{"ha":1389,"x_min":118,"x_max":1234,"o":"m 330 174 l 861 174 l 861 524 l 330 524 l 330 174 m 1165 69 l 1165 1004 l 118 1004 l 118 1065 l 1234 1065 l 1234 69 q 1208 -56 1234 -33 q 1084 -81 1185 -81 q 868 -74 1076 -81 l 868 -12 q 1100 -19 1058 -19 q 1154 -7 1142 -19 q 1165 69 1165 5 m 264 581 l 928 581 l 928 117 l 330 117 l 330 5 l 264 5 l 264 581 m 184 764 l 184 823 l 1017 823 l 1017 764 l 184 764 z "},"各":{"ha":1389,"x_min":75,"x_max":1325,"o":"m 703 663 q 1040 956 914 787 l 444 956 q 390 893 418 924 q 703 663 524 761 m 704 595 q 309 428 541 505 l 1104 428 q 704 595 868 507 m 1122 -103 l 1054 -103 l 1054 -28 l 335 -28 l 335 -103 l 267 -103 l 267 414 q 90 363 220 399 l 75 425 q 642 629 428 519 q 346 850 477 723 q 103 660 225 735 l 75 717 q 494 1143 355 895 l 558 1125 q 489 1015 522 1062 l 1120 1015 l 1120 956 q 765 631 983 764 q 1325 424 979 524 l 1307 364 q 1122 421 1166 406 l 1122 -103 m 1054 29 l 1054 371 l 335 371 l 335 29 l 1054 29 z "},"合":{"ha":1389,"x_min":81,"x_max":1308,"o":"m 304 26 l 1084 26 l 1084 408 l 304 408 l 304 26 m 1153 468 l 1153 -110 l 1084 -110 l 1084 -31 l 304 -31 l 304 -110 l 236 -110 l 236 468 l 1153 468 m 81 710 q 652 1122 397 884 l 737 1122 q 1308 710 991 884 l 1279 653 q 694 1075 952 831 q 110 653 437 831 l 81 710 m 313 656 l 313 714 l 1076 714 l 1076 656 l 313 656 z "},"同":{"ha":1389,"x_min":136,"x_max":1253,"o":"m 463 126 l 463 16 l 399 16 l 399 593 l 990 593 l 990 126 l 463 126 m 463 182 l 926 182 l 926 538 l 463 538 l 463 182 m 1186 1018 l 203 1018 l 203 -92 l 136 -92 l 136 1079 l 1253 1079 l 1253 71 q 1229 -54 1253 -30 q 1108 -79 1205 -79 q 1028 -76 1101 -79 q 893 -72 955 -73 l 892 -11 q 1122 -18 1082 -18 q 1173 -7 1161 -18 q 1186 71 1185 5 l 1186 1018 m 322 778 l 322 836 l 1067 836 l 1067 778 l 322 778 z "},"名":{"ha":1389,"x_min":69,"x_max":1260,"o":"m 534 399 l 534 35 l 1192 35 l 1192 399 l 534 399 m 1260 457 l 1260 -102 l 1192 -102 l 1192 -24 l 534 -24 l 534 -102 l 468 -102 l 468 380 q 87 248 298 301 l 69 304 q 676 567 412 392 q 436 803 556 696 l 484 846 q 730 604 604 739 q 1043 962 970 777 l 503 962 q 144 714 371 835 l 115 766 q 582 1152 427 933 l 636 1121 q 559 1023 604 1074 l 1114 1023 l 1114 962 q 933 694 1063 827 q 615 457 795 559 l 1260 457 z "},"后":{"ha":1389,"x_min":61,"x_max":1295,"o":"m 436 35 l 1136 35 l 1136 440 l 436 440 l 436 35 m 262 749 l 1295 749 l 1295 689 l 262 689 l 262 637 q 114 -75 262 216 l 61 -29 q 197 660 197 250 l 197 991 q 1194 1092 700 991 l 1208 1032 q 262 932 738 936 l 262 749 m 1136 -102 l 1136 -24 l 436 -24 l 436 -102 l 370 -102 l 370 498 l 1204 498 l 1204 -102 l 1136 -102 z "},"向":{"ha":1389,"x_min":127,"x_max":1261,"o":"m 478 228 l 478 117 l 412 117 l 412 697 l 977 697 l 977 228 l 478 228 m 478 285 l 911 285 l 911 640 l 478 640 l 478 285 m 1192 886 l 197 886 l 197 -92 l 127 -92 l 127 947 l 530 947 q 644 1154 603 1066 l 710 1139 q 606 947 667 1052 l 1261 947 l 1261 71 q 1237 -54 1261 -29 q 1116 -79 1213 -79 q 1038 -77 1107 -79 q 900 -72 968 -74 l 899 -11 q 1118 -18 1069 -18 q 1179 -7 1166 -18 q 1192 71 1191 5 l 1192 886 z "},"君":{"ha":1389,"x_min":54,"x_max":1312,"o":"m 1111 599 l 1111 782 l 615 782 q 554 599 592 690 l 1111 599 m 1111 840 l 1111 1013 l 659 1013 q 629 840 649 933 l 1111 840 m 444 22 l 1137 22 l 1137 336 l 444 336 l 444 22 m 1137 -102 l 1137 -35 l 444 -35 l 444 -102 l 378 -102 l 378 310 q 90 56 256 155 l 54 113 q 454 542 317 271 l 184 542 l 184 599 l 481 599 q 546 782 515 675 l 77 782 l 77 840 l 561 840 q 591 1013 578 919 l 212 1013 l 212 1069 l 1178 1069 l 1178 840 l 1312 840 l 1312 782 l 1178 782 l 1178 542 l 529 542 q 444 393 493 469 l 1206 393 l 1206 -102 l 1137 -102 z "},"否":{"ha":1389,"x_min":74,"x_max":1317,"o":"m 304 -17 l 304 -96 l 236 -96 l 236 441 l 1153 441 l 1153 -96 l 1084 -96 l 1084 -17 l 304 -17 m 107 997 l 107 1059 l 1282 1059 l 1282 997 l 825 997 q 729 899 777 943 l 729 481 l 660 481 l 660 840 q 102 513 450 667 l 74 570 q 743 997 528 769 l 107 997 m 821 843 q 1317 567 1088 718 l 1283 514 q 791 790 1065 661 l 821 843 m 1084 40 l 1084 382 l 304 382 l 304 40 l 1084 40 z "},"含":{"ha":1389,"x_min":60,"x_max":1329,"o":"m 737 1128 q 1329 762 995 924 l 1304 707 q 694 1082 967 867 q 85 707 422 867 l 60 762 q 652 1128 394 924 l 737 1128 m 397 796 l 397 856 l 991 856 l 991 796 l 397 796 m 239 607 l 239 667 l 1136 667 l 1136 607 q 958 403 1044 485 l 1171 403 l 1171 -114 l 1103 -114 l 1103 -36 l 286 -36 l 286 -114 l 218 -114 l 218 403 l 867 403 q 1055 607 963 491 l 239 607 m 1103 24 l 1103 345 l 286 345 l 286 24 l 1103 24 z "},"吸":{"ha":1389,"x_min":109,"x_max":1358,"o":"m 172 93 l 375 93 l 375 975 l 172 975 l 172 93 m 1017 264 q 1249 664 1166 431 l 1029 664 q 993 590 1023 650 l 940 621 q 1083 1004 1037 812 l 720 1004 q 1017 264 793 556 m 484 1004 l 484 1065 l 1147 1065 l 1147 1004 q 1054 722 1114 867 l 1312 722 l 1312 664 q 1055 215 1227 403 q 1358 -43 1180 65 l 1328 -98 q 1011 168 1140 14 q 602 -100 839 -2 l 570 -46 q 972 216 806 52 q 707 779 793 450 q 410 -97 667 217 l 361 -56 q 427 32 393 -16 l 172 32 l 172 -60 l 109 -60 l 109 1038 l 437 1038 l 437 50 q 652 1004 648 379 l 484 1004 z "},"吹":{"ha":1389,"x_min":111,"x_max":1329,"o":"m 178 135 l 437 135 l 437 975 l 178 975 l 178 135 m 111 -18 l 111 1038 l 501 1038 l 501 593 q 713 1133 646 823 l 777 1124 q 741 974 758 1036 l 1305 974 l 1305 913 q 1117 543 1241 703 l 1064 578 q 1240 913 1176 718 l 721 913 q 550 550 654 709 l 501 579 l 501 74 l 178 74 l 178 -18 l 111 -18 m 848 602 l 848 819 l 914 819 l 914 602 q 1033 225 914 404 q 1329 -28 1152 46 l 1303 -87 q 1047 106 1165 -31 q 882 404 933 241 q 717 106 833 244 q 458 -87 597 -31 l 431 -28 q 729 227 610 46 q 848 602 848 407 z "},"告":{"ha":1389,"x_min":90,"x_max":1299,"o":"m 321 33 l 1068 33 l 1068 370 l 321 370 l 321 33 m 1219 968 l 1219 909 l 745 909 l 745 612 l 1299 612 l 1299 553 l 90 553 l 90 612 l 675 612 l 675 909 l 325 909 q 161 671 252 773 l 106 707 q 342 1121 258 886 l 407 1103 q 353 968 383 1035 l 675 968 l 675 1128 l 745 1128 l 745 968 l 1219 968 m 1136 -102 l 1068 -102 l 1068 -24 l 321 -24 l 321 -102 l 253 -102 l 253 428 l 1136 428 l 1136 -102 z "},"周":{"ha":1389,"x_min":32,"x_max":1268,"o":"m 468 77 l 468 -3 l 403 -3 l 403 468 l 1048 468 l 1048 77 l 468 77 m 468 132 l 983 132 l 983 412 l 468 412 l 468 132 m 693 1019 l 252 1019 l 252 546 q 212 157 251 309 q 86 -109 172 6 l 32 -65 q 149 185 114 45 q 183 566 183 325 l 183 1079 l 1268 1079 l 1268 56 q 1244 -70 1268 -45 q 1121 -94 1219 -94 q 918 -87 1115 -94 l 917 -28 q 1112 -35 1109 -35 q 1189 -22 1179 -35 q 1202 54 1202 -12 l 1202 1019 l 760 1019 l 760 885 l 1092 885 l 1092 829 l 760 829 l 760 632 l 1128 632 l 1128 576 l 323 576 l 323 632 l 693 632 l 693 829 l 361 829 l 361 885 l 693 885 l 693 1019 z "},"味":{"ha":1389,"x_min":110,"x_max":1341,"o":"m 176 135 l 383 135 l 383 975 l 176 975 l 176 135 m 176 74 l 176 -18 l 110 -18 l 110 1038 l 447 1038 l 447 74 l 176 74 m 1312 596 l 1312 536 l 968 536 q 1341 25 1087 273 l 1300 -32 q 933 479 1057 211 l 933 -129 l 865 -129 l 865 484 q 449 -32 732 218 l 403 16 q 831 536 692 265 l 497 536 l 497 596 l 865 596 l 865 880 l 522 880 l 522 942 l 865 942 l 865 1129 l 933 1129 l 933 942 l 1292 942 l 1292 880 l 933 880 l 933 596 l 1312 596 z "},"呼":{"ha":1389,"x_min":110,"x_max":1340,"o":"m 176 121 l 383 121 l 383 975 l 176 975 l 176 121 m 176 60 l 176 -32 l 110 -32 l 110 1038 l 447 1038 l 447 60 l 176 60 m 957 432 l 1340 432 l 1340 371 l 957 371 l 957 58 q 935 -66 958 -39 q 842 -93 911 -93 q 629 -86 773 -93 l 628 -25 q 817 -32 765 -32 q 879 -18 868 -32 q 890 57 890 -5 l 890 371 l 489 371 l 489 432 l 890 432 l 890 960 q 519 935 740 944 l 510 996 q 1292 1092 985 1012 l 1305 1032 q 957 968 1172 996 l 957 432 m 597 857 q 751 542 671 732 l 693 519 q 541 832 619 694 l 597 857 m 1293 893 q 1131 518 1232 703 l 1072 543 q 1232 913 1179 739 l 1293 893 z "},"命":{"ha":1389,"x_min":60,"x_max":1329,"o":"m 221 32 l 221 -52 l 155 -52 l 155 643 l 628 643 l 628 32 l 221 32 m 562 92 l 562 583 l 221 583 l 221 92 l 562 92 m 908 94 q 1106 89 1049 89 q 1173 99 1163 89 q 1183 178 1183 109 l 1183 599 l 822 599 l 822 -106 l 754 -106 l 754 657 l 1249 657 l 1249 178 q 1226 53 1248 77 q 1130 28 1204 28 q 909 33 1055 28 l 908 94 m 737 1128 q 1329 762 995 924 l 1304 707 q 694 1082 967 867 q 85 707 422 867 l 60 762 q 652 1128 394 924 l 737 1128 m 353 766 l 353 828 l 1036 828 l 1036 766 l 353 766 z "},"和":{"ha":1389,"x_min":39,"x_max":1293,"o":"m 789 11 l 789 -82 l 724 -82 l 724 1031 l 1293 1031 l 1293 -82 l 1225 -82 l 1225 11 l 789 11 m 1225 71 l 1225 970 l 789 970 l 789 71 l 1225 71 m 671 718 l 671 657 l 422 657 q 694 267 552 475 l 643 228 q 400 591 519 417 l 400 -115 l 335 -115 l 335 555 q 81 111 249 317 l 39 164 q 311 657 231 398 l 60 657 l 60 718 l 335 718 l 335 994 q 89 966 217 978 l 83 1023 q 642 1107 325 1043 l 657 1050 q 400 1003 488 1015 l 400 718 l 671 718 z "},"咲":{"ha":1389,"x_min":103,"x_max":1333,"o":"m 170 132 l 372 132 l 372 977 l 170 977 l 170 132 m 170 72 l 170 -21 l 103 -21 l 103 1038 l 436 1038 l 436 72 l 170 72 m 482 450 l 482 511 l 856 511 q 859 566 859 559 l 859 811 l 498 811 l 498 872 l 750 872 q 604 1101 671 1008 l 661 1129 q 810 895 735 1026 l 760 872 l 978 872 q 1131 1128 1071 1005 l 1192 1105 q 1054 872 1144 1008 l 1295 872 l 1295 811 l 926 811 l 926 566 q 928 511 926 524 l 1318 511 l 1318 450 l 935 450 q 1333 -36 990 126 l 1300 -94 q 1043 95 1147 -23 q 892 361 939 213 q 717 94 838 208 q 418 -94 600 -23 l 383 -36 q 697 164 576 39 q 847 450 816 291 l 482 450 z "},"品":{"ha":1389,"x_min":114,"x_max":1275,"o":"m 1090 595 l 298 595 l 298 1078 l 1090 1078 l 1090 595 m 182 -39 l 182 -103 l 114 -103 l 114 481 l 625 481 l 625 -103 l 558 -103 l 558 -39 l 182 -39 m 831 -39 l 831 -103 l 764 -103 l 764 481 l 1275 481 l 1275 -103 l 1207 -103 l 1207 -39 l 831 -39 m 1021 652 l 1021 1018 l 368 1018 l 368 652 l 1021 652 m 558 18 l 558 422 l 182 422 l 182 18 l 558 18 m 1207 18 l 1207 422 l 831 422 l 831 18 l 1207 18 z "},"員":{"ha":1389,"x_min":94,"x_max":1297,"o":"m 307 876 l 1082 876 l 1082 1019 l 307 1019 l 307 876 m 1150 822 l 239 822 l 239 1079 l 1150 1079 l 1150 822 m 1206 127 l 183 127 l 183 743 l 1206 743 l 1206 127 m 253 315 l 253 183 l 1136 183 l 1136 315 l 253 315 m 253 501 l 253 370 l 1136 370 l 1136 501 l 253 501 m 253 555 l 1136 555 l 1136 686 l 253 686 l 253 555 m 94 -50 q 529 114 379 22 l 558 62 q 117 -107 408 -33 l 94 -50 m 833 54 l 854 107 q 1297 -65 1122 25 l 1267 -119 q 833 54 1086 -26 z "},"哲":{"ha":1389,"x_min":77,"x_max":1324,"o":"m 1324 865 l 1324 808 l 1139 808 l 1139 453 l 1071 453 l 1071 808 l 766 808 q 694 590 748 673 q 541 435 648 512 l 493 481 q 669 690 622 570 q 717 1061 717 810 q 1250 1117 1038 1074 l 1265 1057 q 781 1004 1072 1019 q 774 865 779 919 l 1324 865 m 306 25 l 1083 25 l 1083 332 l 306 332 l 306 25 m 621 991 l 621 933 l 403 933 l 403 765 q 619 802 576 793 l 625 746 q 403 707 490 720 l 403 536 q 382 460 403 475 q 315 444 362 444 q 142 452 269 444 l 140 510 q 286 503 250 503 q 330 509 323 503 q 336 547 336 516 l 336 697 q 81 668 218 682 l 77 725 q 336 755 222 739 l 336 933 l 78 933 l 78 991 l 336 991 l 336 1116 l 403 1116 l 403 991 l 621 991 m 1152 390 l 1152 -96 l 1083 -96 l 1083 -31 l 306 -31 l 306 -96 l 237 -96 l 237 390 l 1152 390 z "},"唱":{"ha":1389,"x_min":93,"x_max":1308,"o":"m 158 93 l 361 93 l 361 975 l 158 975 l 158 93 m 158 32 l 158 -60 l 93 -60 l 93 1038 l 424 1038 l 424 32 l 158 32 m 600 864 l 1203 864 l 1203 1019 l 600 1019 l 600 864 m 600 642 l 1203 642 l 1203 808 l 600 808 l 600 642 m 1270 586 l 536 586 l 536 1078 l 1270 1078 l 1270 586 m 564 17 l 1240 17 l 1240 201 l 564 201 l 564 17 m 564 -37 l 564 -103 l 497 -103 l 497 488 l 1308 488 l 1308 -103 l 1240 -103 l 1240 -37 l 564 -37 m 1240 257 l 1240 431 l 564 431 l 564 257 l 1240 257 z "},"商":{"ha":1389,"x_min":79,"x_max":1310,"o":"m 468 40 l 468 -26 l 403 -26 l 403 404 l 986 404 l 986 40 l 468 40 m 468 96 l 921 96 l 921 349 l 468 349 l 468 96 m 814 799 q 946 972 890 880 l 446 972 q 533 799 486 902 l 814 799 m 1187 741 l 831 741 l 831 603 q 846 534 830 545 q 978 524 863 524 q 1187 529 1093 524 l 1187 741 m 1109 -94 q 997 -89 1067 -94 q 908 -86 964 -89 l 907 -28 q 1109 -35 1053 -35 q 1175 -22 1165 -35 q 1187 54 1187 -12 l 1187 472 q 956 467 1085 467 q 796 487 827 467 q 765 589 765 507 l 765 741 l 581 741 q 509 519 581 595 q 249 380 437 440 l 220 435 q 456 551 397 489 q 517 741 517 612 l 201 741 l 201 -106 l 135 -106 l 135 799 l 460 799 q 370 972 409 910 l 79 972 l 79 1029 l 661 1029 l 661 1150 l 728 1150 l 728 1029 l 1310 1029 l 1310 972 l 1021 972 q 899 799 967 876 l 1254 799 l 1254 57 q 1231 -69 1254 -44 q 1109 -94 1208 -94 z "},"問":{"ha":1389,"x_min":114,"x_max":1275,"o":"m 182 814 l 182 650 l 567 650 l 567 814 l 182 814 m 182 869 l 567 869 l 567 1021 l 182 1021 l 182 869 m 1207 814 l 808 814 l 808 650 l 1207 650 l 1207 814 m 1207 869 l 1207 1021 l 808 1021 l 808 869 l 1207 869 m 475 66 l 475 -11 l 410 -11 l 410 471 l 979 471 l 979 66 l 475 66 m 114 -98 l 114 1079 l 633 1079 l 633 595 l 182 595 l 182 -98 l 114 -98 m 742 595 l 742 1079 l 1275 1079 l 1275 64 q 1249 -61 1275 -36 q 1125 -86 1223 -86 q 925 -79 1113 -86 l 924 -20 q 1143 -26 1107 -26 q 1194 -14 1180 -26 q 1207 62 1207 -1 l 1207 595 l 742 595 m 914 123 l 914 414 l 475 414 l 475 123 l 914 123 z "},"善":{"ha":1389,"x_min":83,"x_max":1305,"o":"m 293 -52 l 293 -115 l 222 -115 l 222 261 l 1166 261 l 1166 -115 l 1096 -115 l 1096 -52 l 293 -52 m 659 401 l 659 589 l 83 589 l 83 647 l 659 647 l 659 775 l 220 775 l 220 831 l 659 831 l 659 960 l 138 960 l 138 1018 l 453 1018 q 378 1133 407 1091 l 440 1157 q 529 1018 489 1086 l 857 1018 q 947 1156 905 1080 l 1011 1133 q 939 1018 974 1070 l 1251 1018 l 1251 960 l 730 960 l 730 831 l 1169 831 l 1169 775 l 730 775 l 730 647 l 1305 647 l 1305 589 l 730 589 l 730 401 l 917 401 q 1011 543 970 465 l 1075 522 q 1000 401 1040 456 l 1305 401 l 1305 342 l 83 342 l 83 401 l 396 401 q 315 521 352 475 l 376 546 q 475 401 431 475 l 659 401 m 1096 5 l 1096 204 l 293 204 l 293 5 l 1096 5 z "},"喜":{"ha":1389,"x_min":77,"x_max":1312,"o":"m 322 541 l 1067 541 l 1067 675 l 322 675 l 322 541 m 838 372 q 921 489 888 431 l 473 489 q 542 372 499 448 l 838 372 m 293 -52 l 293 -115 l 222 -115 l 222 239 l 1166 239 l 1166 -115 l 1096 -115 l 1096 -52 l 293 -52 m 1299 978 l 730 978 l 730 856 l 1219 856 l 1219 799 l 170 799 l 170 856 l 659 856 l 659 978 l 90 978 l 90 1038 l 659 1038 l 659 1147 l 730 1147 l 730 1038 l 1299 1038 l 1299 978 m 77 311 l 77 372 l 465 372 q 395 489 434 431 l 252 489 l 252 726 l 1137 726 l 1137 489 l 996 489 q 921 372 957 418 l 1312 372 l 1312 311 l 77 311 m 1096 5 l 1096 182 l 293 182 l 293 5 l 1096 5 z "},"喫":{"ha":1389,"x_min":89,"x_max":1337,"o":"m 153 93 l 342 93 l 342 975 l 153 975 l 153 93 m 153 32 l 153 -60 l 89 -60 l 89 1038 l 404 1038 l 404 32 l 153 32 m 621 737 l 461 737 l 461 793 l 621 793 l 621 946 l 436 946 l 436 1002 l 621 1002 l 621 1122 l 688 1122 l 688 1002 l 871 1002 l 871 946 l 688 946 l 688 793 l 851 793 l 851 737 l 688 737 l 688 579 q 856 629 788 606 l 861 575 q 444 461 668 511 l 439 517 q 621 561 586 552 l 621 737 m 886 1006 l 886 1065 l 1318 1065 q 1270 522 1318 597 q 1188 485 1249 485 q 1040 497 1127 485 l 1040 557 q 1174 545 1122 545 q 1218 575 1203 545 q 1253 1006 1253 659 l 1089 1006 q 1027 677 1085 818 q 871 471 970 536 l 831 518 q 972 703 921 574 q 1026 1006 1024 831 l 886 1006 m 436 289 l 436 349 l 832 349 l 832 461 l 900 461 l 900 357 q 901 349 901 353 l 1324 349 l 1324 289 l 913 289 q 1060 96 947 183 q 1337 -32 1173 9 l 1320 -92 q 1040 36 1162 -52 q 868 232 921 124 q 692 36 815 125 q 411 -92 568 -53 l 393 -32 q 671 95 557 9 q 819 289 785 180 l 436 289 z "},"営":{"ha":1389,"x_min":104,"x_max":1284,"o":"m 376 534 l 1013 534 l 1013 765 l 376 765 l 376 534 m 300 -31 l 300 -109 l 232 -109 l 232 355 l 581 355 q 629 479 611 418 l 309 479 l 309 822 l 1080 822 l 1080 479 l 701 479 q 654 355 679 410 l 1157 355 l 1157 -109 l 1089 -109 l 1089 -31 l 300 -31 m 300 25 l 1089 25 l 1089 297 l 300 297 l 300 25 m 1217 908 l 172 908 l 172 648 l 104 648 l 104 966 l 355 966 q 254 1111 322 1022 l 311 1141 q 432 966 378 1054 l 679 966 q 574 1126 609 1080 l 632 1156 q 754 966 692 1074 l 958 966 q 1078 1152 1020 1048 l 1139 1129 q 1035 966 1097 1054 l 1284 966 l 1284 648 l 1217 648 l 1217 908 z "},"器":{"ha":1389,"x_min":71,"x_max":1318,"o":"m 241 764 l 581 764 l 581 1022 l 241 1022 l 241 764 m 808 764 l 1147 764 l 1147 1022 l 808 1022 l 808 764 m 1213 710 l 746 710 l 746 1078 l 1213 1078 l 1213 710 m 90 546 l 90 606 l 539 606 q 621 710 588 656 l 176 710 l 176 1078 l 643 1078 l 643 741 l 701 725 q 624 606 668 658 l 1299 606 l 1299 546 l 907 546 q 1318 329 1072 408 l 1301 268 q 1185 313 1265 279 l 1185 -103 l 1121 -103 l 1121 -37 l 808 -37 l 808 -103 l 746 -103 l 746 367 l 1069 367 q 814 546 914 450 l 568 546 q 317 367 463 445 l 643 367 l 643 -103 l 581 -103 l 581 -37 l 268 -37 l 268 -103 l 204 -103 l 204 313 q 87 268 151 290 l 71 329 q 475 546 309 406 l 90 546 m 581 18 l 581 310 l 268 310 l 268 18 l 581 18 m 1121 18 l 1121 310 l 808 310 l 808 18 l 1121 18 z "},"四":{"ha":1389,"x_min":115,"x_max":1274,"o":"m 1206 400 q 945 389 1053 389 q 810 418 838 389 q 781 555 781 447 l 781 940 l 536 940 q 533 742 536 801 q 522 600 533 695 q 497 494 511 535 q 375 351 457 411 q 267 283 349 333 l 229 335 q 306 380 279 367 q 361 424 332 397 q 407 468 394 450 q 435 522 420 486 q 453 576 451 559 q 470 766 469 705 q 471 940 471 827 l 183 940 l 183 115 l 1206 115 l 1206 400 m 1206 940 l 844 940 l 844 574 q 863 467 845 483 q 993 450 880 450 q 1206 460 1105 450 l 1206 940 m 115 1000 l 1274 1000 l 1274 -37 l 1206 -37 l 1206 56 l 183 56 l 183 -37 l 115 -37 l 115 1000 z "},"回":{"ha":1389,"x_min":139,"x_max":1250,"o":"m 205 -29 l 205 -109 l 139 -109 l 139 1072 l 1250 1072 l 1250 -109 l 1183 -109 l 1183 -29 l 205 -29 m 496 317 l 892 317 l 892 737 l 496 737 l 496 317 m 957 258 l 432 258 l 432 796 l 957 796 l 957 258 m 1183 31 l 1183 1011 l 205 1011 l 205 31 l 1183 31 z "},"因":{"ha":1389,"x_min":126,"x_max":1263,"o":"m 193 -50 l 193 -115 l 126 -115 l 126 1079 l 1263 1079 l 1263 -115 l 1196 -115 l 1196 -50 l 193 -50 m 1196 8 l 1196 1019 l 193 1019 l 193 8 l 1196 8 m 663 972 l 726 972 l 726 760 l 1122 760 l 1122 700 l 728 700 q 850 374 740 521 q 1147 142 961 228 l 1109 89 q 848 282 954 164 q 696 546 742 400 q 543 281 650 400 q 279 89 435 161 l 241 142 q 537 374 427 228 q 660 700 648 521 l 267 700 l 267 760 l 663 760 l 663 972 z "},"団":{"ha":1389,"x_min":126,"x_max":1263,"o":"m 193 -50 l 193 -115 l 126 -115 l 126 1079 l 1263 1079 l 1263 -115 l 1196 -115 l 1196 -50 l 193 -50 m 1196 8 l 1196 1019 l 193 1019 l 193 8 l 1196 8 m 1129 798 l 1129 739 l 961 739 l 961 252 q 943 119 960 144 q 857 95 925 95 q 624 102 789 95 l 624 161 q 831 154 784 154 q 886 167 878 154 q 896 248 896 176 l 896 739 l 260 739 l 260 798 l 896 798 l 896 962 l 961 962 l 961 798 l 1129 798 m 414 616 l 468 652 q 677 336 594 493 l 621 304 q 414 616 538 458 z "},"困":{"ha":1389,"x_min":121,"x_max":1268,"o":"m 187 -50 l 187 -115 l 121 -115 l 121 1079 l 1268 1079 l 1268 -115 l 1202 -115 l 1202 -50 l 187 -50 m 1202 8 l 1202 1019 l 187 1019 l 187 8 l 1202 8 m 726 56 l 663 56 l 663 648 q 271 157 525 380 l 231 208 q 639 720 503 438 l 267 720 l 267 779 l 663 779 l 663 972 l 726 972 l 726 779 l 1122 779 l 1122 720 l 750 720 q 1158 208 886 438 l 1118 157 q 726 648 864 380 l 726 56 z "},"囲":{"ha":1389,"x_min":119,"x_max":1270,"o":"m 856 408 l 856 713 l 553 713 l 553 694 q 538 408 553 519 l 856 408 m 186 -50 l 186 -115 l 119 -115 l 119 1079 l 1270 1079 l 1270 -115 l 1203 -115 l 1203 -50 l 186 -50 m 1158 408 l 1158 350 l 920 350 l 920 57 l 856 57 l 856 350 l 528 350 q 463 184 506 250 q 330 41 419 117 l 288 85 q 404 207 362 147 q 464 350 446 267 l 229 350 l 229 408 l 475 408 q 490 694 490 519 l 490 713 l 243 713 l 243 772 l 490 772 l 490 971 l 553 971 l 553 772 l 856 772 l 856 971 l 920 971 l 920 772 l 1146 772 l 1146 713 l 920 713 l 920 408 l 1158 408 m 1203 8 l 1203 1019 l 186 1019 l 186 8 l 1203 8 z "},"図":{"ha":1389,"x_min":126,"x_max":1263,"o":"m 193 -50 l 193 -115 l 126 -115 l 126 1079 l 1263 1079 l 1263 -115 l 1196 -115 l 1196 -50 l 193 -50 m 1196 8 l 1196 1019 l 193 1019 l 193 8 l 1196 8 m 361 850 l 414 882 q 589 586 510 741 l 534 557 q 361 850 463 699 m 619 943 l 671 974 q 839 685 763 831 l 786 657 q 619 943 712 802 m 264 513 l 289 567 q 703 383 517 484 q 1079 888 940 602 l 1133 860 q 758 351 999 576 q 1112 114 937 247 l 1074 65 q 711 309 889 208 q 328 45 549 163 l 292 93 q 654 340 499 206 q 264 513 477 435 z "},"固":{"ha":1389,"x_min":126,"x_max":1263,"o":"m 193 -50 l 193 -115 l 126 -115 l 126 1079 l 1263 1079 l 1263 -115 l 1196 -115 l 1196 -50 l 193 -50 m 441 170 l 947 170 l 947 475 l 441 475 l 441 170 m 1011 113 l 378 113 l 378 530 l 663 530 l 663 745 l 267 745 l 267 802 l 663 802 l 663 977 l 726 977 l 726 802 l 1122 802 l 1122 745 l 726 745 l 726 530 l 1011 530 l 1011 113 m 1196 8 l 1196 1019 l 193 1019 l 193 8 l 1196 8 z "},"国":{"ha":1389,"x_min":119,"x_max":1270,"o":"m 186 -50 l 186 -115 l 119 -115 l 119 1079 l 1270 1079 l 1270 -115 l 1203 -115 l 1203 -50 l 186 -50 m 1036 253 q 869 441 955 352 l 917 479 q 1084 289 985 410 l 1036 253 m 1203 7 l 1203 1021 l 186 1021 l 186 7 l 1203 7 m 720 195 l 1122 195 l 1122 138 l 267 138 l 267 195 l 656 195 l 656 525 l 343 525 l 343 581 l 656 581 l 656 846 l 290 846 l 290 901 l 1099 901 l 1099 846 l 720 846 l 720 581 l 1046 581 l 1046 525 l 720 525 l 720 195 z "},"園":{"ha":1389,"x_min":113,"x_max":1276,"o":"m 179 -1 l 1210 -1 l 1210 1029 l 179 1029 l 179 -1 m 429 418 l 961 418 l 961 575 l 429 575 l 429 418 m 729 54 l 663 54 l 663 269 q 260 60 503 156 l 233 111 q 693 363 535 228 l 364 363 l 364 631 l 1026 631 l 1026 363 l 774 363 q 736 328 770 359 q 904 245 822 288 q 1096 385 1006 311 l 1135 343 q 961 216 1057 277 q 1158 102 1043 172 l 1121 57 q 729 273 943 172 l 729 54 m 1276 1086 l 1276 -122 l 1210 -122 l 1210 -57 l 179 -57 l 179 -122 l 113 -122 l 113 1086 l 1276 1086 m 1075 854 l 729 854 l 729 747 l 1146 747 l 1146 692 l 243 692 l 243 747 l 661 747 l 661 854 l 315 854 l 315 909 l 661 909 l 661 997 l 729 997 l 729 909 l 1075 909 l 1075 854 z "},"土":{"ha":1389,"x_min":90,"x_max":1299,"o":"m 729 1089 l 729 713 l 1202 713 l 1202 652 l 729 652 l 729 11 l 1299 11 l 1299 -52 l 90 -52 l 90 11 l 660 11 l 660 652 l 187 652 l 187 713 l 660 713 l 660 1089 l 729 1089 z "},"圧":{"ha":1389,"x_min":72,"x_max":1286,"o":"m 180 663 l 180 1053 l 1275 1053 l 1275 991 l 248 991 l 248 629 q 125 -74 248 206 l 72 -28 q 155 275 130 117 q 180 663 180 434 m 818 9 l 1286 9 l 1286 -53 l 228 -53 l 228 9 l 750 9 l 750 546 l 325 546 l 325 607 l 750 607 l 750 942 l 818 942 l 818 607 l 1234 607 l 1234 546 l 818 546 l 818 9 z "},"在":{"ha":1389,"x_min":54,"x_max":1315,"o":"m 93 937 l 93 999 l 524 999 q 597 1161 563 1073 l 663 1149 q 599 999 631 1061 l 1296 999 l 1296 937 l 566 937 q 317 607 465 760 l 317 -104 l 249 -104 l 249 549 q 82 407 162 462 l 54 471 q 249 633 163 547 l 249 764 l 317 764 l 317 705 q 489 937 420 822 l 93 937 m 905 11 l 1315 11 l 1315 -52 l 395 -52 l 395 11 l 838 11 l 838 456 l 465 456 l 465 517 l 838 517 l 838 838 l 905 838 l 905 517 l 1258 517 l 1258 456 l 905 456 l 905 11 z "},"地":{"ha":1389,"x_min":71,"x_max":1329,"o":"m 309 1089 l 309 825 l 497 825 l 497 765 l 309 765 l 309 111 q 504 204 406 151 l 515 146 q 82 -39 287 24 l 71 24 q 240 83 178 58 l 240 765 l 77 765 l 77 825 l 240 825 l 240 1089 l 309 1089 m 596 1053 l 664 1053 l 664 777 l 892 839 l 892 1128 l 956 1128 l 956 856 l 1275 943 l 1275 905 q 1264 505 1275 620 q 1237 346 1256 381 q 1179 311 1218 311 q 1044 318 1139 311 l 1038 379 q 1162 372 1126 372 q 1197 456 1190 372 q 1210 861 1210 534 l 956 791 l 956 197 l 892 197 l 892 774 l 664 711 l 664 62 q 703 -11 664 -1 q 961 -24 745 -24 l 1080 -24 q 1158 -10 1112 -24 q 1211 14 1203 3 q 1236 66 1221 22 q 1253 138 1251 111 q 1257 183 1256 165 q 1260 232 1259 201 q 1264 286 1263 262 l 1329 275 q 1319 142 1320 168 q 1305 71 1318 116 q 1291 11 1299 37 q 1258 -36 1283 -15 q 1202 -69 1236 -58 q 1061 -86 1168 -81 l 808 -86 q 650 -66 692 -81 q 616 -39 631 -58 q 598 1 601 -20 q 596 53 595 22 l 596 693 l 440 652 l 429 714 l 596 758 l 596 1053 z "},"坂":{"ha":1389,"x_min":62,"x_max":1352,"o":"m 298 1089 l 298 807 l 498 807 l 498 746 l 298 746 l 298 147 q 461 231 404 198 l 479 171 q 74 -11 267 52 l 62 52 q 232 117 137 77 l 232 746 l 66 746 l 66 807 l 232 807 l 232 1089 l 298 1089 m 567 652 l 567 1065 l 1311 1065 l 1311 1004 l 635 1004 l 635 750 l 1278 750 l 1278 692 q 1013 203 1191 401 q 1352 -33 1152 53 l 1321 -92 q 966 155 1107 1 q 576 -92 808 -1 l 550 -32 q 924 205 767 51 q 701 628 781 382 l 764 650 q 970 254 840 417 q 1207 692 1125 430 l 635 692 l 635 619 q 460 -85 635 201 l 411 -37 q 567 652 567 230 z "},"均":{"ha":1389,"x_min":57,"x_max":1307,"o":"m 294 1089 l 294 811 l 465 811 l 465 751 l 294 751 l 294 163 q 490 256 394 203 l 501 195 q 68 12 287 83 l 57 75 q 227 135 165 110 l 227 751 l 62 751 l 62 811 l 227 811 l 227 1089 l 294 1089 m 1095 -81 q 851 -68 1036 -81 l 850 -5 q 1104 -18 999 -18 q 1157 5 1138 -18 q 1194 127 1176 28 q 1219 400 1211 225 q 1239 905 1230 567 l 647 905 q 453 572 564 707 l 407 616 q 657 1140 582 831 l 722 1131 q 671 966 706 1061 l 1307 966 q 1296 586 1302 749 q 1234 3 1279 136 q 1204 -51 1223 -31 q 1171 -76 1185 -71 q 1095 -81 1156 -81 m 625 629 l 625 688 l 1063 688 l 1063 629 l 625 629 m 567 158 q 1082 390 808 240 l 1105 335 q 586 100 837 184 l 567 158 z "},"坊":{"ha":1389,"x_min":74,"x_max":1337,"o":"m 908 930 l 1337 930 l 1337 869 l 786 869 q 778 640 786 744 l 1260 640 q 1203 60 1260 203 q 1139 -39 1175 -14 q 1050 -66 1105 -66 q 814 -52 994 -66 l 814 11 q 1034 -3 954 -3 q 1095 18 1068 -3 q 1141 97 1121 39 q 1192 579 1187 203 l 772 579 q 665 184 747 338 q 416 -92 582 31 l 370 -41 q 578 172 505 59 q 686 450 653 285 q 718 869 718 616 l 441 869 l 441 930 l 840 930 l 840 1141 l 908 1141 l 908 930 m 313 1089 l 313 800 l 522 800 l 522 739 l 313 739 l 313 142 q 511 235 420 186 l 524 176 q 85 -7 300 62 l 74 54 q 248 114 193 92 l 248 739 l 79 739 l 79 800 l 248 800 l 248 1089 l 313 1089 z "},"垂":{"ha":1389,"x_min":78,"x_max":1311,"o":"m 1019 257 l 1019 479 l 729 479 l 729 257 l 1019 257 m 660 479 l 370 479 l 370 257 l 660 257 l 660 479 m 370 749 l 370 539 l 660 539 l 660 749 l 370 749 m 199 1014 q 1187 1093 734 1014 l 1196 1032 q 729 974 952 990 l 729 806 l 1270 806 l 1270 749 l 1086 749 l 1086 539 l 1311 539 l 1311 479 l 1086 479 l 1086 257 l 1255 257 l 1255 200 l 729 200 l 729 -5 l 1291 -5 l 1291 -65 l 98 -65 l 98 -5 l 660 -5 l 660 200 l 134 200 l 134 257 l 302 257 l 302 479 l 78 479 l 78 539 l 302 539 l 302 749 l 119 749 l 119 806 l 660 806 l 660 970 q 199 954 405 954 l 199 1014 m 1019 749 l 729 749 l 729 539 l 1019 539 l 1019 749 z "},"型":{"ha":1389,"x_min":82,"x_max":1299,"o":"m 275 888 l 275 1006 l 110 1006 l 110 1065 l 799 1065 l 799 1006 l 628 1006 l 628 806 l 799 806 l 799 747 l 628 747 l 628 419 l 561 419 l 561 747 l 335 747 q 273 525 320 614 q 135 371 225 435 l 87 419 q 211 555 170 480 q 268 747 254 629 l 82 747 l 82 806 l 273 806 q 275 888 275 833 m 561 806 l 561 1006 l 342 1006 l 342 888 q 339 806 342 875 l 561 806 m 1194 224 l 729 224 l 729 -5 l 1299 -5 l 1299 -65 l 90 -65 l 90 -5 l 660 -5 l 660 224 l 191 224 l 191 281 l 660 281 l 660 444 l 729 444 l 729 281 l 1194 281 l 1194 224 m 880 587 l 880 1063 l 946 1063 l 946 587 l 880 587 m 1211 1090 l 1279 1090 l 1279 570 q 1257 444 1279 471 q 1150 419 1234 419 q 971 427 1112 419 l 971 486 q 1142 479 1095 479 q 1200 492 1190 479 q 1211 568 1211 505 l 1211 1090 z "},"埋":{"ha":1389,"x_min":50,"x_max":1322,"o":"m 561 808 l 850 808 l 850 1021 l 561 1021 l 561 808 m 918 472 l 918 278 l 1296 278 l 1296 221 l 918 221 l 918 -5 l 1322 -5 l 1322 -65 l 407 -65 l 407 -5 l 850 -5 l 850 221 l 493 221 l 493 278 l 850 278 l 850 472 l 496 472 l 496 1079 l 1271 1079 l 1271 472 l 918 472 m 850 529 l 850 753 l 561 753 l 561 529 l 850 529 m 918 529 l 1204 529 l 1204 753 l 918 753 l 918 529 m 918 808 l 1204 808 l 1204 1021 l 918 1021 l 918 808 m 222 755 l 222 1089 l 289 1089 l 289 755 l 444 755 l 444 696 l 289 696 l 289 164 q 446 231 406 213 l 457 172 q 61 17 236 73 l 50 77 q 222 138 122 99 l 222 696 l 56 696 l 56 755 l 222 755 z "},"城":{"ha":1389,"x_min":46,"x_max":1346,"o":"m 872 724 q 857 271 872 346 q 798 184 842 197 q 734 179 781 179 q 566 192 686 179 l 561 253 q 715 240 686 240 q 798 294 785 240 q 808 665 808 352 l 549 665 l 549 610 q 404 -94 549 164 l 346 -62 q 437 180 406 43 q 58 17 262 86 l 46 77 q 218 140 152 113 l 218 711 l 52 711 l 52 772 l 218 772 l 218 1089 l 281 1089 l 281 772 l 441 772 l 441 711 l 281 711 l 281 168 q 453 252 378 213 q 484 644 484 411 l 484 965 l 936 965 q 933 1135 933 1109 l 999 1135 q 1002 965 999 1109 l 1325 965 l 1325 905 l 1004 905 q 1076 345 1018 593 q 1232 757 1175 511 l 1292 737 q 1097 258 1221 449 q 1200 8 1142 102 q 1231 -20 1220 -18 q 1284 264 1261 -20 l 1346 248 q 1280 -69 1325 -24 q 1238 -93 1265 -93 q 1145 -22 1194 -93 q 1047 189 1090 52 q 720 -92 926 31 l 679 -40 q 1025 264 896 85 q 937 905 954 526 l 549 905 l 549 724 l 872 724 m 1057 1105 l 1092 1156 q 1274 1026 1200 1088 l 1235 978 q 1057 1105 1146 1051 z "},"域":{"ha":1389,"x_min":46,"x_max":1346,"o":"m 882 363 l 484 363 l 484 766 l 882 766 l 882 363 m 819 418 l 819 711 l 549 711 l 549 418 l 819 418 m 922 307 l 939 250 q 439 62 755 143 l 428 125 q 922 307 746 208 m 215 1089 l 282 1089 l 282 771 l 441 771 l 441 711 l 282 711 l 282 170 q 463 260 370 209 l 476 203 q 58 18 271 89 l 46 77 q 215 140 149 112 l 215 711 l 52 711 l 52 771 l 215 771 l 215 1089 m 1065 1105 l 1100 1156 q 1282 1026 1208 1088 l 1244 978 q 1065 1105 1158 1050 m 1280 -69 q 1233 -93 1265 -93 q 1150 -22 1200 -93 q 1061 187 1101 56 q 753 -90 945 32 l 711 -41 q 1040 267 919 85 q 961 903 975 536 l 424 903 l 424 962 l 958 962 q 956 1135 956 1106 l 1022 1135 q 1025 962 1022 1106 l 1325 962 l 1325 903 l 1026 903 q 1090 353 1038 599 q 1232 757 1175 511 l 1292 739 q 1111 261 1224 445 q 1202 9 1158 77 q 1231 -20 1220 -19 q 1284 264 1266 -20 l 1346 248 q 1280 -69 1325 -24 z "},"基":{"ha":1389,"x_min":56,"x_max":1333,"o":"m 386 587 l 386 458 l 1003 458 l 1003 587 l 386 587 m 386 770 l 386 640 l 1003 640 l 1003 770 l 386 770 m 386 823 l 1003 823 l 1003 953 l 386 953 l 386 823 m 90 400 l 90 458 l 318 458 l 318 953 l 104 953 l 104 1011 l 318 1011 l 318 1149 l 386 1149 l 386 1011 l 1003 1011 l 1003 1149 l 1071 1149 l 1071 1011 l 1284 1011 l 1284 953 l 1071 953 l 1071 458 l 1299 458 l 1299 400 l 954 400 q 1333 182 1097 270 l 1310 125 q 876 400 1034 232 l 513 400 q 79 125 355 230 l 56 182 q 435 400 292 270 l 90 400 m 729 158 l 729 -14 l 1283 -14 l 1283 -72 l 106 -72 l 106 -14 l 660 -14 l 660 158 l 302 158 l 302 215 l 660 215 l 660 361 l 729 361 l 729 215 l 1086 215 l 1086 158 l 729 158 z "},"堂":{"ha":1389,"x_min":104,"x_max":1284,"o":"m 660 414 l 298 414 l 298 781 l 1090 781 l 1090 414 l 729 414 l 729 253 l 1178 253 l 1178 196 l 729 196 l 729 -11 l 1284 -11 l 1284 -72 l 104 -72 l 104 -11 l 660 -11 l 660 196 l 211 196 l 211 253 l 660 253 l 660 414 m 367 469 l 1022 469 l 1022 725 l 367 725 l 367 469 m 1280 946 l 1280 619 l 1213 619 l 1213 886 l 176 886 l 176 619 l 109 619 l 109 946 l 371 946 q 277 1097 321 1033 l 335 1120 q 441 946 381 1053 l 660 946 l 660 1150 l 729 1150 l 729 946 l 954 946 q 1053 1129 1005 1028 l 1112 1109 q 1025 946 1080 1042 l 1280 946 z "},"堅":{"ha":1389,"x_min":90,"x_max":1336,"o":"m 201 872 l 415 872 l 415 1015 l 201 1015 l 201 872 m 201 669 l 610 669 l 610 817 l 201 817 l 201 669 m 415 471 l 415 614 l 201 614 l 201 471 l 415 471 m 481 471 l 699 471 l 699 415 l 201 415 l 201 339 l 136 339 l 136 1072 l 690 1072 l 690 1015 l 481 1015 l 481 872 l 676 872 l 676 614 l 481 614 l 481 471 m 729 -5 l 1299 -5 l 1299 -65 l 90 -65 l 90 -5 l 660 -5 l 660 204 l 191 204 l 191 261 l 660 261 l 660 382 l 729 382 l 729 261 l 1194 261 l 1194 204 l 729 204 l 729 -5 m 734 1006 l 734 1065 l 1284 1065 l 1284 1006 q 1069 631 1205 779 q 1336 419 1195 503 l 1307 366 q 1025 586 1154 457 q 758 406 910 481 l 725 458 q 981 632 869 528 q 770 945 847 780 l 828 972 q 1025 677 909 808 q 1215 1006 1145 810 l 734 1006 z "},"報":{"ha":1389,"x_min":72,"x_max":1335,"o":"m 313 436 l 465 436 q 550 737 516 580 l 245 737 q 313 436 280 604 m 361 378 l 81 378 l 81 436 l 253 436 q 184 737 221 602 l 72 737 l 72 796 l 361 796 l 361 970 l 114 970 l 114 1025 l 361 1025 l 361 1136 l 428 1136 l 428 1025 l 672 1025 l 672 970 l 428 970 l 428 796 l 717 796 l 717 737 l 612 737 q 529 436 581 585 l 717 436 l 717 378 l 428 378 l 428 186 l 684 186 l 684 129 l 428 129 l 428 -122 l 361 -122 l 361 129 l 100 129 l 100 186 l 361 186 l 361 378 m 823 633 l 823 -110 l 760 -110 l 760 1078 l 1305 1078 l 1304 1047 q 1283 875 1293 917 q 1259 808 1276 826 q 1211 791 1241 791 q 964 799 1180 791 l 964 856 q 1179 849 1154 849 q 1210 856 1203 849 q 1225 909 1217 863 q 1239 1019 1234 955 l 823 1019 l 823 693 l 1295 693 l 1295 633 q 1128 164 1263 385 q 1335 -50 1217 40 l 1307 -109 q 1092 109 1190 -23 q 895 -107 1004 -18 l 859 -52 q 1053 164 966 36 q 879 554 932 348 l 935 579 q 1089 222 982 395 q 1232 633 1202 413 l 823 633 z "},"場":{"ha":1389,"x_min":54,"x_max":1318,"o":"m 602 838 l 602 704 l 1177 704 l 1177 838 l 602 838 m 602 893 l 1177 893 l 1177 1021 l 602 1021 l 602 893 m 224 1089 l 290 1089 l 290 761 l 467 761 l 467 704 l 290 704 l 290 163 q 475 249 357 190 l 494 195 q 66 18 286 87 l 54 78 q 224 136 170 114 l 224 704 l 58 704 l 58 761 l 224 761 l 224 1089 m 536 1078 l 1244 1078 l 1244 648 l 536 648 l 536 1078 m 1120 -35 q 1213 355 1211 -35 l 1213 358 l 1105 358 q 939 92 1054 229 q 705 -119 822 -45 l 665 -71 q 879 117 772 -6 q 1040 358 991 249 l 848 358 q 662 139 779 249 q 421 -43 545 29 l 382 5 q 591 157 482 60 q 775 358 701 255 l 581 358 q 457 275 527 315 l 422 325 q 656 509 543 388 l 456 509 l 456 566 l 1318 566 l 1318 509 l 736 509 q 646 414 699 465 l 1279 414 l 1279 372 q 1245 11 1279 115 q 1136 -94 1211 -94 q 965 -86 1088 -94 l 964 -28 q 1120 -35 1063 -35 z "},"塔":{"ha":1389,"x_min":53,"x_max":1354,"o":"m 604 549 l 1126 549 q 865 806 998 654 q 604 549 732 654 m 572 5 l 1158 5 l 1158 290 l 572 290 l 572 5 m 289 1089 l 289 807 l 453 807 l 453 747 l 289 747 l 289 171 q 452 253 385 216 l 463 195 q 64 14 266 85 l 53 75 q 222 140 115 96 l 222 747 l 58 747 l 58 807 l 222 807 l 222 1089 l 289 1089 m 1331 987 l 1331 929 l 1111 929 l 1111 785 l 1044 785 l 1044 929 l 688 929 l 688 785 l 621 785 l 621 929 l 400 929 l 400 987 l 621 987 l 621 1129 l 688 1129 l 688 987 l 1044 987 l 1044 1129 l 1111 1129 l 1111 987 l 1331 987 m 1139 490 l 593 490 l 593 539 q 403 400 524 482 l 378 458 q 831 851 629 623 l 901 851 q 1354 458 1103 623 l 1328 400 q 1139 539 1219 472 l 1139 490 m 505 349 l 1225 349 l 1225 -115 l 1158 -115 l 1158 -52 l 572 -52 l 572 -115 l 505 -115 l 505 349 z "},"塗":{"ha":1389,"x_min":61,"x_max":1320,"o":"m 606 918 l 1117 918 q 860 1088 984 991 q 606 918 741 995 m 127 1064 l 158 1116 q 386 979 289 1046 l 353 928 q 127 1064 256 994 m 306 690 q 61 840 198 768 l 92 893 q 340 742 234 819 l 306 690 m 432 614 q 143 301 319 442 l 103 349 q 386 653 279 488 l 432 614 m 1299 -21 l 1299 -79 l 90 -79 l 90 -21 l 660 -21 l 660 163 l 187 163 l 187 220 l 660 220 l 660 318 l 729 318 l 729 220 l 1202 220 l 1202 163 l 729 163 l 729 -21 l 1299 -21 m 1284 659 l 905 659 l 905 441 q 887 357 906 373 q 811 340 868 340 q 639 347 754 340 l 637 404 q 784 397 746 397 q 829 403 822 397 q 836 449 836 412 l 836 659 l 461 659 l 461 715 l 836 715 l 836 863 l 590 863 l 590 909 q 429 831 515 869 l 410 889 q 818 1129 640 993 l 903 1129 q 1312 889 1087 987 l 1293 831 q 1132 909 1204 870 l 1132 863 l 905 863 l 905 715 l 1284 715 l 1284 659 m 639 618 l 692 589 q 437 330 602 436 l 395 378 q 639 618 553 477 m 1068 619 q 1320 364 1228 481 l 1267 328 q 1021 582 1161 463 l 1068 619 z "},"塩":{"ha":1389,"x_min":40,"x_max":1339,"o":"m 568 572 l 1154 572 l 1154 786 l 568 786 l 568 572 m 701 -21 l 701 340 l 522 340 l 522 -21 l 701 -21 m 943 -21 l 943 340 l 762 340 l 762 -21 l 943 -21 m 1004 -21 l 1183 -21 l 1183 340 l 1004 340 l 1004 -21 m 279 1089 l 279 856 l 467 856 q 606 1150 557 996 l 668 1136 q 629 1028 650 1076 l 1293 1028 l 1293 970 l 603 970 q 534 842 563 887 l 1222 842 l 1222 517 l 504 517 l 504 793 q 414 676 459 726 l 364 718 q 425 794 399 758 l 279 794 l 279 144 q 457 232 404 205 l 457 395 l 1249 395 l 1249 -21 l 1339 -21 l 1339 -79 l 342 -79 l 342 -21 l 457 -21 l 457 167 q 53 -9 248 56 l 40 52 q 211 115 124 80 l 211 794 l 45 794 l 45 856 l 211 856 l 211 1089 l 279 1089 z "},"境":{"ha":1389,"x_min":43,"x_max":1331,"o":"m 1004 766 q 1100 961 1061 854 l 676 961 q 770 766 713 892 l 1004 766 m 583 416 l 583 283 l 1190 283 l 1190 416 l 583 416 m 583 471 l 1190 471 l 1190 595 l 583 595 l 583 471 m 1308 1018 l 1308 961 l 1166 961 q 1076 766 1128 851 l 1331 766 l 1331 711 l 457 711 l 457 656 l 281 656 l 281 147 q 475 244 369 187 l 488 186 q 56 -5 268 66 l 43 56 q 214 119 147 92 l 214 656 l 49 656 l 49 717 l 214 717 l 214 1089 l 281 1089 l 281 717 l 428 717 l 428 766 l 701 766 q 606 961 650 881 l 456 961 l 456 1018 l 852 1018 l 852 1149 l 921 1149 l 921 1018 l 1308 1018 m 1188 -98 q 1181 -98 1188 -98 q 1096 -98 1175 -98 q 990 -85 1017 -98 q 964 -9 963 -71 l 964 228 l 781 228 q 657 16 766 105 q 355 -119 548 -74 l 328 -60 q 602 53 499 -20 q 717 228 703 130 l 515 228 l 515 648 l 1260 648 l 1260 228 l 1028 228 l 1028 11 q 1043 -33 1028 -26 q 1142 -39 1058 -39 q 1242 -9 1226 -39 q 1264 193 1258 24 l 1326 187 q 1306 -28 1321 26 q 1293 -56 1303 -38 q 1274 -77 1282 -73 q 1255 -85 1267 -81 q 1236 -92 1244 -88 q 1188 -98 1202 -97 z "},"墓":{"ha":1389,"x_min":56,"x_max":1333,"o":"m 293 656 l 293 538 l 1096 538 l 1096 656 l 293 656 m 293 711 l 1096 711 l 1096 831 l 293 831 l 293 711 m 660 192 l 660 304 l 729 304 l 729 192 l 1082 192 q 865 342 967 255 l 525 342 q 307 192 425 254 l 660 192 m 479 885 l 909 885 l 909 968 l 479 968 l 479 885 m 729 136 l 729 -14 l 1282 -14 l 1282 -72 l 107 -72 l 107 -14 l 660 -14 l 660 136 l 294 136 l 294 184 q 81 87 209 139 l 56 144 q 429 342 281 230 l 90 342 l 90 397 l 497 397 q 582 482 526 422 l 225 482 l 225 885 l 412 885 l 412 968 l 90 968 l 90 1025 l 412 1025 l 412 1149 l 479 1149 l 479 1025 l 909 1025 l 909 1149 l 977 1149 l 977 1025 l 1299 1025 l 1299 968 l 977 968 l 977 885 l 1164 885 l 1164 482 l 663 482 q 585 397 629 439 l 1299 397 l 1299 342 l 960 342 q 1333 144 1105 230 l 1308 87 q 1095 184 1180 138 l 1095 136 l 729 136 z "},"増":{"ha":1389,"x_min":49,"x_max":1320,"o":"m 917 714 l 917 564 l 1253 564 l 1253 714 l 917 714 m 917 914 l 917 768 l 1253 768 l 1253 914 l 917 914 m 852 914 l 514 914 l 514 768 l 852 768 l 852 914 m 514 564 l 852 564 l 852 714 l 514 714 l 514 564 m 1320 509 l 449 509 l 449 970 l 685 970 q 575 1109 646 1025 l 632 1133 q 758 970 710 1042 l 1011 970 q 1133 1132 1082 1053 l 1193 1111 q 1089 970 1154 1051 l 1320 970 l 1320 509 m 568 163 l 568 4 l 1198 4 l 1198 163 l 568 163 m 568 216 l 1198 216 l 1198 363 l 568 363 l 568 216 m 568 -52 l 568 -115 l 503 -115 l 503 419 l 1267 419 l 1267 -115 l 1198 -115 l 1198 -52 l 568 -52 m 281 1089 l 281 786 l 421 786 l 421 726 l 281 726 l 281 146 q 443 235 335 172 l 457 178 q 62 -14 257 58 l 49 47 q 214 115 111 71 l 214 726 l 54 726 l 54 786 l 214 786 l 214 1089 l 281 1089 z "},"壊":{"ha":1389,"x_min":33,"x_max":1353,"o":"m 692 585 l 692 803 l 494 803 l 494 585 l 692 585 m 954 585 l 954 803 l 754 803 l 754 585 l 954 585 m 1017 585 l 1214 585 l 1214 803 l 1017 803 l 1017 585 m 253 1089 l 253 791 l 397 791 l 397 733 l 253 733 l 253 216 q 415 307 340 262 l 429 250 q 46 58 239 133 l 33 119 q 187 184 121 154 l 187 733 l 39 733 l 39 791 l 187 791 l 187 1089 l 253 1089 m 378 371 l 378 429 l 817 429 l 817 529 l 431 529 l 431 859 l 817 859 l 817 957 l 385 957 l 385 1017 l 817 1017 l 817 1141 l 885 1141 l 885 1017 l 1320 1017 l 1320 957 l 885 957 l 885 859 l 1279 859 l 1279 529 l 885 529 l 885 429 l 1326 429 l 1326 371 l 916 371 q 1048 155 963 253 q 1238 336 1157 237 l 1284 297 q 1090 111 1201 195 q 1353 -56 1205 1 l 1325 -113 q 1040 75 1169 -54 q 847 371 911 203 l 827 371 q 679 237 764 302 l 679 1 q 945 77 807 32 l 954 20 q 408 -111 692 -67 l 401 -53 q 614 -14 509 -37 l 614 192 q 328 49 490 112 l 307 109 q 746 371 585 214 l 378 371 z "},"士":{"ha":1389,"x_min":104,"x_max":1284,"o":"m 729 11 l 1215 11 l 1215 -50 l 174 -50 l 174 11 l 660 11 l 660 650 l 104 650 l 104 713 l 660 713 l 660 1089 l 729 1089 l 729 713 l 1284 713 l 1284 650 l 729 650 l 729 11 z "},"声":{"ha":1389,"x_min":78,"x_max":1310,"o":"m 660 615 l 290 615 l 290 432 q 288 350 290 419 l 660 350 l 660 615 m 728 615 l 728 350 l 1111 350 l 1111 615 l 728 615 m 222 452 l 222 671 l 1178 671 l 1178 211 l 1111 211 l 1111 292 l 282 292 q 131 -89 259 67 l 78 -49 q 187 161 152 43 q 222 452 222 280 m 1310 1025 l 1310 966 l 728 966 l 728 833 l 1231 833 l 1231 777 l 157 777 l 157 833 l 659 833 l 659 966 l 78 966 l 78 1025 l 659 1025 l 659 1131 l 728 1131 l 728 1025 l 1310 1025 z "},"売":{"ha":1389,"x_min":90,"x_max":1299,"o":"m 1299 942 l 729 942 l 729 775 l 1202 775 l 1202 717 l 187 717 l 187 775 l 660 775 l 660 942 l 90 942 l 90 1000 l 660 1000 l 660 1117 l 729 1117 l 729 1000 l 1299 1000 l 1299 942 m 1182 534 l 207 534 l 207 314 l 142 314 l 142 593 l 1247 593 l 1247 328 l 1182 328 l 1182 534 m 503 447 l 570 443 q 461 98 568 227 q 123 -93 354 -31 l 97 -35 q 403 134 313 22 q 503 447 496 244 m 807 446 l 875 446 l 875 58 q 878 17 875 24 q 897 -4 878 7 q 943 -16 916 -15 q 1053 -18 971 -18 l 1109 -18 q 1152 -12 1123 -19 q 1184 -5 1180 -5 q 1202 12 1188 -5 q 1217 41 1216 30 q 1223 77 1218 52 q 1227 138 1227 101 q 1232 215 1231 175 l 1299 211 q 1278 12 1295 70 q 1257 -38 1270 -22 q 1211 -65 1245 -54 q 1150 -77 1177 -76 q 1005 -79 1123 -79 q 846 -58 887 -79 q 807 49 807 -41 l 807 446 z "},"変":{"ha":1389,"x_min":90,"x_max":1300,"o":"m 819 653 l 819 958 l 614 958 q 550 689 608 792 q 364 494 495 583 l 318 541 q 492 717 443 623 q 549 958 545 806 l 106 958 l 106 1018 l 660 1018 l 660 1149 l 729 1149 l 729 1018 l 1283 1018 l 1283 958 l 886 958 l 886 654 q 867 558 886 576 q 775 539 850 539 q 612 546 753 539 l 611 604 q 772 597 739 597 q 812 604 804 597 q 819 653 819 610 m 139 530 l 90 574 q 353 876 265 701 l 412 851 q 139 530 323 664 m 953 843 l 1004 880 q 1300 571 1175 738 l 1247 536 q 953 843 1132 692 m 1105 433 l 1105 376 q 783 121 983 227 q 1289 -31 1014 12 l 1275 -92 q 715 85 986 -49 q 114 -92 455 -41 l 100 -31 q 647 121 404 14 q 396 300 496 204 l 443 346 q 717 154 557 237 q 1021 376 898 248 l 433 376 q 123 184 289 258 l 93 239 q 524 549 368 360 l 576 518 q 497 433 552 488 l 1105 433 z "},"夏":{"ha":1389,"x_min":94,"x_max":1289,"o":"m 278 710 l 278 611 l 1111 611 l 1111 710 l 278 710 m 278 765 l 1111 765 l 1111 864 l 278 864 l 278 765 m 104 1013 l 104 1072 l 1284 1072 l 1284 1013 l 718 1013 q 677 921 702 967 l 1181 921 l 1181 404 l 579 404 q 481 314 535 358 l 1122 314 l 1122 260 q 791 66 997 151 q 1289 -41 1005 -9 l 1275 -100 q 711 36 972 -64 q 114 -100 450 -59 l 100 -41 q 631 68 405 -7 q 397 201 500 123 l 431 245 q 713 97 545 164 q 1028 260 906 169 l 406 260 q 121 111 277 173 l 94 165 q 501 404 335 258 l 208 404 l 208 921 l 604 921 q 646 1013 629 966 l 104 1013 m 1111 458 l 1111 555 l 278 555 l 278 458 l 1111 458 z "},"夕":{"ha":1389,"x_min":107,"x_max":1264,"o":"m 1264 977 l 1264 917 q 943 263 1204 520 q 232 -92 681 6 l 215 -33 q 928 343 677 73 q 498 652 714 509 l 538 701 q 970 393 753 558 q 1196 917 1143 606 l 566 917 q 147 496 405 682 l 107 547 q 614 1135 454 796 l 677 1116 q 604 977 650 1053 l 1264 977 z "},"外":{"ha":1389,"x_min":54,"x_max":1371,"o":"m 728 978 q 724 847 728 911 q 975 589 841 709 l 975 1116 l 1043 1116 l 1043 529 q 1371 298 1216 388 l 1341 243 q 1043 449 1185 336 l 1043 -115 l 975 -115 l 975 505 q 714 764 834 629 q 519 225 675 451 q 126 -92 360 1 l 100 -35 q 363 141 246 23 q 557 428 479 259 q 283 625 394 551 l 319 676 q 583 490 452 589 q 663 917 659 689 l 340 917 q 100 444 247 646 l 54 490 q 335 1132 249 764 l 397 1122 q 359 978 395 1113 l 728 978 z "},"多":{"ha":1389,"x_min":104,"x_max":1324,"o":"m 1324 579 l 1324 522 q 930 119 1194 281 q 294 -111 667 -42 l 277 -50 q 893 168 650 17 q 684 335 767 273 l 728 380 q 949 204 823 310 q 1253 522 1138 335 l 819 522 q 317 264 585 350 l 288 321 q 646 480 469 377 q 916 686 822 583 l 970 654 q 892 579 935 614 l 1324 579 m 1061 1051 l 1061 997 q 699 613 938 765 q 121 397 460 461 l 104 456 q 667 664 438 517 q 476 825 533 780 l 521 868 q 721 700 602 802 q 993 997 894 827 l 599 997 q 143 758 389 838 l 115 814 q 441 964 283 868 q 682 1154 600 1059 l 736 1124 q 665 1051 696 1078 l 1061 1051 z "},"夜":{"ha":1389,"x_min":28,"x_max":1332,"o":"m 267 -115 l 200 -115 l 200 490 q 62 304 130 380 l 28 364 q 339 939 245 606 l 403 922 q 267 596 354 749 l 267 -115 m 1310 1018 l 1310 960 l 79 960 l 79 1018 l 660 1018 l 660 1150 l 729 1150 l 729 1018 l 1310 1018 m 1240 806 l 1240 749 q 878 180 1142 399 q 1332 -45 1059 47 l 1307 -103 q 827 140 1025 -8 q 336 -104 627 -7 l 304 -47 q 775 182 589 47 q 504 518 603 326 q 336 335 427 420 l 296 387 q 668 940 543 616 l 729 921 q 681 806 712 869 l 1240 806 m 734 600 l 775 650 q 1034 447 929 536 q 1174 749 1120 574 l 653 749 q 546 574 600 648 q 825 222 644 370 q 996 395 924 304 q 734 600 867 504 z "},"夢":{"ha":1389,"x_min":87,"x_max":1301,"o":"m 1206 591 l 183 591 l 183 859 l 1206 859 l 1206 591 m 825 647 l 825 803 l 564 803 l 564 647 l 825 647 m 890 647 l 1140 647 l 1140 803 l 890 803 l 890 647 m 161 465 l 161 289 l 93 289 l 93 524 l 1295 524 l 1295 283 l 1227 283 l 1227 465 l 653 465 q 559 375 612 420 l 1132 375 l 1132 318 q 195 -113 912 -39 l 180 -53 q 724 74 504 -19 q 427 227 597 149 l 468 275 q 793 106 612 210 q 1055 318 964 193 l 485 318 q 136 139 342 217 l 103 191 q 570 465 406 306 l 161 465 m 977 1026 l 1301 1026 l 1301 970 l 977 970 l 977 886 l 909 886 l 909 970 l 479 970 l 479 886 l 412 886 l 412 970 l 87 970 l 87 1026 l 412 1026 l 412 1135 l 479 1135 l 479 1026 l 909 1026 l 909 1135 l 977 1135 l 977 1026 m 498 803 l 249 803 l 249 647 l 498 647 l 498 803 z "},"大":{"ha":1389,"x_min":86,"x_max":1303,"o":"m 107 775 l 107 838 l 660 838 l 660 1116 l 729 1116 l 729 838 l 1282 838 l 1282 775 l 730 775 q 892 306 741 513 q 1303 -25 1044 93 l 1270 -81 q 905 187 1054 16 q 697 572 753 359 q 486 187 639 357 q 119 -81 339 18 l 86 -25 q 497 306 345 93 q 659 775 648 513 l 107 775 z "},"天":{"ha":1389,"x_min":86,"x_max":1303,"o":"m 160 572 l 160 633 l 659 633 l 659 650 q 660 665 660 655 l 660 983 l 107 983 l 107 1046 l 1282 1046 l 1282 983 l 729 983 l 729 665 q 730 650 729 655 l 730 633 l 1229 633 l 1229 572 l 736 572 q 914 224 767 382 q 1303 -22 1064 66 l 1272 -81 q 905 144 1052 2 q 697 465 756 286 q 486 144 638 286 q 117 -81 337 1 l 86 -22 q 475 225 328 69 q 653 572 621 381 l 160 572 z "},"太":{"ha":1389,"x_min":78,"x_max":1311,"o":"m 534 224 l 586 261 q 825 -18 730 104 l 772 -54 q 534 224 676 68 m 660 1129 l 729 1129 l 729 929 q 730 865 729 879 l 1282 865 l 1282 803 l 737 803 q 918 333 768 551 q 1311 -21 1069 115 l 1276 -79 q 908 240 1061 41 q 697 672 755 439 q 484 237 637 435 q 113 -79 330 39 l 78 -21 q 471 331 320 113 q 652 803 621 549 l 107 803 l 107 865 l 659 865 q 660 929 660 879 l 660 1129 z "},"夫":{"ha":1389,"x_min":107,"x_max":1282,"o":"m 660 1129 l 729 1129 l 729 940 l 1215 940 l 1215 878 l 729 878 l 729 640 q 734 561 729 593 l 1282 561 l 1282 501 l 746 501 q 928 195 788 332 q 1279 -22 1067 58 l 1251 -81 q 897 139 1039 3 q 697 443 753 273 q 496 140 642 277 q 138 -81 349 3 l 110 -22 q 461 195 321 60 q 643 501 601 331 l 107 501 l 107 561 l 654 561 q 660 640 660 593 l 660 878 l 174 878 l 174 940 l 660 940 l 660 1129 z "},"央":{"ha":1389,"x_min":53,"x_max":1336,"o":"m 660 904 l 267 904 l 267 496 l 659 496 q 660 530 660 504 l 660 904 m 729 530 q 730 496 729 504 l 1122 496 l 1122 904 l 729 904 l 729 530 m 660 1129 l 729 1129 l 729 965 l 1187 965 l 1187 496 l 1336 496 l 1336 435 l 742 435 q 922 161 780 283 q 1282 -35 1063 37 l 1257 -94 q 904 95 1054 -31 q 697 367 754 221 q 486 93 636 217 q 132 -94 335 -31 l 107 -35 q 467 161 326 37 q 647 435 609 283 l 53 435 l 53 496 l 201 496 l 201 965 l 660 965 l 660 1129 z "},"失":{"ha":1389,"x_min":107,"x_max":1282,"o":"m 107 514 l 107 575 l 672 575 q 673 621 673 585 l 673 892 l 364 892 q 174 619 283 736 l 119 659 q 382 1105 297 850 l 447 1089 q 393 951 421 1010 l 673 951 l 673 1128 l 743 1128 l 743 951 l 1198 951 l 1198 892 l 743 892 l 743 621 q 745 575 743 585 l 1282 575 l 1282 514 l 753 514 q 925 200 787 338 q 1278 -22 1061 60 l 1249 -81 q 907 127 1051 -9 q 710 432 764 264 q 500 132 652 267 q 140 -81 349 -4 l 111 -22 q 482 203 338 62 q 663 514 627 345 l 107 514 z "},"奏":{"ha":1389,"x_min":69,"x_max":1320,"o":"m 530 629 l 860 629 q 777 781 818 694 l 616 781 q 530 629 579 705 m 77 572 l 77 629 l 457 629 q 546 781 515 717 l 183 781 l 183 838 l 572 838 q 621 981 601 902 l 129 981 l 129 1039 l 635 1039 q 653 1156 649 1115 l 721 1152 q 703 1039 717 1107 l 1260 1039 l 1260 981 l 689 981 q 642 838 669 899 l 1206 838 l 1206 781 l 844 781 q 935 629 873 720 l 1312 629 l 1312 572 l 977 572 q 1320 290 1118 393 l 1295 228 q 900 572 1070 342 l 492 572 q 94 228 326 346 l 69 290 q 414 572 271 393 l 77 572 m 220 211 l 220 268 l 652 268 q 675 400 675 329 l 415 400 l 415 456 l 974 456 l 974 400 l 742 400 q 720 268 742 326 l 1169 268 l 1169 211 l 694 211 q 665 165 687 197 q 1267 -64 981 75 l 1235 -117 q 625 119 938 28 q 147 -104 468 -48 l 125 -46 q 623 211 503 21 l 220 211 z "},"奥":{"ha":1389,"x_min":66,"x_max":1322,"o":"m 342 916 l 390 949 q 554 750 467 867 l 504 718 q 342 916 412 840 m 1048 917 q 885 717 976 806 l 836 751 q 997 947 935 848 l 1048 917 m 726 407 l 663 407 l 663 629 q 298 367 531 481 l 262 415 q 607 650 475 515 l 281 650 l 281 705 l 663 705 l 663 947 l 726 947 l 726 705 l 1108 705 l 1108 650 l 806 650 q 1128 408 939 563 l 1086 363 q 726 639 895 525 l 726 407 m 1221 330 l 1154 330 l 1154 974 l 235 974 l 235 330 l 168 330 l 168 1032 l 551 1032 q 640 1165 603 1102 l 705 1149 q 629 1032 673 1093 l 1221 1032 l 1221 330 m 660 363 l 729 363 l 729 273 l 1322 273 l 1322 215 l 742 215 q 926 58 781 130 q 1301 -46 1072 -14 l 1282 -107 q 911 2 1066 -75 q 697 172 757 79 q 480 2 638 80 q 107 -107 322 -76 l 87 -46 q 463 58 317 -14 q 647 215 608 130 l 66 215 l 66 273 l 660 273 l 660 363 z "},"奨":{"ha":1389,"x_min":60,"x_max":1322,"o":"m 317 1104 l 382 1104 l 382 372 l 317 372 l 317 619 q 82 515 229 576 l 60 574 q 317 688 179 621 l 317 1104 m 82 991 l 138 1022 q 282 779 222 897 l 227 751 q 82 991 159 879 m 452 1040 q 1263 1099 906 1046 l 1272 1040 q 456 983 919 989 l 452 1040 m 627 771 l 570 741 q 452 925 500 867 l 504 957 q 627 771 571 878 m 917 785 l 860 755 q 742 946 803 871 l 794 978 q 917 785 859 900 m 1068 753 l 1018 793 q 1225 1018 1133 884 l 1280 986 q 1068 753 1182 842 m 1320 718 l 1320 661 l 1193 661 l 1193 492 q 1172 404 1194 422 q 1069 386 1150 387 q 873 393 1057 386 l 872 450 q 1079 443 1050 443 q 1118 451 1108 443 q 1126 503 1127 459 l 1126 661 l 443 661 l 443 718 l 1126 718 l 1126 791 l 1193 791 l 1193 718 l 1320 718 m 847 460 l 799 415 q 578 597 706 510 l 623 643 q 847 460 745 562 m 660 414 l 729 414 l 729 297 l 1322 297 l 1322 239 l 739 239 q 928 66 775 148 q 1303 -46 1082 -15 l 1282 -107 q 914 7 1070 -75 q 697 189 758 90 q 476 7 633 90 q 107 -107 319 -76 l 86 -46 q 460 66 307 -15 q 650 239 614 148 l 66 239 l 66 297 l 660 297 l 660 414 z "},"奮":{"ha":1389,"x_min":57,"x_max":1332,"o":"m 728 153 l 1147 153 l 1147 248 l 728 248 l 728 153 m 728 100 l 728 1 l 1147 1 l 1147 100 l 728 100 m 241 100 l 241 1 l 661 1 l 661 100 l 241 100 m 241 153 l 661 153 l 661 248 l 241 248 l 241 153 m 241 -52 l 241 -109 l 175 -109 l 175 300 l 1214 300 l 1214 -109 l 1147 -109 l 1147 -52 l 241 -52 m 679 693 l 679 778 l 403 778 q 314 693 339 714 l 679 693 m 679 554 l 679 639 l 309 639 l 309 554 l 679 554 m 679 500 l 309 500 l 309 415 l 679 415 l 679 500 m 555 979 q 503 939 526 954 l 526 929 q 452 832 491 882 l 690 832 q 755 950 718 873 l 819 935 q 762 832 783 867 l 1029 832 q 799 979 897 899 l 555 979 m 90 979 l 90 1036 l 532 1036 q 661 1177 611 1102 l 726 1157 q 621 1036 680 1090 l 1299 1036 l 1299 979 l 893 979 q 1332 781 1069 854 l 1308 722 q 1150 778 1215 751 l 749 778 l 749 693 l 1137 693 l 1137 639 l 749 639 l 749 554 l 1137 554 l 1137 500 l 749 500 l 749 415 l 1179 415 l 1179 359 l 241 359 l 241 637 q 113 557 176 591 l 86 610 q 429 892 286 712 q 79 745 283 805 l 57 800 q 458 979 295 865 l 90 979 z "},"女":{"ha":1389,"x_min":79,"x_max":1310,"o":"m 779 281 q 1013 825 952 474 l 555 825 q 355 461 473 623 q 779 281 586 385 m 79 825 l 79 886 l 509 886 q 589 1145 551 995 l 654 1136 q 579 886 618 991 l 1310 886 l 1310 825 l 1079 825 q 838 248 1019 459 q 1289 -56 1057 121 l 1246 -102 q 794 201 994 90 q 118 -90 564 -26 l 107 -32 q 734 235 519 28 q 318 411 526 345 q 244 319 280 360 l 193 358 q 484 825 379 576 l 79 825 z "},"好":{"ha":1389,"x_min":52,"x_max":1352,"o":"m 197 454 q 387 317 310 380 q 513 827 503 552 l 289 827 q 197 454 251 618 m 1352 533 l 1352 471 l 1050 471 l 1050 65 q 1025 -60 1050 -34 q 907 -86 1001 -85 q 715 -79 866 -86 l 715 -18 q 884 -24 808 -24 q 971 -11 960 -24 q 982 65 982 2 l 982 471 l 579 471 l 579 533 l 982 533 l 982 708 l 1006 708 q 1218 997 1127 838 l 633 997 l 633 1059 l 1291 1059 l 1291 997 q 1050 664 1184 806 l 1050 533 l 1352 533 m 56 827 l 56 886 l 233 886 q 268 1129 252 989 l 334 1125 q 300 886 324 1040 l 575 886 q 436 275 575 551 q 635 68 542 178 l 589 24 q 406 218 490 140 q 90 -131 282 1 l 52 -79 q 358 260 240 49 q 176 395 288 322 q 142 302 166 363 l 87 343 q 222 827 170 552 l 56 827 z "},"妹":{"ha":1389,"x_min":56,"x_max":1349,"o":"m 62 827 l 62 886 l 239 886 q 273 1129 257 989 l 338 1125 q 304 886 326 1024 l 526 886 l 526 859 q 407 282 526 549 q 521 150 452 235 l 479 103 q 378 222 420 178 q 87 -129 262 1 l 56 -74 q 330 269 225 54 q 180 395 250 347 q 146 302 170 363 l 93 343 q 228 827 176 552 l 62 827 m 201 454 q 358 329 279 404 q 463 827 456 564 l 293 827 q 201 454 255 618 m 1324 596 l 1324 536 l 997 536 q 1349 25 1111 267 l 1307 -32 q 962 473 1075 213 l 962 -129 l 896 -129 l 896 478 q 507 -32 770 214 l 460 16 q 861 536 735 267 l 551 536 l 551 596 l 896 596 l 896 880 l 576 880 l 576 942 l 896 942 l 896 1129 l 962 1129 l 962 942 l 1303 942 l 1303 880 l 962 880 l 962 596 l 1324 596 z "},"妻":{"ha":1389,"x_min":79,"x_max":1310,"o":"m 1111 664 l 730 664 l 730 542 l 1111 542 l 1111 664 m 1111 720 l 1111 836 l 730 836 l 730 720 l 1111 720 m 737 126 q 994 340 905 216 l 517 340 q 379 208 458 275 q 737 126 584 170 m 93 340 l 93 396 l 482 396 q 558 488 509 425 l 187 488 l 187 542 l 659 542 l 659 664 l 79 664 l 79 720 l 659 720 l 659 836 l 187 836 l 187 890 l 659 890 l 659 982 l 93 982 l 93 1039 l 659 1039 l 659 1136 l 730 1136 l 730 1039 l 1296 1039 l 1296 982 l 730 982 l 730 890 l 1178 890 l 1178 720 l 1310 720 l 1310 664 l 1178 664 l 1178 488 l 635 488 q 566 396 578 410 l 1296 396 l 1296 340 l 1065 340 q 815 104 981 207 q 1264 -56 1038 36 l 1231 -110 q 747 65 981 -7 q 142 -104 505 -60 l 127 -46 q 663 90 439 -10 q 326 165 516 131 q 241 103 260 117 l 193 143 q 429 340 340 250 l 93 340 z "},"姉":{"ha":1389,"x_min":50,"x_max":1332,"o":"m 57 827 l 57 886 l 233 886 q 268 1129 252 989 l 332 1125 q 298 886 320 1024 l 521 886 l 521 859 q 395 267 521 537 q 551 58 473 177 l 503 18 q 364 205 446 106 q 82 -129 253 -3 l 50 -74 q 319 258 216 52 q 175 392 259 326 q 155 340 167 372 q 140 302 142 308 l 87 343 q 222 827 170 552 l 57 827 m 196 454 q 349 319 283 389 q 457 827 451 558 l 288 827 q 196 454 250 622 m 1332 909 l 961 909 l 961 708 l 1293 708 l 1293 157 q 1275 31 1293 62 q 1179 5 1255 5 q 1043 12 1156 5 l 1043 74 q 1180 66 1147 66 q 1220 79 1213 66 q 1227 157 1227 91 l 1227 647 l 961 647 l 961 -129 l 895 -129 l 895 647 l 633 647 l 633 5 l 568 5 l 568 708 l 895 708 l 895 909 l 511 909 l 511 971 l 895 971 l 895 1129 l 961 1129 l 961 971 l 1332 971 l 1332 909 z "},"始":{"ha":1389,"x_min":50,"x_max":1346,"o":"m 673 -37 l 673 -115 l 607 -115 l 607 473 l 1265 473 l 1265 -115 l 1197 -115 l 1197 -37 l 673 -37 m 57 827 l 57 886 l 233 886 q 268 1129 252 989 l 332 1125 q 298 886 320 1024 l 521 886 l 521 859 q 401 282 521 547 q 555 102 464 218 l 507 58 q 372 221 452 132 q 82 -129 260 3 l 50 -74 q 325 269 220 54 q 175 395 250 341 q 140 302 165 363 l 87 343 q 222 827 170 552 l 57 827 m 196 454 q 353 330 284 397 q 457 827 451 565 l 288 827 q 196 454 250 618 m 1063 942 l 1120 972 q 1346 549 1242 776 l 1287 522 q 1219 661 1273 557 q 551 595 865 607 l 549 656 q 591 659 572 656 q 636 661 617 659 q 817 1136 732 876 l 879 1118 q 707 665 800 878 q 1190 718 932 681 q 1063 942 1117 854 m 1197 22 l 1197 414 l 673 414 l 673 22 l 1197 22 z "},"姓":{"ha":1389,"x_min":50,"x_max":1329,"o":"m 196 454 q 349 319 271 402 q 457 827 451 558 l 288 827 q 196 454 250 622 m 968 -3 l 1329 -3 l 1329 -65 l 476 -65 l 476 -3 l 900 -3 l 900 415 l 570 415 l 570 476 l 900 476 l 900 817 l 657 817 q 549 550 611 667 l 494 575 q 395 267 462 410 q 534 82 449 204 l 486 40 q 364 205 420 135 q 82 -129 253 -3 l 50 -74 q 319 258 216 52 q 175 392 259 326 q 155 340 167 372 q 140 302 142 308 l 87 343 q 222 827 170 552 l 57 827 l 57 886 l 233 886 q 268 1129 252 989 l 332 1125 q 298 886 320 1024 l 521 886 l 521 859 q 498 600 521 716 q 659 1086 608 817 l 722 1075 q 675 878 705 982 l 900 878 l 900 1116 l 968 1116 l 968 878 l 1310 878 l 1310 817 l 968 817 l 968 476 l 1270 476 l 1270 415 l 968 415 l 968 -3 z "},"委":{"ha":1389,"x_min":68,"x_max":1321,"o":"m 728 150 q 996 392 899 246 l 507 392 q 358 239 440 313 q 728 150 554 201 m 93 392 l 93 447 l 471 447 q 579 596 534 525 l 639 574 q 553 447 602 515 l 1296 447 l 1296 392 l 1065 392 q 803 127 975 238 q 1264 -49 1025 54 l 1231 -103 q 736 87 959 18 q 142 -90 490 -45 l 127 -32 q 654 113 435 9 q 306 195 481 163 q 236 138 270 162 l 186 176 q 422 392 315 276 l 93 392 m 729 844 l 1296 844 l 1296 787 l 807 787 q 1321 534 984 651 l 1300 479 q 729 781 924 610 l 729 538 l 660 538 l 660 781 q 89 479 465 610 l 68 534 q 582 787 405 651 l 93 787 l 93 844 l 660 844 l 660 999 q 189 986 420 986 l 186 1044 q 1196 1107 724 1044 l 1207 1050 q 729 1003 1008 1023 l 729 844 z "},"姿":{"ha":1389,"x_min":83,"x_max":1303,"o":"m 725 149 q 997 393 899 247 l 522 393 q 366 236 456 319 q 725 149 534 203 m 1275 1043 l 1275 983 q 1071 785 1199 865 l 1028 831 q 1198 983 1137 903 l 647 983 q 465 806 569 882 l 418 851 q 664 1135 581 970 l 729 1120 q 689 1043 701 1062 l 1275 1043 m 93 393 l 93 452 l 490 452 q 572 558 533 500 l 633 541 q 571 452 605 497 l 1296 452 l 1296 393 l 1067 393 q 802 126 977 240 q 1264 -49 1015 60 l 1231 -103 q 736 87 959 18 q 142 -90 490 -45 l 127 -32 q 654 113 435 9 q 314 193 496 158 q 243 138 258 147 l 193 176 q 439 393 335 282 l 93 393 m 375 920 q 122 1038 257 985 l 150 1090 q 406 972 304 1029 l 375 920 m 83 603 q 422 782 282 680 l 454 730 q 110 549 318 630 l 83 603 m 803 878 l 803 949 l 869 949 l 869 878 q 985 680 869 772 q 1303 551 1100 589 l 1283 494 q 1000 597 1113 527 q 833 762 882 667 q 662 617 781 680 q 376 526 543 555 l 358 586 q 686 703 564 621 q 803 878 803 786 z "},"娘":{"ha":1389,"x_min":50,"x_max":1357,"o":"m 57 827 l 57 886 l 233 886 q 268 1129 252 989 l 332 1125 q 298 886 320 1024 l 521 886 l 521 859 q 395 267 521 537 q 534 82 449 204 l 486 40 q 364 205 420 135 q 82 -129 253 -3 l 50 -74 q 319 258 216 52 q 175 392 259 326 q 155 340 167 372 q 140 302 142 308 l 87 343 q 222 827 170 552 l 57 827 m 196 454 q 349 319 271 402 q 457 827 451 558 l 288 827 q 196 454 250 622 m 656 705 l 656 496 l 1189 496 l 1189 705 l 656 705 m 656 761 l 1189 761 l 1189 953 l 656 953 l 656 761 m 1014 222 q 1242 437 1145 319 l 896 437 q 1014 222 941 317 m 656 437 l 656 0 q 937 72 784 26 l 949 14 q 458 -97 711 -59 l 452 -37 q 589 -14 509 -28 l 589 1011 l 886 1011 l 886 1156 l 954 1156 l 954 1011 l 1257 1011 l 1257 450 l 1300 415 q 1051 176 1185 273 q 1357 -43 1175 33 l 1329 -98 q 1024 113 1156 -28 q 829 437 892 254 l 656 437 z "},"婚":{"ha":1389,"x_min":41,"x_max":1348,"o":"m 50 827 l 50 886 l 211 886 q 241 1129 227 989 l 306 1125 q 275 886 292 989 l 464 886 l 464 859 q 353 256 464 521 q 485 58 407 185 l 437 18 q 323 192 384 109 q 74 -129 229 1 l 41 -75 q 281 249 187 48 q 155 380 224 318 q 142 343 151 368 q 127 302 134 319 l 77 343 q 200 827 153 551 l 50 827 m 176 444 q 307 313 251 381 q 403 827 399 543 l 265 827 q 176 444 229 614 m 612 856 l 922 856 q 901 1008 905 933 q 612 989 760 991 l 612 856 m 597 17 l 1179 17 l 1179 197 l 597 197 l 597 17 m 1247 -104 l 1179 -104 l 1179 -39 l 597 -39 l 597 -104 l 530 -104 l 530 484 l 1183 484 q 1042 593 1108 509 q 937 799 975 677 l 612 799 l 612 586 q 937 701 780 632 l 949 644 q 457 489 709 541 l 450 547 q 546 568 515 560 l 546 1046 l 553 1046 q 1218 1129 914 1046 l 1231 1069 q 966 1017 1133 1042 q 990 856 970 941 l 1289 856 l 1289 799 l 1007 799 q 1111 611 1048 681 q 1227 538 1171 538 q 1289 717 1265 538 l 1348 696 q 1247 475 1320 487 l 1247 -104 m 1179 253 l 1179 427 l 597 427 l 597 253 l 1179 253 z "},"婦":{"ha":1389,"x_min":41,"x_max":1333,"o":"m 176 444 q 307 313 251 381 q 403 827 399 543 l 265 827 q 176 444 229 614 m 1193 715 l 1193 843 l 551 843 l 551 899 l 1193 899 l 1193 1018 l 524 1018 l 524 1078 l 1261 1078 l 1261 660 l 524 660 l 524 715 l 1193 715 m 848 507 l 501 507 l 501 315 l 436 315 l 436 543 q 353 256 405 377 q 485 58 407 185 l 437 18 q 323 192 384 109 q 74 -129 229 1 l 41 -75 q 281 249 187 48 q 155 380 224 318 q 142 343 151 368 q 127 302 134 319 l 77 343 q 200 827 153 551 l 50 827 l 50 886 l 211 886 q 241 1129 227 989 l 306 1125 q 275 886 292 989 l 464 886 l 464 859 q 440 566 464 711 l 1333 566 l 1333 315 l 1268 315 l 1268 507 l 916 507 l 916 370 l 1232 370 l 1232 81 q 1213 -8 1232 9 q 1131 -26 1194 -26 q 978 -20 1069 -26 l 979 40 q 1160 41 1143 28 q 1166 81 1166 46 l 1166 314 l 916 314 l 916 -129 l 848 -129 l 848 314 l 603 314 l 603 -32 l 538 -32 l 538 370 l 848 370 l 848 507 z "},"嫌":{"ha":1389,"x_min":41,"x_max":1356,"o":"m 176 446 q 313 326 241 398 q 403 831 399 559 l 265 831 q 176 446 228 618 m 690 541 l 436 541 q 359 275 410 400 q 496 94 427 196 q 667 310 607 203 l 478 310 l 478 366 l 690 366 l 690 541 m 949 541 l 757 541 l 757 366 l 949 366 l 949 541 m 1015 541 l 1015 366 l 1196 366 l 1196 541 l 1015 541 m 949 600 l 949 762 l 757 762 l 757 600 l 949 600 m 1015 600 l 1196 600 l 1196 762 l 1015 762 l 1015 600 m 757 818 l 949 818 l 949 953 l 757 953 l 757 818 m 1335 1011 l 1335 953 l 1015 953 l 1015 818 l 1261 818 l 1261 600 l 1341 600 l 1341 541 l 1261 541 l 1261 310 l 1039 310 q 1356 -29 1138 136 l 1325 -85 q 1015 244 1122 72 l 1015 -115 l 949 -115 l 949 310 l 757 310 l 757 -115 l 690 -115 l 690 244 q 380 -85 583 72 l 350 -29 q 450 52 416 21 q 332 211 395 134 q 74 -129 231 -1 l 41 -75 q 286 264 194 59 q 157 383 227 330 q 127 302 142 345 l 77 343 q 201 831 153 557 l 50 831 l 50 892 l 211 892 q 241 1129 227 989 l 306 1125 q 275 892 296 1034 l 464 892 l 464 859 q 446 600 464 719 l 690 600 l 690 762 l 492 762 l 492 818 l 690 818 l 690 953 l 432 953 l 432 1011 l 675 1011 q 602 1132 626 1097 l 660 1153 q 745 1011 705 1088 l 966 1011 q 1046 1152 1012 1083 l 1108 1135 q 1039 1011 1074 1066 l 1335 1011 z "},"子":{"ha":1389,"x_min":77,"x_max":1312,"o":"m 257 997 l 257 1059 l 1149 1059 l 1149 997 q 755 664 975 808 l 755 529 l 1312 529 l 1312 467 l 755 467 l 755 74 q 732 -52 755 -26 q 612 -77 709 -77 q 403 -69 578 -77 l 403 -8 q 618 -16 572 -16 q 675 -3 665 -16 q 686 74 686 11 l 686 467 l 77 467 l 77 529 l 686 529 l 686 704 l 707 704 q 1065 997 907 830 l 257 997 z "},"字":{"ha":1389,"x_min":66,"x_max":1322,"o":"m 311 733 l 311 793 l 1080 793 l 1080 733 q 746 486 931 592 l 746 390 l 1322 390 l 1322 329 l 746 329 l 746 39 q 722 -77 746 -55 q 603 -98 703 -98 q 389 -92 567 -98 l 389 -31 q 608 -37 563 -37 q 667 -26 654 -37 q 676 46 676 -15 l 676 329 l 66 329 l 66 390 l 676 390 l 676 539 l 708 539 q 985 733 857 624 l 311 733 m 1193 935 l 196 935 l 196 710 l 129 710 l 129 994 l 660 994 l 660 1153 l 729 1153 l 729 994 l 1260 994 l 1260 710 l 1193 710 l 1193 935 z "},"存":{"ha":1389,"x_min":54,"x_max":1310,"o":"m 893 39 l 893 332 l 414 332 l 414 393 l 893 393 l 893 519 l 926 519 q 1183 713 1065 602 l 549 713 l 549 774 l 1268 774 l 1268 713 q 961 471 1132 576 l 961 393 l 1310 393 l 1310 332 l 961 332 l 961 28 q 939 -68 960 -49 q 831 -86 917 -87 q 663 -79 806 -86 l 661 -18 q 838 -25 800 -25 q 884 -16 876 -25 q 893 39 892 -7 m 93 951 l 93 1013 l 530 1013 q 597 1161 575 1101 l 663 1149 q 604 1013 631 1067 l 1296 1013 l 1296 951 l 572 951 q 317 607 467 763 l 317 -104 l 249 -104 l 249 549 q 82 407 162 462 l 54 471 q 249 633 163 547 l 249 764 l 317 764 l 317 705 q 497 951 422 825 l 93 951 z "},"孝":{"ha":1389,"x_min":60,"x_max":1324,"o":"m 1310 262 l 1310 204 l 770 204 l 770 58 q 746 -62 769 -37 q 650 -86 723 -86 q 416 -79 576 -86 l 416 -20 q 625 -26 571 -26 q 689 -14 678 -26 q 700 62 700 -1 l 700 204 l 127 204 l 127 262 l 700 262 l 700 347 l 741 347 q 1053 473 911 397 l 519 473 q 82 294 307 368 l 60 354 q 376 473 225 406 l 220 473 l 220 530 l 494 530 q 768 692 650 610 l 65 692 l 65 750 l 618 750 l 618 957 l 199 957 l 199 1014 l 618 1014 l 618 1136 l 688 1136 l 688 1014 l 1010 1014 l 1010 957 l 688 957 l 688 750 l 850 750 q 1196 1089 1057 907 l 1249 1053 q 951 750 1119 885 l 1324 750 l 1324 692 l 875 692 q 625 530 760 606 l 1166 530 l 1166 473 q 770 297 991 366 l 770 262 l 1310 262 z "},"季":{"ha":1389,"x_min":68,"x_max":1321,"o":"m 728 844 l 1296 844 l 1296 787 l 799 787 q 1321 528 985 641 l 1300 472 q 728 774 915 608 l 728 549 l 661 549 l 661 774 q 89 472 474 608 l 68 528 q 590 787 404 641 l 93 787 l 93 844 l 661 844 l 661 997 q 189 983 421 983 l 186 1044 q 1196 1107 724 1044 l 1207 1047 q 728 1000 1008 1020 l 728 844 m 675 197 l 93 197 l 93 257 l 675 257 l 675 330 l 714 330 q 1014 453 882 382 l 262 453 l 262 510 l 1126 510 l 1126 453 q 745 282 956 349 l 745 257 l 1296 257 l 1296 197 l 745 197 l 745 46 q 721 -73 745 -49 q 624 -98 697 -98 q 392 -92 551 -98 l 390 -32 q 600 -38 545 -38 q 665 -26 654 -38 q 675 50 675 -14 l 675 197 z "},"学":{"ha":1389,"x_min":66,"x_max":1322,"o":"m 309 692 l 309 751 l 1079 751 l 1079 692 q 746 444 929 550 l 746 363 l 1322 363 l 1322 301 l 746 301 l 746 39 q 722 -77 746 -55 q 603 -98 703 -98 q 389 -92 567 -98 l 389 -31 q 608 -37 563 -37 q 667 -26 654 -37 q 676 46 676 -15 l 676 301 l 66 301 l 66 363 l 676 363 l 676 501 l 717 501 q 985 692 854 578 l 309 692 m 1193 880 l 196 880 l 196 650 l 129 650 l 129 940 l 358 940 q 254 1096 298 1040 l 311 1125 q 433 940 374 1044 l 682 940 q 574 1109 638 1019 l 632 1139 q 755 940 700 1045 l 956 940 q 1078 1135 1031 1042 l 1139 1114 q 1032 940 1095 1031 l 1260 940 l 1260 650 l 1193 650 l 1193 880 z "},"孫":{"ha":1389,"x_min":43,"x_max":1357,"o":"m 889 -92 l 821 -92 l 821 387 l 372 367 l 370 427 l 629 439 q 661 465 633 441 q 710 504 690 489 q 433 796 587 638 l 481 838 q 574 741 538 777 q 829 979 736 883 q 503 968 640 968 l 498 1028 q 1263 1099 939 1028 l 1275 1040 q 924 987 1120 1005 q 616 696 781 836 q 757 545 659 653 q 1158 911 966 718 l 1204 871 q 729 443 973 642 l 1213 465 q 1105 661 1183 519 l 1160 688 q 1357 317 1266 500 l 1303 292 l 1290 315 q 1270 357 1278 339 q 1243 407 1246 396 l 889 392 l 889 -92 m 358 5 q 675 294 550 140 l 721 253 q 397 -43 594 93 l 358 5 m 979 252 l 1021 297 q 1344 -9 1211 139 l 1300 -53 q 979 252 1158 102 m 53 1004 l 53 1065 l 457 1065 l 457 1004 q 279 732 372 841 l 279 555 l 468 602 l 475 541 l 279 490 l 279 65 q 264 -60 279 -33 q 205 -86 252 -86 q 54 -79 157 -86 l 54 -18 q 155 -24 109 -24 q 206 -13 201 -24 q 212 65 212 -2 l 212 475 l 52 435 l 43 497 l 212 539 l 212 774 l 233 774 q 387 1004 324 881 l 53 1004 z "},"宅":{"ha":1389,"x_min":75,"x_max":1314,"o":"m 729 993 l 1260 993 l 1260 713 l 1193 713 l 1193 933 l 196 933 l 196 728 l 129 728 l 129 993 l 660 993 l 660 1141 l 729 1141 l 729 993 m 951 -86 l 705 -86 q 616 -78 645 -83 q 556 -65 575 -75 q 521 -34 537 -56 q 505 8 505 -12 q 503 72 503 22 l 503 332 l 81 289 l 75 350 l 503 393 l 503 652 q 164 614 342 628 l 160 675 q 1118 860 754 722 l 1139 800 q 572 663 914 716 l 572 400 l 1308 475 l 1314 414 l 572 339 l 572 54 q 581 14 572 25 q 590 1 581 11 q 606 -8 600 -8 q 659 -20 626 -20 q 713 -22 693 -21 q 772 -24 734 -24 l 940 -24 q 1014 -20 970 -24 l 1075 -17 q 1120 -3 1090 -15 q 1153 14 1150 8 q 1177 45 1162 20 q 1192 81 1192 69 q 1218 281 1206 126 l 1286 272 q 1278 181 1279 213 q 1206 -39 1270 25 q 1081 -78 1170 -71 q 951 -86 993 -86 z "},"宇":{"ha":1389,"x_min":66,"x_max":1322,"o":"m 129 994 l 660 994 l 660 1153 l 729 1153 l 729 994 l 1260 994 l 1260 705 l 1193 705 l 1193 935 l 196 935 l 196 705 l 129 705 l 129 994 m 673 720 l 309 720 l 309 781 l 1080 781 l 1080 720 l 743 720 l 743 436 l 1322 436 l 1322 375 l 743 375 l 743 39 q 720 -77 743 -55 q 600 -98 701 -98 q 387 -92 566 -98 l 386 -31 q 606 -37 560 -37 q 664 -26 651 -37 q 673 46 673 -15 l 673 375 l 66 375 l 66 436 l 673 436 l 673 720 z "},"守":{"ha":1389,"x_min":77,"x_max":1312,"o":"m 129 994 l 660 994 l 660 1153 l 729 1153 l 729 994 l 1260 994 l 1260 750 l 1193 750 l 1193 933 l 196 933 l 196 750 l 129 750 l 129 994 m 77 644 l 932 644 l 932 854 l 1002 854 l 1002 644 l 1312 644 l 1312 583 l 1002 583 l 1002 61 q 977 -72 1002 -45 q 846 -98 951 -98 q 607 -92 822 -98 l 606 -31 q 860 -37 816 -37 q 918 -25 904 -37 q 932 61 932 -12 l 932 583 l 77 583 l 77 644 m 298 446 l 350 488 q 606 164 496 333 l 553 125 q 298 446 437 299 z "},"安":{"ha":1389,"x_min":92,"x_max":1297,"o":"m 762 218 q 1004 623 933 366 l 529 623 q 351 359 458 490 q 762 218 564 303 m 729 993 l 1260 993 l 1260 747 l 1193 747 l 1193 935 l 196 935 l 196 747 l 129 747 l 129 993 l 660 993 l 660 1141 l 729 1141 l 729 993 m 92 623 l 92 684 l 485 684 q 578 903 541 793 l 644 892 q 559 684 616 804 l 1297 684 l 1297 623 l 1072 623 q 829 189 1000 349 q 1278 -52 1021 105 l 1239 -104 q 777 144 992 47 q 132 -92 558 -24 l 118 -32 q 707 175 499 28 q 309 310 507 258 q 239 239 300 302 l 189 277 q 453 623 340 425 l 92 623 z "},"完":{"ha":1389,"x_min":86,"x_max":1310,"o":"m 281 720 l 281 778 l 1108 778 l 1108 720 l 281 720 m 812 20 l 812 458 l 534 458 q 441 97 532 218 q 118 -98 351 -24 l 86 -41 q 383 131 300 22 q 468 458 466 241 l 125 458 l 125 518 l 1264 518 l 1264 458 l 880 458 l 880 37 q 883 7 880 19 q 956 -22 889 -18 q 1059 -24 978 -24 l 1107 -24 l 1175 -17 q 1198 -5 1183 -16 q 1217 14 1213 5 q 1236 72 1231 45 l 1239 119 q 1244 179 1240 128 q 1246 256 1244 221 l 1310 250 q 1294 37 1305 85 q 1267 -39 1283 -12 q 1242 -62 1251 -58 q 1192 -78 1233 -66 q 1130 -84 1146 -83 q 1005 -85 1114 -85 q 854 -68 897 -85 q 812 20 812 -50 m 729 993 l 1260 993 l 1260 713 l 1193 713 l 1193 933 l 196 933 l 196 713 l 129 713 l 129 993 l 660 993 l 660 1141 l 729 1141 l 729 993 z "},"宗":{"ha":1389,"x_min":90,"x_max":1299,"o":"m 129 1002 l 660 1002 l 660 1160 l 729 1160 l 729 1002 l 1260 1002 l 1260 720 l 1193 720 l 1193 942 l 196 942 l 196 720 l 129 720 l 129 1002 m 309 722 l 309 782 l 1080 782 l 1080 722 l 309 722 m 1299 518 l 1299 458 l 746 458 l 746 16 q 721 -80 746 -61 q 608 -98 696 -99 q 424 -92 578 -98 l 424 -32 q 614 -39 574 -39 q 665 -31 654 -39 q 676 14 676 -23 l 676 458 l 90 458 l 90 518 l 1299 518 m 104 11 q 392 332 290 151 l 446 301 q 146 -36 340 108 l 104 11 m 924 294 l 968 338 q 1287 -1 1149 173 l 1239 -41 q 924 294 1100 134 z "},"官":{"ha":1389,"x_min":102,"x_max":1287,"o":"m 363 551 l 1017 551 l 1017 789 l 363 789 l 363 551 m 363 -31 l 363 -109 l 294 -109 l 294 848 l 1086 848 l 1086 496 l 363 496 l 363 370 l 1160 370 l 1160 -109 l 1092 -109 l 1092 -31 l 363 -31 m 363 25 l 1092 25 l 1092 310 l 363 310 l 363 25 m 729 1018 l 1287 1018 l 1287 732 l 1219 732 l 1219 958 l 170 958 l 170 732 l 102 732 l 102 1018 l 660 1018 l 660 1162 l 729 1162 l 729 1018 z "},"宙":{"ha":1389,"x_min":100,"x_max":1289,"o":"m 258 -25 l 258 -110 l 191 -110 l 191 693 l 661 693 l 661 886 l 728 886 l 728 693 l 1197 693 l 1197 -110 l 1131 -110 l 1131 -25 l 258 -25 m 728 33 l 1131 33 l 1131 317 l 728 317 l 728 33 m 258 317 l 258 33 l 661 33 l 661 317 l 258 317 m 661 635 l 258 635 l 258 375 l 661 375 l 661 635 m 728 635 l 728 375 l 1131 375 l 1131 635 l 728 635 m 100 994 l 660 994 l 660 1153 l 729 1153 l 729 994 l 1289 994 l 1289 720 l 1222 720 l 1222 936 l 167 936 l 167 720 l 100 720 l 100 994 z "},"定":{"ha":1389,"x_min":77,"x_max":1300,"o":"m 729 1141 l 729 993 l 1260 993 l 1260 711 l 1193 711 l 1193 933 l 196 933 l 196 711 l 129 711 l 129 993 l 660 993 l 660 1141 l 729 1141 m 1211 -79 q 618 -8 818 -79 q 302 248 419 63 q 134 -102 233 50 l 77 -74 q 313 525 245 186 l 376 513 q 328 321 356 408 q 469 142 385 216 q 675 37 553 73 l 675 715 l 267 715 l 267 775 l 1122 775 l 1122 715 l 745 715 l 745 444 l 1177 444 l 1177 386 l 745 386 l 745 20 q 1213 -18 919 -18 l 1300 -18 l 1297 -79 l 1211 -79 z "},"宝":{"ha":1389,"x_min":104,"x_max":1284,"o":"m 911 269 l 960 309 q 1164 83 1061 207 l 1114 45 q 911 269 1006 174 m 129 994 l 660 994 l 660 1153 l 729 1153 l 729 994 l 1260 994 l 1260 729 l 1193 729 l 1193 935 l 196 935 l 196 729 l 129 729 l 129 994 m 240 775 l 1149 775 l 1149 715 l 722 715 l 722 421 l 1122 421 l 1122 364 l 722 364 l 722 -11 l 1284 -11 l 1284 -72 l 104 -72 l 104 -11 l 653 -11 l 653 364 l 267 364 l 267 421 l 653 421 l 653 715 l 240 715 l 240 775 z "},"実":{"ha":1389,"x_min":92,"x_max":1297,"o":"m 1297 363 l 1297 302 l 747 302 q 933 100 791 192 q 1279 -31 1077 9 l 1260 -92 q 908 47 1065 -51 q 697 265 758 146 q 485 47 637 147 q 129 -92 329 -50 l 110 -31 q 454 102 311 11 q 642 302 598 193 l 92 302 l 92 363 l 657 363 q 660 393 660 387 l 660 534 l 236 534 l 236 591 l 660 591 l 660 753 l 222 753 l 222 810 l 660 810 l 660 958 l 192 958 l 192 782 l 127 782 l 127 1018 l 660 1018 l 660 1141 l 729 1141 l 729 1018 l 1261 1018 l 1261 782 l 1197 782 l 1197 958 l 729 958 l 729 810 l 1166 810 l 1166 753 l 729 753 l 729 591 l 1153 591 l 1153 534 l 729 534 l 729 393 q 732 363 729 387 l 1297 363 z "},"客":{"ha":1389,"x_min":75,"x_max":1325,"o":"m 452 794 q 400 746 448 790 q 703 549 532 629 q 1028 794 905 652 l 452 794 m 1048 351 q 704 482 863 408 q 367 351 561 412 l 1048 351 m 334 -50 l 334 -115 l 265 -115 l 265 322 q 90 278 205 305 l 75 340 q 635 517 407 416 q 351 704 471 602 q 109 547 254 624 l 79 602 q 497 950 356 747 l 568 937 q 503 850 538 892 l 1112 850 l 1112 794 q 772 517 979 631 q 1325 340 971 429 l 1308 279 q 1122 330 1274 288 l 1122 -115 l 1053 -115 l 1053 -50 l 334 -50 m 729 1022 l 1287 1022 l 1287 754 l 1219 754 l 1219 965 l 170 965 l 170 754 l 102 754 l 102 1022 l 660 1022 l 660 1168 l 729 1168 l 729 1022 m 1053 7 l 1053 294 l 334 294 l 334 7 l 1053 7 z "},"宣":{"ha":1389,"x_min":90,"x_max":1299,"o":"m 1118 131 l 271 131 l 271 668 l 1118 668 l 1118 131 m 339 380 l 339 186 l 1050 186 l 1050 380 l 339 380 m 339 436 l 1050 436 l 1050 612 l 339 612 l 339 436 m 227 793 l 227 850 l 1162 850 l 1162 793 l 227 793 m 90 -65 l 90 -5 l 1299 -5 l 1299 -65 l 90 -65 m 729 1023 l 1287 1023 l 1287 730 l 1219 730 l 1219 965 l 170 965 l 170 730 l 102 730 l 102 1023 l 660 1023 l 660 1156 l 729 1156 l 729 1023 z "},"室":{"ha":1389,"x_min":90,"x_max":1299,"o":"m 729 228 l 729 -5 l 1299 -5 l 1299 -65 l 90 -65 l 90 -5 l 660 -5 l 660 228 l 187 228 l 187 286 l 660 286 l 660 446 l 729 446 l 729 286 l 1197 286 l 1197 228 l 729 228 m 729 1023 l 1287 1023 l 1287 729 l 1219 729 l 1219 965 l 170 965 l 170 729 l 102 729 l 102 1023 l 660 1023 l 660 1156 l 729 1156 l 729 1023 m 228 786 l 228 843 l 1161 843 l 1161 786 l 574 786 q 440 534 501 635 q 1035 586 722 551 q 899 734 968 659 l 950 768 q 1247 439 1111 600 l 1192 406 q 1080 534 1135 473 q 160 464 566 474 l 157 522 q 363 530 258 524 q 503 786 435 645 l 228 786 z "},"宮":{"ha":1389,"x_min":102,"x_max":1287,"o":"m 376 551 l 1013 551 l 1013 789 l 376 789 l 376 551 m 300 -31 l 300 -109 l 232 -109 l 232 370 l 579 370 q 629 496 615 447 l 309 496 l 309 848 l 1080 848 l 1080 496 l 701 496 q 654 370 671 405 l 1157 370 l 1157 -109 l 1089 -109 l 1089 -31 l 300 -31 m 300 25 l 1089 25 l 1089 310 l 300 310 l 300 25 m 729 1018 l 1287 1018 l 1287 732 l 1219 732 l 1219 958 l 170 958 l 170 732 l 102 732 l 102 1018 l 660 1018 l 660 1162 l 729 1162 l 729 1018 z "},"害":{"ha":1389,"x_min":92,"x_max":1297,"o":"m 306 -32 l 306 -109 l 236 -109 l 236 318 l 1153 318 l 1153 -109 l 1083 -109 l 1083 -32 l 306 -32 m 729 478 l 1297 478 l 1297 419 l 92 419 l 92 478 l 660 478 l 660 615 l 174 615 l 174 671 l 660 671 l 660 796 l 215 796 l 215 851 l 660 851 l 660 966 l 180 966 l 180 791 l 115 791 l 115 1025 l 660 1025 l 660 1149 l 729 1149 l 729 1025 l 1274 1025 l 1274 791 l 1208 791 l 1208 966 l 729 966 l 729 851 l 1174 851 l 1174 796 l 729 796 l 729 671 l 1215 671 l 1215 615 l 729 615 l 729 478 m 1083 26 l 1083 260 l 306 260 l 306 26 l 1083 26 z "}}}
